<svg width="16" height="16" viewBox="0 0 16 16" fill="none" xmlns="http://www.w3.org/2000/svg">
<path d="M10 8.73081C9.78079 8.68488 9.5573 8.66253 9.33333 8.66414H5.33333C4.44928 8.66414 3.60143 9.01533 2.97631 9.64046C2.35119 10.2656 2 11.1134 2 11.9975V12.6641C2 12.6641 3.33333 13.9975 7.33333 13.9975C8.00211 14.0009 8.67033 13.9586 9.33333 13.8708C9.56667 13.8708 9.79333 13.8041 10 13.7575" stroke="#0099FF" stroke-width="1.33333" stroke-linecap="round" stroke-linejoin="round"/>
<path d="M11.3333 11.3333H14M12.6667 10V12.6667M10.6667 5.33333C10.6667 5.9926 10.4712 6.63707 10.1049 7.18523C9.73863 7.7334 9.21803 8.16064 8.60895 8.41293C7.99986 8.66522 7.32964 8.73124 6.68303 8.60262C6.03643 8.474 5.44249 8.15653 4.97631 7.69036C4.51014 7.22418 4.19267 6.63024 4.06405 5.98363C3.93543 5.33703 4.00144 4.66681 4.25374 4.05772C4.50603 3.44863 4.93327 2.92804 5.48143 2.56177C6.0296 2.1955 6.67406 2 7.33333 2C8.21739 2 9.06524 2.35119 9.69036 2.97631C10.3155 3.60143 10.6667 4.44928 10.6667 5.33333Z" stroke="#0099FF" stroke-width="1.33333" stroke-linecap="round" stroke-linejoin="round"/>
</svg>
