<svg width="31" height="14" viewBox="0 0 31 14" fill="none" xmlns="http://www.w3.org/2000/svg">
<g clip-path="url(#clip0_3217_13800)">
<path d="M25.2287 12.8581C26.5712 12.8581 27.2032 12.3433 27.7555 10.7824L30.1734 3.96499H28.7734L27.1519 9.23918H27.1232L25.5014 3.97217H24.0621L26.3952 10.4607L26.2701 10.8555C26.2282 11.1275 26.0856 11.3737 25.8705 11.5454C25.6553 11.717 25.3835 11.8014 25.109 11.7818C25.0007 11.7818 24.7905 11.7705 24.7054 11.7592V12.8307C24.8787 12.8546 25.054 12.8659 25.229 12.8652V12.8584L25.2287 12.8581ZM20.5622 9.44391C19.8277 9.44391 19.3615 9.08674 19.3615 8.54636C19.3615 7.98617 19.8113 7.6601 20.6705 7.60815L22.2011 7.51108V8.01488C22.1672 8.84441 21.4703 9.49039 20.6446 9.45656C20.6171 9.45524 20.5896 9.4533 20.5622 9.45075V9.44391ZM20.1927 10.5018C20.6025 10.5126 21.0075 10.4125 21.3651 10.2122C21.7227 10.0118 22.0196 9.71866 22.2243 9.36359H22.2527V10.4351H23.5276V5.99728C23.5276 4.7101 22.5032 3.88091 20.9265 3.88091C19.464 3.88091 18.3822 4.72172 18.3426 5.87697H19.5836C19.6544 5.59352 19.8253 5.34526 20.0649 5.17807C20.3045 5.01088 20.5964 4.93607 20.8869 4.96747C21.7291 4.96747 22.2011 5.36189 22.2011 6.08854V6.58004L20.4832 6.68292C18.884 6.77999 18.0193 7.43793 18.0193 8.58191C18.0182 9.74229 18.9113 10.5086 20.192 10.5086L20.1927 10.5018ZM12.8056 2.68361H14.3932C15.5884 2.68361 16.2713 3.32447 16.2713 4.45136C16.2713 5.57825 15.5884 6.22423 14.3881 6.22423H12.8056V2.68361ZM11.4285 1.51708V10.4334H12.8059V7.39384H14.7124C16.2655 7.47758 17.5917 6.28063 17.6751 4.71967C17.6799 4.6308 17.6806 4.54296 17.6768 4.45409C17.7503 2.91056 16.5653 1.59979 15.0293 1.52528C14.9388 1.52134 14.8483 1.52157 14.7579 1.52597L11.4288 1.51708H11.4285ZM6.85772 3.18058C6.06613 3.13478 5.38904 3.63243 5.01375 3.63243C4.63813 3.63243 4.05776 3.20382 3.43126 3.21544C3.02315 3.2264 2.62504 3.34414 2.27661 3.55691C1.92818 3.76969 1.64161 4.07007 1.44545 4.42812C0.591997 5.90397 1.22329 8.08871 2.04837 9.28942C2.45237 9.88482 2.93703 10.537 3.57379 10.5134C4.17671 10.4908 4.41596 10.1189 5.14466 10.1189C5.87302 10.1189 6.08937 10.5134 6.72647 10.5018C7.38647 10.4901 7.80243 9.90635 8.20745 9.31095C8.49293 8.88915 8.71517 8.42787 8.86711 7.94174C8.48583 7.77359 8.16145 7.49853 7.93325 7.14985C7.70505 6.80118 7.5828 6.39383 7.58129 5.97712C7.58663 5.60752 7.68481 5.24519 7.86679 4.92346C8.04877 4.60172 8.30872 4.33089 8.62273 4.13589C8.42307 3.85022 8.15983 3.61479 7.85374 3.44813C7.54764 3.28147 7.20704 3.18813 6.85875 3.17545L6.85772 3.18058ZM6.36349 2.39275C6.19309 2.60899 5.97502 2.78292 5.7263 2.90096C5.47758 3.01901 5.20494 3.07797 4.92967 3.07326C4.91207 2.80299 4.94829 2.53192 5.03624 2.27576C5.12419 2.0196 5.26211 1.78345 5.44202 1.58099C5.80226 1.16031 6.31181 0.895973 6.86319 0.84375C6.90254 1.40501 6.72296 1.95969 6.36212 2.39138" fill="white"/>
</g>
<defs>
<clipPath id="clip0_3217_13800">
<rect width="29.3941" height="12.3045" fill="white" transform="translate(0.953125 0.820312)"/>
</clipPath>
</defs>
</svg>
