<svg width="81" height="40" viewBox="0 0 81 40" fill="none" xmlns="http://www.w3.org/2000/svg">
<rect x="7.5" y="5" width="0.5" height="30" fill="#EB003C"/>
<rect x="43.5" y="5" width="0.5" height="30" fill="#EB003C"/>
<path d="M31.5 18V23C31.5 24.5913 30.8679 26.1174 29.7426 27.2426C28.6174 28.3679 27.0913 29 25.5 29C23.9087 29 22.3826 28.3679 21.2574 27.2426C20.1321 26.1174 19.5 24.5913 19.5 23V15C19.5 13.9391 19.9214 12.9217 20.6716 12.1716C21.4217 11.4214 22.4391 11 23.5 11C24.5609 11 25.5783 11.4214 26.3284 12.1716C27.0786 12.9217 27.5 13.9391 27.5 15V23C27.5 23.5304 27.2893 24.0391 26.9142 24.4142C26.5391 24.7893 26.0304 25 25.5 25C24.9696 25 24.4609 24.7893 24.0858 24.4142C23.7107 24.0391 23.5 23.5304 23.5 23V15" stroke="#EB003C" stroke-width="2" stroke-linecap="round" stroke-linejoin="round"/>
<path d="M56.4989 20.9998H60.4989M54.9389 13.1498L69.5889 20.1498C69.758 20.2317 69.9006 20.3596 70.0004 20.5188C70.1001 20.6779 70.153 20.862 70.153 21.0498C70.153 21.2377 70.1001 21.4218 70.0004 21.5809C69.9006 21.7401 69.758 21.868 69.5889 21.9498L54.9389 28.9499C54.7445 29.0626 54.5177 29.1065 54.2952 29.0745C54.0727 29.0425 53.8675 28.9365 53.7126 28.7735C53.5578 28.6106 53.4623 28.4003 53.4417 28.1764C53.4211 27.9526 53.4765 27.7283 53.5989 27.5399L56.3189 21.4098C56.3734 21.28 56.4014 21.1406 56.4014 20.9998C56.4014 20.8591 56.3734 20.7197 56.3189 20.5898L53.5989 14.4598C53.5163 14.2735 53.4927 14.0663 53.5311 13.866C53.5696 13.6658 53.6683 13.4821 53.8141 13.3396C53.9599 13.1971 54.1458 13.1025 54.3468 13.0686C54.5479 13.0347 54.7545 13.063 54.9389 13.1498Z" stroke="#EB003C" stroke-width="2" stroke-linecap="round" stroke-linejoin="round"/>
</svg>
