<svg width="32" height="32" viewBox="0 0 32 32" fill="none" xmlns="http://www.w3.org/2000/svg">
<path d="M24.0012 12V17.3333L25.8412 19.1733C26.237 19.5687 26.5066 20.0726 26.6159 20.6212C26.7252 21.1699 26.6692 21.7386 26.455 22.2554C26.2409 22.7722 25.8782 23.2139 25.4129 23.5244C24.9476 23.835 24.4006 24.0005 23.8412 24H8.16119C7.60177 24.0005 7.05478 23.835 6.58947 23.5244C6.12417 23.2139 5.76149 22.7722 5.54734 22.2554C5.33319 21.7386 5.27721 21.1699 5.38648 20.6212C5.49576 20.0726 5.76537 19.5687 6.16119 19.1733L8.00119 17.3333V12C8.00119 9.87828 8.84405 7.84345 10.3443 6.34316C11.8446 4.84287 13.8795 4.00002 16.0012 4.00002C17.3425 3.9974 18.663 4.33211 19.8412 4.97335" stroke="#EB003C" stroke-width="2.66667" stroke-linecap="round" stroke-linejoin="round"/>
<path d="M20 24H12C12 25.0609 12.4214 26.0783 13.1716 26.8284C13.9217 27.5786 14.9391 28 16 28C17.0609 28 18.0783 27.5786 18.8284 26.8284C19.5786 26.0783 20 25.0609 20 24ZM18.6667 8C18.6667 9.06087 19.0881 10.0783 19.8382 10.8284C20.5884 11.5786 21.6058 12 22.6667 12C23.7275 12 24.7449 11.5786 25.4951 10.8284C26.2452 10.0783 26.6667 9.06087 26.6667 8C26.6667 6.93913 26.2452 5.92172 25.4951 5.17157C24.7449 4.42143 23.7275 4 22.6667 4C21.6058 4 20.5884 4.42143 19.8382 5.17157C19.0881 5.92172 18.6667 6.93913 18.6667 8Z" stroke="#EB003C" stroke-width="2.66667" stroke-linecap="round" stroke-linejoin="round"/>
</svg>
