<svg width="20" height="20" viewBox="0 0 20 20" fill="none" xmlns="http://www.w3.org/2000/svg">
<g clip-path="url(#clip0_3004_15581)">
<path d="M6.66602 6.66675V4.33341C6.66602 3.39999 6.66602 2.93328 6.84767 2.57676C7.00746 2.26316 7.26243 2.00819 7.57603 1.8484C7.93255 1.66675 8.39926 1.66675 9.33268 1.66675H15.666C16.5994 1.66675 17.0661 1.66675 17.4227 1.8484C17.7363 2.00819 17.9912 2.26316 18.151 2.57676C18.3327 2.93328 18.3327 3.39999 18.3327 4.33341V10.6667C18.3327 11.6002 18.3327 12.0669 18.151 12.4234C17.9912 12.737 17.7363 12.992 17.4227 13.1518C17.0661 13.3334 16.5994 13.3334 15.666 13.3334H13.3327M4.33268 18.3334H10.666C11.5994 18.3334 12.0661 18.3334 12.4227 18.1518C12.7363 17.992 12.9912 17.737 13.151 17.4234C13.3327 17.0669 13.3327 16.6002 13.3327 15.6667V9.33341C13.3327 8.39999 13.3327 7.93328 13.151 7.57676C12.9912 7.26316 12.7363 7.00819 12.4227 6.8484C12.0661 6.66675 11.5994 6.66675 10.666 6.66675H4.33268C3.39926 6.66675 2.93255 6.66675 2.57603 6.8484C2.26243 7.00819 2.00746 7.26316 1.84767 7.57676C1.66602 7.93328 1.66602 8.39999 1.66602 9.33341V15.6667C1.66602 16.6002 1.66602 17.0669 1.84767 17.4234C2.00746 17.737 2.26243 17.992 2.57603 18.1518C2.93255 18.3334 3.39926 18.3334 4.33268 18.3334Z" stroke="white" stroke-width="2" stroke-linecap="round" stroke-linejoin="round"/>
</g>
<defs>
<clipPath id="clip0_3004_15581">
<rect width="20" height="20" fill="white"/>
</clipPath>
</defs>
</svg>
