<svg width="32" height="32" viewBox="0 0 32 32" fill="none" xmlns="http://www.w3.org/2000/svg">
<path d="M14.6654 14.6667C17.6109 14.6667 19.9987 12.2789 19.9987 9.33333C19.9987 6.38781 17.6109 4 14.6654 4C11.7198 4 9.33203 6.38781 9.33203 9.33333C9.33203 12.2789 11.7198 14.6667 14.6654 14.6667Z" stroke="#EB003C" stroke-width="3" stroke-linecap="round" stroke-linejoin="round"/>
<path d="M18.6667 20H10.6667C8.89856 20 7.20286 20.7024 5.95262 21.9526C4.70238 23.2029 4 24.8986 4 26.6667C4 27.0203 4.14048 27.3594 4.39052 27.6095C4.64057 27.8595 4.97971 28 5.33333 28H18.6667" stroke="#EB003C" stroke-width="3" stroke-linecap="round" stroke-linejoin="round"/>
<path d="M24 21.3359L28 25.3359" stroke="#EB003C" stroke-width="3" stroke-linecap="round" stroke-linejoin="round"/>
<path d="M28 21.3359L24 25.3359" stroke="#EB003C" stroke-width="3" stroke-linecap="round" stroke-linejoin="round"/>
</svg>
