<svg width="24" height="24" viewBox="0 0 24 24" fill="none" xmlns="http://www.w3.org/2000/svg">
<path d="M9.17 17H13V6C13 5.73478 12.8946 5.48043 12.7071 5.29289C12.5196 5.10536 12.2652 5 12 5H5" stroke="#130D1A" stroke-width="2" stroke-linecap="round" stroke-linejoin="round"/>
<path d="M3 13V16C3 16.2652 3.10536 16.5196 3.29289 16.7071C3.48043 16.8946 3.73478 17 4 17H4.87" stroke="#130D1A" stroke-width="2" stroke-linecap="round" stroke-linejoin="round"/>
<path d="M14.87 17.0007H13V7.00068H17.25C17.4744 6.99238 17.6952 7.05989 17.8766 7.19231C18.058 7.32474 18.1895 7.51438 18.25 7.73068L19 10.5007L20.24 10.8107C20.4619 10.8654 20.6583 10.9945 20.7966 11.1765C20.9349 11.3584 21.0067 11.5822 21 11.8107V16.0007C21 16.2659 20.8946 16.5203 20.7071 16.7078C20.5196 16.8953 20.2652 17.0007 20 17.0007H19.11" stroke="#130D1A" stroke-width="2" stroke-linecap="round" stroke-linejoin="round"/>
<path d="M3 9H9M7 15C6.60444 15 6.21776 15.1173 5.88886 15.3371C5.55996 15.5568 5.30362 15.8692 5.15224 16.2346C5.00087 16.6001 4.96126 17.0022 5.03843 17.3902C5.1156 17.7781 5.30608 18.1345 5.58579 18.4142C5.86549 18.6939 6.22186 18.8844 6.60982 18.9616C6.99778 19.0387 7.39991 18.9991 7.76537 18.8478C8.13082 18.6964 8.44318 18.44 8.66294 18.1111C8.8827 17.7822 9 17.3956 9 17C9 16.4696 8.78929 15.9609 8.41421 15.5858C8.03914 15.2107 7.53043 15 7 15ZM17 15C16.6044 15 16.2178 15.1173 15.8889 15.3371C15.56 15.5568 15.3036 15.8692 15.1522 16.2346C15.0009 16.6001 14.9613 17.0022 15.0384 17.3902C15.1156 17.7781 15.3061 18.1345 15.5858 18.4142C15.8655 18.6939 16.2219 18.8844 16.6098 18.9616C16.9978 19.0387 17.3999 18.9991 17.7654 18.8478C18.1308 18.6964 18.4432 18.44 18.6629 18.1111C18.8827 17.7822 19 17.3956 19 17C19 16.4696 18.7893 15.9609 18.4142 15.5858C18.0391 15.2107 17.5304 15 17 15Z" stroke="#130D1A" stroke-width="2" stroke-linecap="round" stroke-linejoin="round"/>
</svg>
