<svg width="24" height="24" viewBox="0 0 24 24" fill="none" xmlns="http://www.w3.org/2000/svg">
<path d="M10.47 9.29267L14.71 13.5327L7.24 21.0027H3V16.7627L10.47 9.29267ZM20.41 6.41267L17.59 3.59267C17.497 3.49894 17.3864 3.42455 17.2646 3.37378C17.1427 3.32301 17.012 3.29688 16.88 3.29688C16.748 3.29688 16.6173 3.32301 16.4954 3.37378C16.3736 3.42455 16.263 3.49894 16.17 3.59267L13.29 6.47267L17.53 10.7127L20.41 7.83267C20.5037 7.73971 20.5781 7.62911 20.6289 7.50725C20.6797 7.38539 20.7058 7.25469 20.7058 7.12267C20.7058 6.99066 20.6797 6.85996 20.6289 6.7381C20.5781 6.61624 20.5037 6.50564 20.41 6.41267Z" stroke="#130D1A" stroke-width="2" stroke-linecap="round" stroke-linejoin="round"/>
</svg>
