<svg width="48" height="48" viewBox="0 0 48 48" fill="none" xmlns="http://www.w3.org/2000/svg">
<path d="M29.1406 8.85938C31.4663 9.64197 33.5808 10.949 35.3206 12.6794C37.1643 14.5265 38.5363 16.7902 39.3206 19.2794" stroke="#EB003C" stroke-width="1.5" stroke-linecap="round" stroke-linejoin="round"/>
<path d="M14 6C12.4178 6 10.871 6.46919 9.55544 7.34824C8.23985 8.22729 7.21447 9.47672 6.60897 10.9385C6.00347 12.4003 5.84504 14.0089 6.15372 15.5607C6.4624 17.1126 7.22433 18.538 8.34315 19.6569C9.46197 20.7757 10.8874 21.5376 12.4393 21.8463C13.9911 22.155 15.5997 21.9965 17.0615 21.391C18.5233 20.7855 19.7727 19.7602 20.6518 18.4446C21.5308 17.129 22 15.5823 22 14C22 11.8783 21.1571 9.84344 19.6569 8.34315C18.1566 6.84285 16.1217 6 14 6ZM34 42C35.5823 42 37.129 41.5308 38.4446 40.6518C39.7602 39.7727 40.7855 38.5233 41.391 37.0615C41.9965 35.5997 42.155 33.9911 41.8463 32.4393C41.5376 30.8874 40.7757 29.462 39.6569 28.3431C38.538 27.2243 37.1126 26.4624 35.5607 26.1537C34.0089 25.845 32.4003 26.0035 30.9385 26.609C29.4767 27.2145 28.2273 28.2398 27.3482 29.5554C26.4692 30.871 26 32.4177 26 34C26 36.1217 26.8429 38.1566 28.3431 39.6569C29.8434 41.1571 31.8783 42 34 42Z" stroke="#EB003C" stroke-width="1.5" stroke-linecap="round" stroke-linejoin="round"/>
<path d="M35.6992 17.6197L39.3192 19.2997L40.9992 15.6797" stroke="#EB003C" stroke-width="1.5" stroke-linecap="round" stroke-linejoin="round"/>
<path d="M8.69922 28.7188C9.48357 31.2079 10.8555 33.4716 12.6992 35.3188C14.439 37.0491 16.5535 38.3562 18.8792 39.1388" stroke="#EB003C" stroke-width="1.5" stroke-linecap="round" stroke-linejoin="round"/>
<path d="M12.3 30.3831L8.68 28.7031L7 32.3231" stroke="#EB003C" stroke-width="1.5" stroke-linecap="round" stroke-linejoin="round"/>
<path d="M12.5 12H14.25C14.5152 12 14.7696 12.1054 14.9571 12.2929C15.1446 12.4804 15.25 12.7348 15.25 13C15.25 13.2652 15.1446 13.5196 14.9571 13.7071C14.7696 13.8946 14.5152 14 14.25 14H13" stroke="#EB003C" stroke-linecap="round" stroke-linejoin="round"/>
<path d="M12.5 16H14.5C14.7652 16 15.0196 15.8946 15.2071 15.7071C15.3946 15.5196 15.5 15.2652 15.5 15C15.5 14.7348 15.3946 14.4804 15.2071 14.2929C15.0196 14.1054 14.7652 14 14.5 14H13" stroke="#EB003C" stroke-linecap="round" stroke-linejoin="round"/>
<path d="M13 12V16M14 11.5V12M14 16V16.5M14 9.5C13.11 9.5 12.24 9.76392 11.4999 10.2584C10.7599 10.7529 10.1831 11.4557 9.84254 12.2779C9.50195 13.1002 9.41283 14.005 9.58647 14.8779C9.7601 15.7508 10.1887 16.5526 10.818 17.182C11.4474 17.8113 12.2492 18.2399 13.1221 18.4135C13.995 18.5872 14.8998 18.4981 15.7221 18.1575C16.5443 17.8169 17.2471 17.2401 17.7416 16.5001C18.2361 15.76 18.5 14.89 18.5 14C18.5 12.8065 18.0259 11.6619 17.182 10.818C16.3381 9.97411 15.1935 9.5 14 9.5Z" stroke="#EB003C" stroke-linecap="round" stroke-linejoin="round"/>
<path d="M30 30.5H38C38.1326 30.5 38.2598 30.5527 38.3536 30.6464C38.4473 30.7402 38.5 30.8674 38.5 31V32.5H29.5V31C29.5 30.8674 29.5527 30.7402 29.6464 30.6464C29.7402 30.5527 29.8674 30.5 30 30.5Z" fill="#CAA2ED" stroke="#EB003C"/>
<path d="M38 30.5H30C29.7239 30.5 29.5 30.7239 29.5 31V37C29.5 37.2761 29.7239 37.5 30 37.5H38C38.2761 37.5 38.5 37.2761 38.5 37V31C38.5 30.7239 38.2761 30.5 38 30.5Z" stroke="#EB003C" stroke-linecap="round" stroke-linejoin="round"/>
<path d="M35 35C35 35.0989 34.9707 35.1956 34.9157 35.2778C34.8608 35.36 34.7827 35.4241 34.6913 35.4619C34.6 35.4998 34.4994 35.5097 34.4025 35.4904C34.3055 35.4711 34.2164 35.4235 34.1464 35.3536C34.0765 35.2836 34.0289 35.1945 34.0096 35.0975C33.9903 35.0006 34.0002 34.9 34.0381 34.8087C34.0759 34.7173 34.14 34.6392 34.2222 34.5843C34.3044 34.5293 34.4011 34.5 34.5 34.5C34.6326 34.5 34.7598 34.5527 34.8536 34.6464C34.9473 34.7402 35 34.8674 35 35ZM36 34.5C35.9011 34.5 35.8044 34.5293 35.7222 34.5843C35.64 34.6392 35.5759 34.7173 35.5381 34.8087C35.5002 34.9 35.4903 35.0006 35.5096 35.0975C35.5289 35.1945 35.5765 35.2836 35.6464 35.3536C35.7164 35.4235 35.8055 35.4711 35.9025 35.4904C35.9994 35.5097 36.1 35.4998 36.1913 35.4619C36.2827 35.4241 36.3608 35.36 36.4157 35.2778C36.4707 35.1956 36.5 35.0989 36.5 35C36.5 34.8674 36.4473 34.7402 36.3536 34.6464C36.2598 34.5527 36.1326 34.5 36 34.5Z" stroke="#EB003C" stroke-linecap="round" stroke-linejoin="round"/>
</svg>
