<svg width="41" height="40" viewBox="0 0 41 40" fill="none" xmlns="http://www.w3.org/2000/svg">
<path d="M0 9C0 4.02944 4.02944 0 9 0H40V40H9C4.02944 40 0 35.9706 0 31V9Z" fill="#242229"/>
<path d="M21.6029 16.9062H21.5195" stroke="#EB003C" stroke-width="2.3125" stroke-linecap="round" stroke-linejoin="round"/>
<path d="M27.5 25.8359V14.1693C27.5 13.9483 27.4122 13.7363 27.2559 13.58C27.0996 13.4237 26.8877 13.3359 26.6667 13.3359H13.3333C13.1123 13.3359 12.9004 13.4237 12.7441 13.58C12.5878 13.7363 12.5 13.9483 12.5 14.1693V25.8359M27.5 25.8359C27.5 26.057 27.4122 26.2689 27.2559 26.4252C27.0996 26.5815 26.8877 26.6693 26.6667 26.6693M27.5 25.8359V23.9276L23.575 20.0026L16.9083 26.6693M26.6667 26.6693H13.3333M26.6667 26.6693H16.9083M13.3333 26.6693C13.1123 26.6693 12.9004 26.5815 12.7441 26.4252C12.5878 26.2689 12.5 26.057 12.5 25.8359M13.3333 26.6693H16.9083M12.5 25.8359V23.1109L17.2583 18.3359L21.2417 22.3359L16.9083 26.6693" stroke="#EB003C" stroke-width="1.875" stroke-linecap="round" stroke-linejoin="round"/>
<rect x="40" width="0.5" height="40" fill="#EB003C"/>
</svg>
