<svg width="64" height="64" viewBox="0 0 64 64" fill="none" xmlns="http://www.w3.org/2000/svg">
<path d="M24.452 45.3359H34.6654V16.0026C34.6654 15.2954 34.3844 14.6171 33.8843 14.117C33.3842 13.6169 32.7059 13.3359 31.9987 13.3359H13.332" stroke="black" stroke-width="3" stroke-linecap="round" stroke-linejoin="round"/>
<path d="M8 34.6641V42.6641C8 43.3713 8.28095 44.0496 8.78105 44.5497C9.28115 45.0498 9.95942 45.3307 10.6667 45.3307H12.9867" stroke="black" stroke-width="3" stroke-linecap="round" stroke-linejoin="round"/>
<path d="M39.6546 45.3326H34.668V18.6659H46.0013C46.5998 18.6438 47.1884 18.8238 47.6721 19.1769C48.1559 19.53 48.5067 20.0357 48.668 20.6126L50.668 27.9992L53.9746 28.8259C54.5663 28.9719 55.0901 29.3161 55.4589 29.8013C55.8276 30.2865 56.0191 30.8834 56.0013 31.4926V42.6659C56.0013 43.3731 55.7204 44.0514 55.2203 44.5515C54.7202 45.0516 54.0419 45.3326 53.3346 45.3326H50.9613" stroke="black" stroke-width="3" stroke-linecap="round" stroke-linejoin="round"/>
<path d="M8 24H24M18.6667 40C17.6118 40 16.5807 40.3128 15.7036 40.8988C14.8266 41.4849 14.143 42.3178 13.7393 43.2924C13.3356 44.2669 13.23 45.3393 13.4358 46.3738C13.6416 47.4084 14.1496 48.3587 14.8954 49.1046C15.6413 49.8504 16.5916 50.3584 17.6262 50.5642C18.6608 50.77 19.7331 50.6644 20.7076 50.2607C21.6822 49.857 22.5151 49.1734 23.1012 48.2964C23.6872 47.4193 24 46.3882 24 45.3333C24 43.9188 23.4381 42.5623 22.4379 41.5621C21.4377 40.5619 20.0812 40 18.6667 40ZM45.3333 40C44.2785 40 43.2474 40.3128 42.3703 40.8988C41.4932 41.4849 40.8096 42.3178 40.406 43.2924C40.0023 44.2669 39.8967 45.3393 40.1025 46.3738C40.3083 47.4084 40.8162 48.3587 41.5621 49.1046C42.308 49.8504 43.2583 50.3584 44.2929 50.5642C45.3274 50.77 46.3998 50.6644 47.3743 50.2607C48.3489 49.857 49.1818 49.1734 49.7678 48.2964C50.3539 47.4193 50.6667 46.3882 50.6667 45.3333C50.6667 43.9188 50.1048 42.5623 49.1046 41.5621C48.1044 40.5619 46.7478 40 45.3333 40Z" stroke="black" stroke-width="3" stroke-linecap="round" stroke-linejoin="round"/>
</svg>
