<svg width="64" height="64" viewBox="0 0 64 64" fill="none" xmlns="http://www.w3.org/2000/svg">
<path d="M13.332 8H50.6654M31.9987 32C28.4625 32 25.0711 30.5952 22.5706 28.0948C20.0701 25.5943 18.6654 22.2029 18.6654 18.6667V8H45.332V18.6667C45.332 20.4176 44.9872 22.1514 44.3171 23.7691C43.647 25.3868 42.6649 26.8566 41.4268 28.0948C40.1887 29.3329 38.7188 30.315 37.1011 30.9851C35.4835 31.6551 33.7497 32 31.9987 32ZM31.9987 32C28.4625 32 25.0711 33.4048 22.5706 35.9052C20.0701 38.4057 18.6654 41.7971 18.6654 45.3333V56H45.332V45.3333C45.332 41.7971 43.9273 38.4057 41.4268 35.9052C38.9263 33.4048 35.5349 32 31.9987 32ZM13.332 56H50.6654" stroke="black" stroke-width="3" stroke-linecap="round" stroke-linejoin="round"/>
</svg>
