<svg width="80" height="80" viewBox="0 0 80 80" fill="none" xmlns="http://www.w3.org/2000/svg">
<rect width="80" height="80" fill="white"/>
<path d="M53.1992 48H53.4659" stroke="black" stroke-width="4" stroke-linecap="round" stroke-linejoin="round"/>
<path d="M34.3467 32L45.5733 16L58.6667 25.1733L53.8933 32H34.3467ZM34.3467 32H21.0133L32.24 16L41.1733 22.2667L34.3467 32ZM64 34.6667V61.3333C64 62.0406 63.7191 62.7189 63.219 63.219C62.7189 63.7191 62.0406 64 61.3333 64H18.6667C17.9594 64 17.2811 63.7191 16.781 63.219C16.281 62.7189 16 62.0406 16 61.3333V34.6667C16 33.9594 16.281 33.2811 16.781 32.781C17.2811 32.281 17.9594 32 18.6667 32H61.3333C62.0406 32 62.7189 32.281 63.219 32.781C63.7191 33.2811 64 33.9594 64 34.6667Z" stroke="black" stroke-width="3" stroke-linecap="round" stroke-linejoin="round"/>
</svg>
