<svg width="26" height="20" viewBox="0 0 26 20" fill="none" xmlns="http://www.w3.org/2000/svg">
<path d="M2 4.99976L14 4.99976M14 4.99976C14 6.65662 15.3431 7.99976 17 7.99976C18.6569 7.99976 20 6.65662 20 4.99976M14 4.99976C14 3.34291 15.3431 1.99976 17 1.99976C18.6569 1.99976 20 3.34291 20 4.99976M11.5 15.1567L23.5 15.1567M11.5 15.1567C11.5 16.8136 10.1569 18.1567 8.5 18.1567C6.84315 18.1567 5.5 16.8136 5.5 15.1567M11.5 15.1567C11.5 13.4999 10.1569 12.1567 8.5 12.1567C6.84315 12.1567 5.5 13.4999 5.5 15.1567M20 4.99976H24M5.5 15.1567H2" stroke="white" stroke-width="2.4" stroke-linecap="round" stroke-linejoin="round"/>
</svg>
