<svg width="26" height="20" viewBox="0 0 26 20" fill="none" xmlns="http://www.w3.org/2000/svg">
<path d="M2 4.99988L14 4.99989M14 4.99989C14 6.65674 15.3431 7.99988 17 7.99988C18.6569 7.99988 20 6.65674 20 4.99988M14 4.99989C14 3.34303 15.3431 1.99988 17 1.99988C18.6569 1.99988 20 3.34303 20 4.99988M11.5 15.1568L23.5 15.1568M11.5 15.1568C11.5 16.8137 10.1569 18.1568 8.5 18.1568C6.84315 18.1568 5.5 16.8137 5.5 15.1568M11.5 15.1568C11.5 13.5 10.1569 12.1568 8.5 12.1568C6.84315 12.1568 5.5 13.5 5.5 15.1568M20 4.99988H24M5.5 15.1568H2" stroke="white" stroke-width="2.4" stroke-linecap="round" stroke-linejoin="round"/>
</svg>
