<svg width="9" height="10" viewBox="0 0 9 10" fill="none" xmlns="http://www.w3.org/2000/svg">
<g clip-path="url(#clip0_3217_13879)">
<mask id="mask0_3217_13879" style="mask-type:luminance" maskUnits="userSpaceOnUse" x="0" y="0" width="9" height="10">
<path d="M8.62487 0.890625H0.421875V9.09362H8.62487V0.890625Z" fill="white"/>
</mask>
<g mask="url(#mask0_3217_13879)">
<path d="M4.52337 9.09362C6.78857 9.09362 8.62487 7.25732 8.62487 4.99212C8.62487 2.72693 6.78857 0.890625 4.52337 0.890625C2.25818 0.890625 0.421875 2.72693 0.421875 4.99212C0.421875 7.25732 2.25818 9.09362 4.52337 9.09362Z" fill="url(#paint0_linear_3217_13879)"/>
<path fill-rule="evenodd" clip-rule="evenodd" d="M1.78906 3.76889C1.78906 2.93434 2.46559 2.25781 3.30014 2.25781H5.74663C6.58119 2.25781 7.25773 2.93434 7.25773 3.76889V6.21538C7.25773 7.04994 6.58119 7.72648 5.74663 7.72648H3.30014C2.46559 7.72648 1.78906 7.04994 1.78906 6.21538V3.76889ZM3.30014 2.68955C2.70404 2.68955 2.2208 3.17279 2.2208 3.76889V6.21538C2.2208 6.8115 2.70404 7.29473 3.30014 7.29473H5.74663C6.34275 7.29473 6.82598 6.8115 6.82598 6.21538V3.76889C6.82598 3.17279 6.34275 2.68955 5.74663 2.68955H3.30014Z" fill="white"/>
<path fill-rule="evenodd" clip-rule="evenodd" d="M4.50974 6.21667C5.17736 6.21667 5.71859 5.67544 5.71859 5.00778C5.71859 4.34016 5.17736 3.79892 4.50974 3.79892C3.84212 3.79892 3.30088 4.34016 3.30088 5.00778C3.30088 5.67544 3.84212 6.21667 4.50974 6.21667ZM4.50974 6.64838C5.41583 6.64838 6.15034 5.91387 6.15034 5.00778C6.15034 4.10171 5.41583 3.36719 4.50974 3.36719C3.60366 3.36719 2.86914 4.10171 2.86914 5.00778C2.86914 5.91387 3.60366 6.64838 4.50974 6.64838Z" fill="white"/>
<path d="M6.15217 3.94496C6.31171 3.94496 6.44105 3.81562 6.44105 3.65607C6.44105 3.49653 6.31171 3.36719 6.15217 3.36719C5.99262 3.36719 5.86328 3.49653 5.86328 3.65607C5.86328 3.81562 5.99262 3.94496 6.15217 3.94496Z" fill="#D9D9D9"/>
</g>
</g>
<defs>
<linearGradient id="paint0_linear_3217_13879" x1="0.942451" y1="9.09362" x2="7.96231" y2="1.49008" gradientUnits="userSpaceOnUse">
<stop offset="0.0291672" stop-color="#F3C82E"/>
<stop offset="0.357605" stop-color="#FF1733"/>
<stop offset="1" stop-color="#FC2C46" stop-opacity="0"/>
</linearGradient>
<clipPath id="clip0_3217_13879">
<rect width="8.203" height="8.203" fill="white" transform="translate(0.423828 0.882812)"/>
</clipPath>
</defs>
</svg>
