<svg width="24" height="24" viewBox="0 0 24 24" fill="none" xmlns="http://www.w3.org/2000/svg">
<g clip-path="url(#clip0_3718_41992)">
<mask id="mask0_3718_41992" style="mask-type:luminance" maskUnits="userSpaceOnUse" x="0" y="0" width="24" height="24">
<path d="M24 0H0V24H24V0Z" fill="white"/>
</mask>
<g mask="url(#mask0_3718_41992)">
<path d="M12 24C18.6274 24 24 18.6274 24 12C24 5.37258 18.6274 0 12 0C5.37258 0 0 5.37258 0 12C0 18.6274 5.37258 24 12 24Z" fill="url(#paint0_linear_3718_41992)"/>
<path fill-rule="evenodd" clip-rule="evenodd" d="M4 8.42105C4 5.97937 5.97937 4 8.42105 4H15.5789C18.0206 4 20 5.97937 20 8.42105V15.5789C20 18.0206 18.0206 20 15.5789 20H8.42105C5.97937 20 4 18.0206 4 15.5789V8.42105ZM8.42105 5.26316C6.677 5.26316 5.26316 6.677 5.26316 8.42105V15.5789C5.26316 17.323 6.677 18.7368 8.42105 18.7368H15.5789C17.323 18.7368 18.7368 17.323 18.7368 15.5789V8.42105C18.7368 6.677 17.323 5.26316 15.5789 5.26316H8.42105Z" fill="white"/>
<path fill-rule="evenodd" clip-rule="evenodd" d="M11.9582 15.5791C13.9115 15.5791 15.495 13.9956 15.495 12.0422C15.495 10.0889 13.9115 8.50535 11.9582 8.50535C10.0049 8.50535 8.42136 10.0889 8.42136 12.0422C8.42136 13.9956 10.0049 15.5791 11.9582 15.5791ZM11.9582 16.8422C14.6092 16.8422 16.7582 14.6932 16.7582 12.0422C16.7582 9.39122 14.6092 7.24219 11.9582 7.24219C9.30724 7.24219 7.1582 9.39122 7.1582 12.0422C7.1582 14.6932 9.30724 16.8422 11.9582 16.8422Z" fill="white"/>
<path d="M16.7581 8.9264C17.2232 8.9264 17.6002 8.54937 17.6002 8.08429C17.6002 7.61921 17.2232 7.24219 16.7581 7.24219C16.293 7.24219 15.916 7.61921 15.916 8.08429C15.916 8.54937 16.293 8.9264 16.7581 8.9264Z" fill="#D9D9D9"/>
</g>
</g>
<defs>
<linearGradient id="paint0_linear_3718_41992" x1="1.52308" y1="24" x2="22.0615" y2="1.75385" gradientUnits="userSpaceOnUse">
<stop offset="0.0291672" stop-color="#F3C82E"/>
<stop offset="0.357605" stop-color="#FF1733"/>
<stop offset="1" stop-color="#FC2C46" stop-opacity="0"/>
</linearGradient>
<clipPath id="clip0_3718_41992">
<rect width="24" height="24" fill="white"/>
</clipPath>
</defs>
</svg>
