<svg width="40" height="40" viewBox="0 0 40 40" fill="none" xmlns="http://www.w3.org/2000/svg">
<g clip-path="url(#clip0_587_8426)">
<path fill-rule="evenodd" clip-rule="evenodd" d="M0 20C0 8.95432 8.95432 0 20 0C31.0457 0 40 8.95432 40 20C40 31.0457 31.0457 40 20 40C8.95432 40 0 31.0457 0 20Z" fill="#50AF95"/>
<path d="M39.1668 20.0002C39.1668 30.5857 30.5857 39.1668 20.0002 39.1668C9.41471 39.1668 0.833496 30.5857 0.833496 20.0002C0.833496 9.41471 9.41471 0.833496 20.0002 0.833496C30.5857 0.833496 39.1668 9.41471 39.1668 20.0002Z" stroke="black" stroke-opacity="0.097"/>
<path fill-rule="evenodd" clip-rule="evenodd" d="M22.374 21.578C22.2413 21.588 21.5563 21.629 20.0283 21.629C18.813 21.629 17.9502 21.5925 17.6473 21.578C12.9507 21.371 9.44498 20.5517 9.44498 19.5707C9.44498 18.5897 12.9507 17.7715 17.6473 17.5612V20.762C17.9545 20.7842 18.834 20.8362 20.0493 20.8362C21.5077 20.8362 22.238 20.7753 22.3695 20.7632V17.5633C27.0563 17.7725 30.5543 18.5918 30.5543 19.5707C30.5543 20.5495 27.0573 21.3688 22.3695 21.577L22.374 21.578ZM22.374 17.2323V14.3679H28.9147V10H11.1067V14.3679H17.6463V17.2312C12.3308 17.4758 8.3335 18.531 8.3335 19.7955C8.3335 21.0598 12.3308 22.114 17.6463 22.3597V31.5385H22.3728V22.3563C27.6762 22.1117 31.6668 21.0577 31.6668 19.7943C31.6668 18.531 27.6795 17.477 22.3728 17.2312L22.374 17.2323Z" fill="white"/>
</g>
<defs>
<clipPath id="clip0_587_8426">
<rect width="40" height="40" fill="white"/>
</clipPath>
</defs>
</svg>
