<svg width="40" height="40" viewBox="0 0 40 40" fill="none" xmlns="http://www.w3.org/2000/svg">
<g clip-path="url(#clip0_165_14380)">
<path fill-rule="evenodd" clip-rule="evenodd" d="M0 20C0 8.95432 8.95432 0 20 0C31.0457 0 40 8.95432 40 20C40 31.0457 31.0457 40 20 40C8.95432 40 0 31.0457 0 20Z" fill="#50AF95"/>
<path d="M39.1666 20C39.1666 30.5855 30.5854 39.1667 19.9999 39.1667C9.41447 39.1667 0.833252 30.5855 0.833252 20C0.833252 9.41459 9.41447 0.833374 19.9999 0.833374C30.5854 0.833374 39.1666 9.41459 39.1666 20Z" stroke="black" stroke-opacity="0.097"/>
<path fill-rule="evenodd" clip-rule="evenodd" d="M22.3738 21.578C22.2411 21.588 21.5561 21.629 20.0281 21.629C18.8128 21.629 17.9499 21.5925 17.6471 21.578C12.9504 21.371 9.44474 20.5517 9.44474 19.5707C9.44474 18.5897 12.9504 17.7715 17.6471 17.5612V20.762C17.9543 20.7842 18.8338 20.8362 20.0491 20.8362C21.5074 20.8362 22.2378 20.7753 22.3693 20.7632V17.5633C27.0561 17.7725 30.5541 18.5918 30.5541 19.5707C30.5541 20.5495 27.0571 21.3688 22.3693 21.577L22.3738 21.578ZM22.3738 17.2323V14.3679H28.9144V10H11.1064V14.3679H17.6461V17.2312C12.3306 17.4758 8.33325 18.531 8.33325 19.7955C8.33325 21.0598 12.3306 22.114 17.6461 22.3597V31.5385H22.3726V22.3563C27.6759 22.1117 31.6666 21.0577 31.6666 19.7943C31.6666 18.531 27.6793 17.477 22.3726 17.2312L22.3738 17.2323Z" fill="white"/>
</g>
<defs>
<clipPath id="clip0_165_14380">
<rect width="40" height="40" fill="white"/>
</clipPath>
</defs>
</svg>
