<svg width="40" height="40" viewBox="0 0 40 40" fill="none" xmlns="http://www.w3.org/2000/svg">
<g clip-path="url(#clip0_165_14516)">
<path fill-rule="evenodd" clip-rule="evenodd" d="M0 20C0 8.95432 8.95432 0 20 0C31.0457 0 40 8.95432 40 20C40 31.0457 31.0457 40 20 40C8.95432 40 0 31.0457 0 20Z" fill="#50AF95"/>
<path d="M39.1667 20C39.1667 30.5855 30.5855 39.1667 20 39.1667C9.41459 39.1667 0.833374 30.5855 0.833374 20C0.833374 9.41459 9.41459 0.833374 20 0.833374C30.5855 0.833374 39.1667 9.41459 39.1667 20Z" stroke="black" stroke-opacity="0.097"/>
<path fill-rule="evenodd" clip-rule="evenodd" d="M22.3739 21.578C22.2412 21.588 21.5562 21.629 20.0282 21.629C18.8129 21.629 17.95 21.5925 17.6472 21.578C12.9505 21.371 9.44486 20.5517 9.44486 19.5707C9.44486 18.5897 12.9505 17.7715 17.6472 17.5612V20.762C17.9544 20.7842 18.8339 20.8362 20.0492 20.8362C21.5075 20.8362 22.2379 20.7753 22.3694 20.7632V17.5633C27.0562 17.7725 30.5542 18.5918 30.5542 19.5707C30.5542 20.5495 27.0572 21.3688 22.3694 21.577L22.3739 21.578ZM22.3739 17.2323V14.3679H28.9145V10H11.1065V14.3679H17.6462V17.2312C12.3307 17.4758 8.33337 18.531 8.33337 19.7955C8.33337 21.0598 12.3307 22.114 17.6462 22.3597V31.5385H22.3727V22.3563C27.676 22.1117 31.6667 21.0577 31.6667 19.7943C31.6667 18.531 27.6794 17.477 22.3727 17.2312L22.3739 17.2323Z" fill="white"/>
</g>
<defs>
<clipPath id="clip0_165_14516">
<rect width="40" height="40" fill="white"/>
</clipPath>
</defs>
</svg>
