<svg width="28" height="28" viewBox="0 0 28 28" fill="none" xmlns="http://www.w3.org/2000/svg">
<path d="M4.66667 2V20.6667M4.66667 20.6667C4.13925 20.6667 3.62368 20.8231 3.18515 21.1161C2.74662 21.4091 2.40482 21.8256 2.20299 22.3128C2.00116 22.8001 1.94835 23.3363 2.05124 23.8536C2.15413 24.3709 2.40811 24.846 2.78105 25.2189C3.15399 25.5919 3.62914 25.8459 4.14643 25.9488C4.66371 26.0517 5.19989 25.9988 5.68716 25.797C6.17443 25.5952 6.5909 25.2534 6.88392 24.8149C7.17694 24.3763 7.33333 23.8607 7.33333 23.3333C7.33333 22.6261 7.05238 21.9478 6.55229 21.4477C6.05219 20.9476 5.37391 20.6667 4.66667 20.6667ZM14 7.33333V26M23.3333 16.6667V26M23.3333 11.3333V2M23.3333 11.3333C22.8059 11.3333 22.2903 11.4897 21.8518 11.7827C21.4133 12.0758 21.0715 12.4922 20.8697 12.9795C20.6678 13.4668 20.615 14.003 20.7179 14.5202C20.8208 15.0375 21.0748 15.5127 21.4477 15.8856C21.8207 16.2586 22.2958 16.5125 22.8131 16.6154C23.3304 16.7183 23.8666 16.6655 24.3538 16.4637C24.8411 16.2618 25.2576 15.9201 25.5506 15.4815C25.8436 15.043 26 14.5274 26 14C26 13.2928 25.719 12.6145 25.219 12.1144C24.7189 11.6143 24.0406 11.3333 23.3333 11.3333ZM14 2C13.4726 2 12.957 2.1564 12.5185 2.44941C12.08 2.74243 11.7382 3.15891 11.5363 3.64618C11.3345 4.13345 11.2817 4.66962 11.3846 5.18691C11.4875 5.70419 11.7414 6.17934 12.1144 6.55228C12.4873 6.92522 12.9625 7.1792 13.4798 7.28209C13.997 7.38499 14.5332 7.33218 15.0205 7.13035C15.5078 6.92851 15.9242 6.58672 16.2173 6.14819C16.5103 5.70966 16.6667 5.19408 16.6667 4.66667C16.6667 3.95942 16.3857 3.28115 15.8856 2.78105C15.3855 2.28095 14.7072 2 14 2Z" stroke="#EB003C" stroke-width="3" stroke-linecap="round" stroke-linejoin="round"/>
</svg>
