<svg width="80" height="80" viewBox="0 0 80 80" fill="none" xmlns="http://www.w3.org/2000/svg">
<path d="M0 18C0 8.05888 8.05887 0 18 0H80V80H18C8.05888 80 0 71.9411 0 62V18Z" fill="#242229"/>
<path d="M57.625 52.625L48.875 43.875M51.7917 36.5833C51.7917 38.6024 51.193 40.576 50.0713 42.2548C48.9496 43.9335 47.3552 45.242 45.4899 46.0146C43.6246 46.7872 41.572 46.9894 39.5918 46.5955C37.6116 46.2016 35.7926 45.2294 34.365 43.8017C32.9373 42.3741 31.965 40.5551 31.5712 38.5749C31.1773 36.5947 31.3794 34.5421 32.1521 32.6768C32.9247 30.8114 34.2331 29.2171 35.9119 28.0954C37.5906 26.9737 39.5643 26.375 41.5833 26.375C44.2908 26.375 46.8873 27.4505 48.8017 29.365C50.7162 31.2794 51.7917 33.8759 51.7917 36.5833Z" stroke="white" stroke-width="2.33333" stroke-linecap="round" stroke-linejoin="round"/>
</svg>
