<svg width="62" height="36" viewBox="0 0 62 36" fill="none" xmlns="http://www.w3.org/2000/svg">
<path fill-rule="evenodd" clip-rule="evenodd" d="M36.2263 16.9633H38.9983C39.8773 16.9313 40.4113 16.8613 40.6043 16.7523C40.8673 16.6023 41.0433 16.3043 41.1313 15.8573C41.1873 15.5593 41.2153 15.1173 41.2153 14.5283C41.2153 13.8083 41.1593 13.2733 41.0473 12.9253C40.8873 12.4353 40.5043 12.1383 39.8973 12.0303C39.6106 12.0078 39.3229 11.9994 39.0353 12.0053H36.2253L36.2263 16.9633ZM31.7803 25.3153V8.27734H40.0653C41.2013 8.27734 42.0693 8.37334 42.6653 8.56434C44.0273 9.00434 44.9413 9.90534 45.4103 11.2683C45.6513 11.9833 45.7723 13.0593 45.7723 14.4973C45.7723 16.2253 45.6383 17.4673 45.3723 18.2233C44.8423 19.7183 43.7483 20.5793 42.0963 20.8033C41.9023 20.8363 41.0763 20.8663 39.6163 20.8903L38.8783 20.9163H36.2273V25.3153H31.7803ZM9.4513 13.7113H13.5883C13.6153 13.3353 13.6283 13.0543 13.6283 12.8653C13.6283 10.5693 12.7283 9.17234 10.9283 8.67434C10.1903 8.47034 8.9533 8.36734 7.2173 8.36734C6.1143 8.36734 5.1113 8.40834 4.2073 8.49034C3.1213 8.58034 2.2293 8.88134 1.5313 9.39534C1.0553 9.72934 0.711297 10.2193 0.496297 10.8633C0.282297 11.5083 0.176297 12.3643 0.176297 13.4333C0.176297 14.8353 0.373297 15.8833 0.769297 16.5773C1.2193 17.3923 2.1223 17.9293 3.4773 18.1913C3.9913 18.2813 4.9103 18.3753 6.2323 18.4723C7.8783 18.5873 8.8013 18.6773 8.9993 18.7423C9.5293 18.9053 9.7953 19.3623 9.7953 20.1123C9.7953 20.4463 9.7633 20.7203 9.7003 20.9323C9.5803 21.2753 9.3313 21.5233 8.9503 21.6783C8.7373 21.7603 8.2423 21.8013 7.4663 21.8013H5.9453C5.5403 21.7913 5.1953 21.7153 4.9103 21.5693C4.4993 21.3573 4.2933 20.8813 4.2933 20.1413V19.7873H0.154297C0.154297 21.1733 0.253297 22.1643 0.452297 22.7583C0.809297 23.8273 1.5463 24.5363 2.6653 24.8863C3.5773 25.1723 5.1913 25.3143 7.5083 25.3143C8.8963 25.3143 9.9283 25.2493 10.6033 25.1183C12.2133 24.8083 13.2473 24.0703 13.7083 22.9023C13.9623 22.2653 14.0883 21.2613 14.0883 19.8893C14.0883 19.2943 14.0613 18.7593 14.0063 18.2853C13.9103 17.4943 13.6123 16.8533 13.1113 16.3633C12.4753 15.7353 11.4513 15.3473 10.0363 15.2003C9.5913 15.1503 8.4743 15.0653 6.6863 14.9423L5.8523 14.8823C5.4863 14.8573 5.1923 14.7763 4.9703 14.6373C4.6603 14.4413 4.5053 14.0333 4.5053 13.4123C4.5053 12.7273 4.6793 12.2823 5.0293 12.0773C5.3783 11.8733 6.0943 11.7713 7.1743 11.7713C8.2863 11.7713 8.9663 11.9493 9.2123 12.3023C9.3713 12.5423 9.4503 13.0123 9.4503 13.7123L9.4513 13.7113ZM0.171297 28.6933L0.791297 28.6293C0.829297 28.8443 0.904297 29.0023 1.0183 29.1033C1.1333 29.2053 1.2873 29.2553 1.4813 29.2553C1.6863 29.2553 1.8413 29.2103 1.9453 29.1203C1.99324 29.0829 2.03215 29.0351 2.05915 28.9806C2.08616 28.9261 2.10056 28.8662 2.1013 28.8053C2.10303 28.734 2.07967 28.6643 2.0353 28.6083C1.97256 28.5422 1.89362 28.4936 1.8063 28.4673C1.63825 28.4147 1.46849 28.3677 1.2973 28.3263C0.957297 28.2393 0.717297 28.1323 0.580297 28.0053C0.487645 27.9237 0.413755 27.823 0.363698 27.7101C0.31364 27.5972 0.2886 27.4748 0.290297 27.3513C0.290527 27.1816 0.340975 27.0158 0.435288 26.8746C0.529601 26.7335 0.663561 26.6235 0.820297 26.5583C0.992297 26.4833 1.2003 26.4453 1.4423 26.4453C1.8383 26.4453 2.1363 26.5353 2.3363 26.7153C2.5363 26.8953 2.6423 27.1343 2.6523 27.4333L2.0123 27.4593C1.9863 27.2923 1.9273 27.1723 1.8373 27.0983C1.7473 27.0243 1.6133 26.9883 1.4343 26.9883C1.2493 26.9883 1.1043 27.0273 0.999297 27.1063C0.967322 27.129 0.941397 27.1592 0.92379 27.1943C0.906182 27.2293 0.89743 27.2681 0.898297 27.3073C0.898297 27.3853 0.929297 27.4503 0.993297 27.5053C1.0733 27.5753 1.2683 27.6473 1.5783 27.7223C1.8883 27.7983 2.1173 27.8763 2.2653 27.9573C2.40951 28.034 2.53015 28.1484 2.6143 28.2883C2.6973 28.4283 2.7403 28.6023 2.7403 28.8083C2.7403 28.9953 2.6903 29.1703 2.5893 29.3343C2.4888 29.4976 2.33938 29.625 2.1623 29.6983C1.9783 29.7783 1.7493 29.8173 1.4753 29.8173C1.0753 29.8173 0.769297 29.7213 0.555297 29.5303C0.341297 29.3383 0.213297 29.0603 0.171297 28.6933ZM3.4013 27.4013H4.0093V29.7593H3.4013V27.4013ZM3.4013 26.5033H4.0093V27.0793H3.4013V26.5033ZM6.2353 29.7593H6.8433V28.2913C6.8433 28.1093 6.8313 27.9693 6.8093 27.8713C6.79008 27.7711 6.74619 27.6771 6.6816 27.598C6.617 27.519 6.53373 27.4572 6.4393 27.4183C6.32427 27.368 6.19984 27.3428 6.0743 27.3443C5.7713 27.3443 5.5203 27.4783 5.3203 27.7483V27.4023H4.7573V29.7593H5.3643V28.6893C5.3643 28.4253 5.3803 28.2443 5.4103 28.1473C5.44141 28.0524 5.50183 27.9698 5.58288 27.9114C5.66392 27.853 5.7614 27.8218 5.8613 27.8223C5.93613 27.82 6.00973 27.8417 6.0713 27.8843C6.1293 27.9253 6.1713 27.9843 6.1963 28.0593C6.2223 28.1343 6.2363 28.2993 6.2363 28.5543L6.2353 29.7593ZM8.0733 28.5293C8.0733 28.7813 8.1203 28.9643 8.2133 29.0813C8.25291 29.1357 8.30482 29.1798 8.36479 29.2103C8.42475 29.2407 8.49106 29.2565 8.5583 29.2563C8.62992 29.2567 8.70067 29.2406 8.76514 29.2094C8.82962 29.1782 8.8861 29.1327 8.9303 29.0763C9.0313 28.9563 9.0823 28.7803 9.0823 28.5463C9.0823 28.3003 9.0333 28.1193 8.9363 28.0003C8.89319 27.9442 8.83757 27.8988 8.77386 27.8679C8.71015 27.837 8.6401 27.8214 8.5693 27.8223C8.50044 27.8212 8.43231 27.8364 8.37044 27.8667C8.30858 27.8969 8.25473 27.9413 8.2133 27.9963C8.1203 28.1133 8.0733 28.2903 8.0733 28.5293ZM7.5273 29.9153L8.2173 29.9923C8.2273 30.0803 8.2553 30.1403 8.2973 30.1733C8.3543 30.2203 8.4453 30.2433 8.5693 30.2433C8.7273 30.2433 8.8463 30.2193 8.9253 30.1713C8.98227 30.1338 9.0249 30.0781 9.0463 30.0133C9.0701 29.9196 9.07987 29.8229 9.0753 29.7263L9.0763 29.3823C8.8973 29.6343 8.6703 29.7593 8.3943 29.7593C8.0863 29.7593 7.8433 29.6263 7.6643 29.3573C7.5223 29.1453 7.4523 28.8813 7.4523 28.5653C7.4523 28.1693 7.5443 27.8673 7.7293 27.6573C7.81372 27.5573 7.91935 27.4773 8.03852 27.4232C8.15769 27.3691 8.28742 27.3421 8.4183 27.3443C8.7013 27.3443 8.9343 27.4723 9.1183 27.7283V27.4023H9.6823V29.5223C9.6823 29.8003 9.6603 30.0083 9.6153 30.1463C9.58043 30.2683 9.51623 30.3799 9.4283 30.4713C9.33603 30.5565 9.22556 30.6194 9.1053 30.6553C8.93984 30.7042 8.76775 30.7268 8.5953 30.7223C8.2073 30.7223 7.9313 30.6533 7.7693 30.5153C7.69142 30.4523 7.62896 30.3724 7.58668 30.2816C7.54439 30.1908 7.5234 30.0915 7.5253 29.9913C7.5253 29.9703 7.5253 29.9443 7.5273 29.9153ZM11.0203 26.5033H10.4123V29.7593H11.0203V26.5033ZM13.1333 28.3833C13.1283 28.2003 13.0833 28.0613 12.9963 27.9653C12.9572 27.9199 12.9087 27.8836 12.8541 27.8589C12.7995 27.8342 12.7402 27.8217 12.6803 27.8223C12.6175 27.8208 12.5553 27.8335 12.4981 27.8595C12.441 27.8855 12.3904 27.9241 12.3503 27.9723C12.2584 28.0892 12.2131 28.236 12.2233 28.3843L13.1333 28.3833ZM13.1033 29.0173L13.7053 29.1203C13.6273 29.3473 13.5043 29.5203 13.3363 29.6403C13.1503 29.7645 12.9298 29.8268 12.7063 29.8183C12.3073 29.8183 12.0123 29.6833 11.8213 29.4143C11.6693 29.1993 11.5943 28.9273 11.5943 28.5983C11.5943 28.2063 11.6933 27.8993 11.8923 27.6773C11.9856 27.5698 12.1014 27.4843 12.2316 27.4267C12.3617 27.3691 12.503 27.341 12.6453 27.3443C12.9873 27.3443 13.2553 27.4603 13.4533 27.6943C13.6503 27.9273 13.7443 28.2843 13.7363 28.7643H12.2143C12.2183 28.9503 12.2673 29.0943 12.3623 29.1983C12.4062 29.2482 12.4605 29.2878 12.5212 29.3146C12.582 29.3413 12.6479 29.3546 12.7143 29.3533C12.8016 29.3559 12.8869 29.3276 12.9553 29.2733C13.0297 29.2052 13.0814 29.1158 13.1033 29.0173ZM15.7223 26.5033V29.7593H18.1213V29.2093H16.3613V28.3253H17.9393V27.7763H16.3613V27.0533H18.0583V26.5033H15.7223ZM20.2943 29.7593V29.4053C20.2111 29.531 20.098 29.634 19.9653 29.7053C19.8361 29.7765 19.6912 29.8144 19.5437 29.8157C19.3962 29.8169 19.2507 29.7814 19.1203 29.7123C19.0016 29.6468 18.9081 29.5438 18.8543 29.4193C18.7993 29.2933 18.7723 29.1193 18.7723 28.8963V27.4013H19.3803V28.4853C19.3803 28.8173 19.3903 29.0213 19.4133 29.0953C19.4329 29.1666 19.4759 29.2293 19.5353 29.2733C19.6008 29.3192 19.6794 29.3424 19.7593 29.3393C19.859 29.3406 19.9565 29.3097 20.0373 29.2513C20.115 29.1983 20.1738 29.122 20.2053 29.0333C20.2353 28.9473 20.2513 28.7343 20.2513 28.3973V27.4013H20.8583V29.7593H20.2943ZM21.5843 29.7593H22.1923V29.0303C22.1923 28.6293 22.2093 28.3653 22.2433 28.2403C22.2773 28.1133 22.3233 28.0263 22.3833 27.9783C22.4446 27.9297 22.5211 27.9042 22.5993 27.9063C22.6873 27.9063 22.7823 27.9403 22.8853 28.0083L23.0693 27.4623C22.9504 27.3864 22.8124 27.3455 22.6713 27.3443C22.5781 27.3431 22.4867 27.3703 22.4093 27.4223C22.3323 27.4743 22.2453 27.5793 22.1493 27.7373V27.4023H21.5853V29.7593H21.5843ZM23.9363 28.5813C23.9363 28.8163 23.9903 28.9963 24.0983 29.1213C24.1466 29.1806 24.2077 29.2282 24.2769 29.2606C24.3462 29.293 24.4218 29.3093 24.4983 29.3083C24.5745 29.3091 24.6499 29.2925 24.7189 29.26C24.7878 29.2274 24.8484 29.1797 24.8963 29.1203C25.0033 28.9963 25.0573 28.8143 25.0573 28.5773C25.0573 28.3453 25.0033 28.1673 24.8963 28.0423C24.8484 27.983 24.7878 27.9353 24.7189 27.9027C24.6499 27.8701 24.5745 27.8536 24.4983 27.8543C24.4218 27.8535 24.346 27.87 24.2768 27.9026C24.2075 27.9351 24.1465 27.9829 24.0983 28.0423C23.9903 28.1663 23.9363 28.3463 23.9363 28.5813ZM23.3153 28.5473C23.3153 28.3393 23.3653 28.1373 23.4643 27.9433C23.5633 27.7493 23.7033 27.6003 23.8843 27.4983C24.0663 27.3953 24.2693 27.3443 24.4943 27.3443C24.8403 27.3443 25.1243 27.4603 25.3443 27.6923C25.5663 27.9253 25.6763 28.2193 25.6763 28.5743C25.6763 28.9323 25.5643 29.2293 25.3413 29.4643C25.2338 29.5796 25.1031 29.6708 24.9578 29.7318C24.8125 29.7928 24.6559 29.8223 24.4983 29.8183C24.2883 29.8183 24.0883 29.7683 23.8983 29.6713C23.7116 29.5768 23.5597 29.4256 23.4643 29.2393C23.3643 29.0493 23.3153 28.8193 23.3153 28.5473ZM28.2923 27.9833V27.0533H28.5993C28.8293 27.0533 28.9803 27.0603 29.0563 27.0753C29.1593 27.0953 29.2453 27.1433 29.3123 27.2213C29.3813 27.3038 29.4173 27.4089 29.4133 27.5163C29.4152 27.6066 29.3901 27.6954 29.3413 27.7713C29.2932 27.844 29.2236 27.9 29.1423 27.9313C29.0583 27.9663 28.8903 27.9833 28.6403 27.9833H28.2923ZM27.6553 26.5033V29.7593H28.2943V28.5313H28.7093C28.9973 28.5313 29.2173 28.5153 29.3693 28.4843C29.4976 28.4535 29.6176 28.3951 29.7209 28.313C29.8242 28.231 29.9083 28.1273 29.9673 28.0093C30.0373 27.8723 30.0733 27.7043 30.0733 27.5043C30.0733 27.2453 30.0123 27.0343 29.8903 26.8703C29.7802 26.7149 29.6199 26.6022 29.4363 26.5513C29.3183 26.5193 29.0663 26.5023 28.6783 26.5023H27.6553V26.5033ZM31.9853 28.6293C31.9073 28.6563 31.7853 28.6883 31.6183 28.7253C31.4503 28.7623 31.3403 28.7993 31.2883 28.8353C31.2522 28.8595 31.2226 28.8923 31.2022 28.9307C31.1818 28.9691 31.1712 29.0119 31.1713 29.0553C31.1713 29.0988 31.18 29.1419 31.197 29.1819C31.2139 29.222 31.2388 29.2582 31.27 29.2884C31.3013 29.3187 31.3383 29.3423 31.3789 29.3579C31.4195 29.3735 31.4628 29.3808 31.5063 29.3793C31.6198 29.3776 31.7296 29.3382 31.8183 29.2673C31.8874 29.2159 31.9376 29.1432 31.9613 29.0603C31.9773 29.0063 31.9853 28.9043 31.9853 28.7543V28.6293ZM31.1693 28.1193L30.6243 28.0163C30.6863 27.7873 30.7923 27.6183 30.9433 27.5083C31.0933 27.3983 31.3183 27.3443 31.6153 27.3443C31.8853 27.3443 32.0863 27.3773 32.2193 27.4433C32.3364 27.4956 32.434 27.5834 32.4983 27.6943C32.5523 27.7963 32.5783 27.9823 32.5783 28.2543L32.5723 28.9843C32.5723 29.1913 32.5823 29.3443 32.6023 29.4433C32.6213 29.5413 32.6573 29.6473 32.7103 29.7593H32.1093C32.087 29.6999 32.0673 29.6395 32.0503 29.5783C32.0442 29.5542 32.0375 29.5302 32.0303 29.5063C31.9352 29.6044 31.8226 29.6838 31.6983 29.7403C31.5795 29.7926 31.4511 29.8192 31.3213 29.8183C31.0863 29.8183 30.9013 29.7523 30.7653 29.6203C30.6985 29.5555 30.646 29.4775 30.611 29.3912C30.5761 29.305 30.5595 29.2124 30.5623 29.1193C30.5623 28.9863 30.5923 28.8673 30.6543 28.7623C30.7155 28.6586 30.806 28.5751 30.9143 28.5223C31.0253 28.4663 31.1863 28.4173 31.3953 28.3763C31.6783 28.3213 31.8753 28.2703 31.9833 28.2223V28.1593C31.9833 28.0383 31.9553 27.9513 31.8973 27.8993C31.8393 27.8473 31.7303 27.8223 31.5703 27.8223C31.4808 27.8171 31.3919 27.8402 31.3163 27.8883C31.245 27.9482 31.1937 28.0295 31.1693 28.1193ZM33.6593 27.4013H33.0153L33.8863 29.7653C33.857 29.8847 33.804 29.997 33.7303 30.0953C33.6623 30.1803 33.5583 30.2233 33.4163 30.2233C33.3403 30.2233 33.2543 30.2143 33.1583 30.1943L33.2153 30.6843C33.3273 30.7083 33.4423 30.7213 33.5583 30.7213C33.6733 30.7213 33.7773 30.7093 33.8683 30.6833C33.9507 30.6621 34.0286 30.6262 34.0983 30.5773C34.1642 30.5289 34.2208 30.469 34.2653 30.4003C34.3267 30.3005 34.3776 30.1946 34.4173 30.0843L35.3703 27.4013H34.7433L34.2083 29.0753L33.6593 27.4013ZM35.8423 27.4013H36.3993V27.7243C36.5993 27.4703 36.8383 27.3443 37.1153 27.3443C37.2613 27.3443 37.3893 27.3743 37.4973 27.4373C37.6101 27.5049 37.7019 27.6026 37.7623 27.7193C37.8633 27.5943 37.9723 27.4993 38.0883 27.4373C38.2029 27.3757 38.3312 27.3437 38.4613 27.3443C38.6303 27.3443 38.7713 27.3793 38.8883 27.4493C39.0066 27.5217 39.0982 27.6305 39.1493 27.7593C39.1913 27.8603 39.2123 28.0243 39.2123 28.2493V29.7593H38.6043V28.4093C38.6043 28.1753 38.5843 28.0233 38.5423 27.9553C38.4863 27.8663 38.4003 27.8223 38.2843 27.8223C38.1978 27.8225 38.1136 27.8505 38.0443 27.9023C37.9666 27.961 37.9104 28.0436 37.8843 28.1373C37.8503 28.2393 37.8343 28.4023 37.8343 28.6253V29.7593H37.2263V28.4653C37.2263 28.2353 37.2163 28.0873 37.1943 28.0203C37.1783 27.9607 37.1431 27.9081 37.0943 27.8703C37.0395 27.8355 36.9751 27.8187 36.9103 27.8223C36.8203 27.821 36.7322 27.8479 36.6583 27.8993C36.5816 27.9546 36.5253 28.0337 36.4983 28.1243C36.4663 28.2223 36.4493 28.3843 36.4493 28.6113V29.7593H35.8423V27.4013ZM41.1693 27.9653C41.2563 28.0613 41.3013 28.2003 41.3063 28.3843H40.3963C40.3867 28.2362 40.4323 28.0898 40.5243 27.9733C40.5642 27.925 40.6145 27.8862 40.6715 27.8601C40.7284 27.8339 40.7906 27.821 40.8533 27.8223C40.9132 27.8216 40.9726 27.8341 41.0272 27.8588C41.0818 27.8835 41.1303 27.9199 41.1693 27.9653ZM41.8753 29.1203L41.2743 29.0173C41.2522 29.116 41.2002 29.2054 41.1253 29.2733C41.0572 29.3275 40.9722 29.3558 40.8853 29.3533C40.8187 29.3547 40.7527 29.3416 40.6917 29.3148C40.6307 29.288 40.5763 29.2483 40.5323 29.1983C40.4383 29.0953 40.3883 28.9503 40.3843 28.7653H41.9063C41.9153 28.2833 41.8203 27.9273 41.6233 27.6933C41.4263 27.4603 41.1573 27.3433 40.8153 27.3433C40.6729 27.3401 40.5316 27.3684 40.4015 27.4262C40.2713 27.4839 40.1555 27.5697 40.0623 27.6773C39.8633 27.8993 39.7643 28.2073 39.7643 28.5983C39.7643 28.9273 39.8393 29.1983 39.9913 29.4143C40.1823 29.6843 40.4773 29.8183 40.8763 29.8183C41.1293 29.8183 41.3383 29.7583 41.5063 29.6393C41.6743 29.5203 41.7963 29.3473 41.8753 29.1203ZM44.6123 29.7603H44.0053V28.5543C44.0053 28.2983 43.9923 28.1343 43.9663 28.0593C43.9442 27.9893 43.9004 27.928 43.8413 27.8843C43.7797 27.8417 43.7061 27.82 43.6313 27.8223C43.5313 27.8215 43.4337 27.8526 43.3526 27.911C43.2715 27.9695 43.2111 28.0522 43.1803 28.1473C43.1503 28.2443 43.1343 28.4253 43.1343 28.6893V29.7593H42.5263V27.4023H43.0903V27.7483C43.2903 27.4783 43.5403 27.3443 43.8433 27.3443C43.9773 27.3443 44.0993 27.3693 44.2103 27.4183C44.3203 27.4683 44.4043 27.5313 44.4603 27.6083C44.5179 27.6868 44.5584 27.7763 44.5793 27.8713C44.6013 27.9693 44.6123 28.1093 44.6123 28.2913V29.7593V29.7603ZM46.4023 27.8993V27.4013H45.9883V26.5613L45.3803 26.9303V27.4013H45.1043V27.8993H45.3803V28.9293C45.3803 29.1503 45.3863 29.2973 45.4003 29.3703C45.41 29.4569 45.4387 29.5402 45.4843 29.6143C45.5243 29.6743 45.5893 29.7233 45.6753 29.7603C45.7683 29.7995 45.8684 29.8189 45.9693 29.8173C46.1463 29.8173 46.3053 29.7873 46.4453 29.7243L46.3923 29.2413C46.3162 29.2747 46.2351 29.295 46.1523 29.3013C46.1163 29.302 46.0812 29.2907 46.0523 29.2693C46.0258 29.2502 46.007 29.2222 45.9993 29.1903C45.988 29.0784 45.9843 28.9658 45.9883 28.8533V27.8993H46.4023ZM46.7453 29.0943L47.3533 28.9973C47.3714 29.1047 47.4271 29.2021 47.5103 29.2723C47.6066 29.3398 47.7229 29.3725 47.8403 29.3653C47.9973 29.3653 48.1153 29.3353 48.1943 29.2763C48.2201 29.2567 48.2408 29.2313 48.2547 29.202C48.2686 29.1728 48.2753 29.1407 48.2743 29.1083C48.2755 29.0648 48.2597 29.0225 48.2303 28.9903C48.1697 28.9472 48.0998 28.9188 48.0263 28.9073C47.5363 28.7953 47.2243 28.6933 47.0933 28.6013C47.0063 28.5434 46.9356 28.4643 46.8878 28.3713C46.84 28.2784 46.8168 28.1748 46.8203 28.0703C46.8203 27.8653 46.8993 27.6923 47.0563 27.5533C47.2133 27.4133 47.4573 27.3433 47.7883 27.3433C48.1033 27.3433 48.3363 27.3963 48.4903 27.5003C48.648 27.612 48.7602 27.7767 48.8063 27.9643L48.2363 28.0743C48.2163 27.9896 48.1666 27.9147 48.0963 27.8633C48.0076 27.8088 47.9042 27.783 47.8003 27.7893C47.6393 27.7893 47.5233 27.8123 47.4543 27.8593C47.4328 27.8728 47.4151 27.8915 47.4028 27.9138C47.3906 27.936 47.3842 27.961 47.3843 27.9863C47.3843 28.0313 47.4043 28.0693 47.4443 28.1003C47.4993 28.1423 47.6893 28.2003 48.0123 28.2773C48.3363 28.3533 48.5623 28.4463 48.6913 28.5563C48.8173 28.6683 48.8813 28.8233 48.8813 29.0233C48.8813 29.1303 48.8578 29.2359 48.8123 29.3327C48.7669 29.4295 48.7006 29.5151 48.6183 29.5833C48.4433 29.7393 48.1843 29.8183 47.8413 29.8183C47.5293 29.8183 47.2833 29.7523 47.1013 29.6233C46.9218 29.4966 46.7952 29.3083 46.7453 29.0943ZM52.1353 27.2663L52.5773 28.4743H51.7093L52.1353 27.2663ZM53.0623 29.7593H53.7503L52.4753 26.5033H51.8033L50.5803 29.7593H51.2563L51.5163 29.0233H52.7893L53.0623 29.7593ZM54.7943 29.7593H54.1863V27.4023H54.7503V27.7373C54.8473 27.5793 54.9333 27.4743 55.0103 27.4223C55.0876 27.3702 55.179 27.3429 55.2723 27.3443C55.4103 27.3443 55.5423 27.3843 55.6713 27.4623L55.4863 28.0083C55.4034 27.9471 55.3043 27.9116 55.2013 27.9063C55.1227 27.904 55.0459 27.9295 54.9843 27.9783C54.9253 28.0263 54.8793 28.1133 54.8453 28.2393C54.8113 28.3653 54.7953 28.6293 54.7953 29.0303V29.7603L54.7943 29.7593ZM57.2873 27.9653C57.3743 28.0613 57.4193 28.2003 57.4243 28.3843H56.5143C56.5047 28.2362 56.5503 28.0898 56.6423 27.9733C56.6822 27.925 56.7325 27.8862 56.7895 27.8601C56.8464 27.8339 56.9086 27.821 56.9713 27.8223C57.0953 27.8223 57.2013 27.8703 57.2873 27.9653ZM57.9933 29.1203L57.3923 29.0173C57.3703 29.1158 57.3186 29.2051 57.2443 29.2733C57.1757 29.3278 57.0899 29.3562 57.0023 29.3533C56.9359 29.3545 56.8701 29.3413 56.8093 29.3145C56.7485 29.2877 56.6943 29.2481 56.6503 29.1983C56.5563 29.0953 56.5063 28.9503 56.5023 28.7653H58.0243C58.0333 28.2843 57.9383 27.9273 57.7413 27.6933C57.5443 27.4603 57.2753 27.3433 56.9343 27.3433C56.7918 27.34 56.6503 27.3682 56.5199 27.4259C56.3896 27.4837 56.2736 27.5695 56.1803 27.6773C55.9813 27.8993 55.8823 28.2073 55.8823 28.5983C55.8823 28.9283 55.9573 29.1983 56.1093 29.4143C56.3003 29.6843 56.5963 29.8183 56.9953 29.8183C57.2473 29.8183 57.4573 29.7583 57.6253 29.6393C57.7923 29.5203 57.9153 29.3473 57.9933 29.1203ZM59.9113 28.6303C59.7907 28.6683 59.6682 28.7001 59.5443 28.7253C59.3763 28.7623 59.2673 28.7993 59.2153 28.8353C59.179 28.8594 59.1492 28.8921 59.1287 28.9305C59.1081 28.9689 59.0973 29.0118 59.0973 29.0553C59.0973 29.1433 59.1283 29.2183 59.1923 29.2833C59.2237 29.3148 59.2611 29.3394 59.3024 29.3558C59.3437 29.3721 59.3879 29.3798 59.4323 29.3783C59.5457 29.377 59.6555 29.338 59.7443 29.2673C59.8139 29.2158 59.8645 29.1427 59.8883 29.0593C59.9033 29.0063 59.9113 28.9043 59.9113 28.7543V28.6303ZM59.0953 28.1193L58.5503 28.0163C58.6123 27.7873 58.7183 27.6183 58.8693 27.5083C59.0193 27.3983 59.2443 27.3443 59.5413 27.3443C59.8113 27.3443 60.0123 27.3773 60.1453 27.4433C60.2773 27.5093 60.3703 27.5933 60.4243 27.6943C60.4783 27.7953 60.5043 27.9823 60.5043 28.2543L60.4983 28.9843C60.4983 29.1913 60.5083 29.3443 60.5283 29.4433C60.5473 29.5413 60.5833 29.6473 60.6363 29.7593H60.0353C60.0037 29.6767 59.977 29.5922 59.9553 29.5063C59.8605 29.6043 59.7483 29.6837 59.6243 29.7403C59.5055 29.7926 59.3771 29.8191 59.2473 29.8183C59.0123 29.8183 58.8273 29.7513 58.6913 29.6203C58.6245 29.5555 58.572 29.4775 58.537 29.3912C58.5021 29.305 58.4855 29.2124 58.4883 29.1193C58.486 28.9942 58.5178 28.8708 58.5803 28.7623C58.6414 28.6585 58.7319 28.575 58.8403 28.5223C58.9513 28.4663 59.1123 28.4173 59.3213 28.3763C59.6043 28.3213 59.8013 28.2703 59.9093 28.2223V28.1593C59.9093 28.0383 59.8813 27.9513 59.8233 27.8993C59.7653 27.8473 59.6563 27.8223 59.4963 27.8223C59.4068 27.8171 59.3179 27.8402 59.2423 27.8883C59.1711 27.9483 59.1198 28.0295 59.0953 28.1193ZM52.2993 11.6653L54.3823 19.0503H50.2773L52.2993 11.6653ZM49.3193 22.3703H55.2653L56.1133 25.3153H60.6173L55.5933 8.27734H48.8853L43.9213 25.3153H48.5213L49.3213 22.3703H49.3193Z" fill="white"/>
<path fill-rule="evenodd" clip-rule="evenodd" d="M25.6453 10.6747C27.4793 10.6747 29.1152 11.5457 30.1922 12.9107L31.1512 10.7907C29.6047 9.27618 27.5259 8.42851 25.3612 8.42969C21.8572 8.42969 18.8592 10.6117 17.6292 13.6997H15.7592L14.6562 16.1397H17.0613C17.0197 16.6433 17.0234 17.1497 17.0723 17.6527H15.8643L14.7603 20.0937H17.6863C18.9523 23.1047 21.9123 25.2187 25.3603 25.2187C27.0993 25.2187 28.7113 24.6817 30.0473 23.7637V20.7737C28.9713 22.0357 27.3983 22.8337 25.6453 22.8337C23.5953 22.8337 21.7923 21.7437 20.7423 20.0937H26.8703L27.9743 17.6537H19.8403C19.7688 17.1525 19.7574 16.6446 19.8062 16.1407H28.6572L29.7612 13.7007H20.5712C21.5882 11.8917 23.4793 10.6747 25.6453 10.6747Z" fill="#FFBE00"/>
</svg>
