<svg width="26" height="24" viewBox="0 0 26 24" fill="none" xmlns="http://www.w3.org/2000/svg">
<path d="M2 6.99988L14 6.99989M14 6.99989C14 8.65674 15.3431 9.99988 17 9.99988C18.6569 9.99988 20 8.65674 20 6.99988M14 6.99989C14 5.34303 15.3431 3.99988 17 3.99988C18.6569 3.99988 20 5.34303 20 6.99988M11.5 17.1568L23.5 17.1568M11.5 17.1568C11.5 18.8137 10.1569 20.1568 8.5 20.1568C6.84315 20.1568 5.5 18.8137 5.5 17.1568M11.5 17.1568C11.5 15.5 10.1569 14.1568 8.5 14.1568C6.84315 14.1568 5.5 15.5 5.5 17.1568M20 6.99988H24M5.5 17.1568H2" stroke="white" stroke-width="2.4" stroke-linecap="round" stroke-linejoin="round"/>
</svg>
