<svg width="20" height="20" viewBox="0 0 20 20" fill="none" xmlns="http://www.w3.org/2000/svg">
<path d="M9.40217 2.87774C9.59424 2.48863 9.69028 2.29407 9.82065 2.23191C9.93408 2.17782 10.0659 2.17782 10.1793 2.23191C10.3097 2.29407 10.4057 2.48863 10.5978 2.87774L12.42 6.56938C12.4767 6.68426 12.5051 6.7417 12.5465 6.78629C12.5832 6.82578 12.6272 6.85777 12.6761 6.8805C12.7313 6.90617 12.7946 6.91543 12.9214 6.93396L16.9975 7.52973C17.4267 7.59247 17.6413 7.62384 17.7406 7.72868C17.827 7.81989 17.8677 7.94523 17.8512 8.06979C17.8323 8.21296 17.6769 8.3643 17.3662 8.66696L14.4178 11.5387C14.3259 11.6282 14.28 11.6729 14.2503 11.7262C14.2241 11.7734 14.2072 11.8252 14.2007 11.8787C14.1934 11.9392 14.2042 12.0025 14.2259 12.1289L14.9216 16.1851C14.995 16.6129 15.0317 16.8268 14.9627 16.9537C14.9027 17.0642 14.7961 17.1416 14.6725 17.1645C14.5305 17.1909 14.3384 17.0899 13.9542 16.8878L10.3103 14.9715C10.1967 14.9118 10.14 14.8819 10.0802 14.8702C10.0272 14.8598 9.97274 14.8598 9.91979 14.8702C9.85998 14.8819 9.80321 14.9118 9.68967 14.9715L6.04573 16.8878C5.66156 17.0899 5.46947 17.1909 5.32744 17.1645C5.20386 17.1416 5.09723 17.0642 5.03724 16.9537C4.96829 16.8268 5.00498 16.6129 5.07835 16.1851L5.77403 12.1289C5.79572 12.0025 5.80656 11.9392 5.79923 11.8787C5.79273 11.8252 5.77589 11.7734 5.74963 11.7262C5.71998 11.6729 5.67402 11.6282 5.58211 11.5387L2.63376 8.66696C2.32301 8.3643 2.16764 8.21296 2.14873 8.06979C2.13228 7.94523 2.17292 7.81989 2.25933 7.72868C2.35866 7.62384 2.57327 7.59247 3.0025 7.52973L7.07855 6.93396C7.20531 6.91543 7.26869 6.90617 7.32389 6.8805C7.37276 6.85777 7.41676 6.82578 7.45345 6.78629C7.49488 6.7417 7.52323 6.68426 7.57994 6.56938L9.40217 2.87774Z" stroke="white" stroke-opacity="0.32" stroke-width="2" stroke-linecap="round" stroke-linejoin="round"/>
</svg>
