<svg width="9" height="10" viewBox="0 0 9 10" fill="none" xmlns="http://www.w3.org/2000/svg">
<g clip-path="url(#clip0_3217_13872)">
<mask id="mask0_3217_13872" style="mask-type:luminance" maskUnits="userSpaceOnUse" x="0" y="0" width="9" height="10">
<path d="M8.63464 0.890625H0.431641V9.09362H8.63464V0.890625Z" fill="white"/>
</mask>
<g mask="url(#mask0_3217_13872)">
<path d="M4.53314 9.09362C6.79834 9.09362 8.63464 7.25732 8.63464 4.99212C8.63464 2.72693 6.79834 0.890625 4.53314 0.890625C2.26794 0.890625 0.431641 2.72693 0.431641 4.99212C0.431641 7.25732 2.26794 9.09362 4.53314 9.09362Z" fill="#28A8E9"/>
<path d="M6.71594 2.71469L1.72036 4.64107C1.37944 4.77799 1.38141 4.9682 1.65781 5.053L2.94038 5.4531L5.90784 3.58082C6.04818 3.49544 6.17635 3.54137 6.07098 3.63491L3.66675 5.80473L3.57827 7.12702C3.70788 7.12702 3.76508 7.06758 3.83777 6.99741L4.46073 6.39162L5.75653 7.34878C5.99548 7.48033 6.16705 7.41273 6.22653 7.12757L7.07714 3.11873C7.1642 2.76964 6.94388 2.61157 6.71594 2.71469Z" fill="white"/>
</g>
</g>
<defs>
<clipPath id="clip0_3217_13872">
<rect width="8.203" height="8.203" fill="white" transform="translate(0.435547 0.882812)"/>
</clipPath>
</defs>
</svg>
