<svg width="24" height="24" viewBox="0 0 24 24" fill="none" xmlns="http://www.w3.org/2000/svg">
<g clip-path="url(#clip0_2114_11008)">
<mask id="mask0_2114_11008" style="mask-type:luminance" maskUnits="userSpaceOnUse" x="0" y="0" width="24" height="24">
<path d="M24 0H0V24H24V0Z" fill="white"/>
</mask>
<g mask="url(#mask0_2114_11008)">
<path d="M12 24C18.6274 24 24 18.6274 24 12C24 5.37258 18.6274 0 12 0C5.37258 0 0 5.37258 0 12C0 18.6274 5.37258 24 12 24Z" fill="#28A8E9"/>
<path d="M18.3863 5.34099L3.77045 10.9771C2.77298 11.3777 2.77875 11.9342 3.58744 12.1823L7.33991 13.3529L16.022 7.87506C16.4326 7.62528 16.8076 7.75965 16.4993 8.03333L9.4651 14.3817L9.20625 18.2504C9.58545 18.2504 9.7528 18.0765 9.96548 17.8712L11.7881 16.0988L15.5793 18.8992C16.2784 19.2841 16.7804 19.0863 16.9544 18.252L19.4431 6.52311C19.6978 5.50174 19.0532 5.03927 18.3863 5.34099Z" fill="white"/>
</g>
</g>
<defs>
<clipPath id="clip0_2114_11008">
<rect width="24" height="24" fill="white"/>
</clipPath>
</defs>
</svg>
