<svg width="9" height="10" viewBox="0 0 9 10" fill="none" xmlns="http://www.w3.org/2000/svg">
<g clip-path="url(#clip0_3217_13865)">
<mask id="mask0_3217_13865" style="mask-type:luminance" maskUnits="userSpaceOnUse" x="0" y="0" width="9" height="10">
<path d="M8.2323 0.890625H0.0292969V9.09362H8.2323V0.890625Z" fill="white"/>
</mask>
<g mask="url(#mask0_3217_13865)">
<path d="M4.1308 9.09362C6.39599 9.09362 8.2323 7.25732 8.2323 4.99212C8.2323 2.72693 6.39599 0.890625 4.1308 0.890625C1.8656 0.890625 0.0292969 2.72693 0.0292969 4.99212C0.0292969 7.25732 1.8656 9.09362 4.1308 9.09362Z" fill="#1D9BF0"/>
<path d="M7.20597 3.48522C6.99857 3.57712 6.77579 3.63921 6.54156 3.66728C6.78324 3.52268 6.96405 3.29509 7.05025 3.02697C6.82319 3.16184 6.57468 3.25677 6.31557 3.30764C6.14129 3.12157 5.91047 2.99825 5.65892 2.9568C5.40739 2.91536 5.1492 2.95812 4.92447 3.07845C4.69971 3.19878 4.52099 3.38994 4.41603 3.62225C4.31106 3.85457 4.28573 4.11504 4.34398 4.36323C3.88389 4.34012 3.43383 4.22054 3.02297 4.01225C2.61211 3.80395 2.24964 3.51159 1.95908 3.15414C1.85974 3.32552 1.80261 3.52422 1.80261 3.73583C1.8025 3.92633 1.84941 4.11392 1.93918 4.28194C2.02896 4.44997 2.15882 4.59322 2.31724 4.69904C2.13351 4.69319 1.95384 4.64353 1.79317 4.55422V4.56912C1.79315 4.8363 1.88557 5.09527 2.05475 5.30206C2.22393 5.50888 2.45945 5.65079 2.72134 5.7037C2.5509 5.74981 2.37221 5.75661 2.19877 5.72356C2.27265 5.95344 2.41659 6.15449 2.61041 6.29852C2.80423 6.44255 3.03825 6.52239 3.27968 6.5268C2.86983 6.84856 2.36366 7.02308 1.8426 7.0223C1.7503 7.02233 1.65807 7.01693 1.56641 7.00616C2.09531 7.34621 2.71099 7.52671 3.33979 7.52599C5.46833 7.52599 6.63196 5.76307 6.63196 4.23407C6.63196 4.18439 6.63073 4.13422 6.62851 4.08455C6.85484 3.92086 7.05021 3.71817 7.20545 3.48597L7.20597 3.48522Z" fill="white"/>
</g>
</g>
<defs>
<clipPath id="clip0_3217_13865">
<rect width="8.203" height="8.203" fill="white" transform="translate(0.0273438 0.882812)"/>
</clipPath>
</defs>
</svg>
