<svg width="20" height="14" viewBox="0 0 20 14" fill="none" xmlns="http://www.w3.org/2000/svg">
<g clip-path="url(#clip0_3217_13784)">
<path d="M4.66552 0.929688H9.32414C9.97457 0.929688 10.3789 1.47553 10.2271 2.14715L8.05814 11.733C7.90536 12.4023 7.25425 12.9484 6.60348 12.9484H1.94451C1.29511 12.9484 0.890088 12.4023 1.0415 11.733L3.21222 2.14749C3.36363 1.47553 4.0144 0.929688 4.66552 0.929688Z" fill="#E21836"/>
<path d="M8.9382 0.925781H14.2954C14.9459 0.925781 14.6526 1.47128 14.4995 2.1429L12.3312 11.7291C12.1787 12.3984 12.2262 12.9445 11.5748 12.9445H6.2172C5.56574 12.9445 5.16277 12.3984 5.31555 11.7291L7.48422 2.1429C7.63802 1.47128 8.28743 0.925781 8.9382 0.925781Z" fill="#00447C"/>
<path d="M14.0823 0.925781H18.7409C19.3924 0.925781 19.7967 1.47128 19.6436 2.1429L17.4753 11.7291C17.3222 12.3984 16.6704 12.9445 16.0192 12.9445H11.3634C10.7116 12.9445 10.3072 12.3984 10.46 11.7291L12.629 2.1429C12.7808 1.47128 13.4309 0.925781 14.0823 0.925781Z" fill="#007B84"/>
<path d="M5.88243 4.00112C5.40324 4.00625 5.26173 4.00112 5.21662 3.99019C5.19919 4.07529 4.87585 5.61028 4.87483 5.61164C4.80544 5.92233 4.75486 6.14347 4.58259 6.28668C4.48518 6.36974 4.37103 6.40973 4.23875 6.40973C4.0265 6.40973 3.90277 6.30138 3.88192 6.09528L3.87782 6.02453C3.87782 6.02453 3.94276 5.60857 3.94276 5.60618C3.94276 5.60618 4.28182 4.20722 4.34266 4.02231C4.34481 4.01539 4.34641 4.0083 4.34744 4.00112C3.6871 4.00727 3.57021 4.00112 3.562 3.99019C3.55451 4.024 3.54767 4.05796 3.5415 4.09204L3.19492 5.66872L3.16484 5.80271L3.10742 6.2402C3.10742 6.36974 3.13203 6.47569 3.18159 6.5649C3.33916 6.84893 3.78964 6.89165 4.04427 6.89165C4.37239 6.89165 4.68001 6.81988 4.8885 6.68897C5.24943 6.4692 5.34376 6.12604 5.42819 5.82082L5.46715 5.66428C5.46715 5.66428 5.8168 4.21132 5.87593 4.02231C5.87833 4.01206 5.87935 4.00625 5.88243 4.00112ZM7.07152 5.17347C6.9871 5.17347 6.83329 5.19432 6.69487 5.26404C6.64462 5.2907 6.59746 5.32146 6.54721 5.35188L6.59233 5.18372L6.56772 5.15569C6.27446 5.21688 6.20884 5.22508 5.9378 5.26404L5.91524 5.27977C5.8838 5.54841 5.85577 5.75007 5.73922 6.2778C5.69478 6.47262 5.64864 6.66881 5.6025 6.86294L5.61481 6.88755C5.81562 6.87463 6.01692 6.87098 6.21807 6.87662L6.23755 6.85474C6.26831 6.69307 6.27207 6.65513 6.34009 6.3277C6.37187 6.17253 6.43852 5.83142 6.47134 5.70974C6.53183 5.68103 6.59096 5.653 6.64804 5.653C6.78305 5.653 6.76664 5.77434 6.76152 5.82287C6.75571 5.90388 6.70649 6.16945 6.6559 6.39708L6.62207 6.54405C6.59882 6.65274 6.57285 6.75836 6.54926 6.86602L6.55952 6.88755C6.83295 6.87251 6.91669 6.87251 7.15047 6.87662L7.17782 6.85474C7.2202 6.60216 7.2325 6.53448 7.3077 6.16706L7.3453 5.99821C7.41844 5.66736 7.45535 5.49988 7.39998 5.3635C7.34119 5.21038 7.20072 5.17347 7.07152 5.17347ZM8.40007 5.51936C8.25446 5.54807 8.16184 5.56721 8.06955 5.57986C7.97829 5.5949 7.88909 5.60857 7.74827 5.62873L7.73733 5.63899L7.72708 5.64719C7.71238 5.7552 7.70213 5.84816 7.68264 5.95788C7.66624 6.07101 7.64095 6.19987 7.59993 6.38478C7.58361 6.4665 7.56133 6.54692 7.53328 6.6254C7.51551 6.6753 7.49568 6.72349 7.46014 6.86294L7.46834 6.87559L7.47552 6.88755C7.60677 6.88106 7.6929 6.87662 7.78108 6.87559C7.8696 6.87217 7.96086 6.87559 8.10236 6.87662L8.11467 6.86636L8.128 6.85474C8.14851 6.72896 8.15158 6.69547 8.16389 6.63394C8.17653 6.56832 8.19772 6.4774 8.25002 6.23439C8.27497 6.12057 8.30231 6.00676 8.32795 5.89021C8.35495 5.774 8.38263 5.66018 8.40929 5.54602L8.40519 5.53235L8.40007 5.51936ZM8.40314 5.05282C8.27087 4.97249 8.03879 4.99813 7.88259 5.10887C7.72708 5.21756 7.7093 5.37205 7.84124 5.4534C7.97112 5.53132 8.20388 5.50808 8.35871 5.39632C8.51388 5.28523 8.53336 5.13245 8.40314 5.05282ZM9.20225 6.9125C9.46987 6.9125 9.74399 6.83663 9.95043 6.61173C10.109 6.42921 10.1818 6.15714 10.2068 6.04538C10.2888 5.67488 10.2252 5.50193 10.1449 5.39597C10.0229 5.23533 9.80756 5.18406 9.58369 5.18406C9.44936 5.18406 9.12911 5.19774 8.87891 5.43494C8.69947 5.60618 8.61642 5.83859 8.56618 6.06144C8.51559 6.28839 8.45749 6.69717 8.82252 6.84927C8.93531 6.89883 9.09766 6.9125 9.20225 6.9125ZM9.18174 6.07853C9.24327 5.79758 9.31607 5.56209 9.50166 5.56209C9.64726 5.56209 9.65786 5.73742 9.59326 6.01906C9.58164 6.08161 9.52832 6.31403 9.45654 6.41315C9.4063 6.48595 9.34717 6.53038 9.2812 6.53038C9.26172 6.53038 9.14551 6.53038 9.1438 6.35265C9.14278 6.26515 9.16021 6.1756 9.1814 6.07853H9.18174ZM10.8757 6.87662L10.8962 6.85474C10.9259 6.69307 10.931 6.65513 10.9967 6.3277C11.0295 6.17253 11.0971 5.83142 11.1293 5.71008C11.1894 5.68103 11.2482 5.65266 11.3067 5.65266C11.441 5.65266 11.4246 5.77434 11.4195 5.82253C11.4143 5.90388 11.3651 6.16911 11.3135 6.39674L11.2817 6.54405C11.2574 6.65274 11.2308 6.75836 11.2072 6.86602L11.2175 6.88755C11.4138 6.87467 11.6107 6.87102 11.8074 6.87662L11.8358 6.85474C11.8768 6.60182 11.888 6.53448 11.9656 6.16706L12.0022 5.99787C12.0757 5.66736 12.1129 5.49988 12.0586 5.3635C11.9981 5.21038 11.8569 5.17347 11.7295 5.17347C11.645 5.17347 11.4902 5.19432 11.3528 5.26438C11.3028 5.29185 11.2538 5.32104 11.2058 5.35188L11.2479 5.18406L11.2253 5.15569C10.9324 5.21688 10.8654 5.22508 10.5947 5.26438L10.5742 5.27977C10.541 5.54841 10.5144 5.75007 10.3978 6.2778C10.3534 6.47262 10.3073 6.66881 10.2611 6.86294L10.2734 6.88755C10.4739 6.87463 10.6749 6.87098 10.8757 6.87662ZM12.8929 6.88755C12.91 6.80074 13.0125 6.28668 13.0136 6.28668C13.0136 6.28668 13.1007 5.90935 13.1059 5.89567C13.1059 5.89567 13.1335 5.85637 13.1612 5.84099H13.2016C13.583 5.84099 14.0136 5.84099 14.3513 5.58533C14.581 5.40999 14.7379 5.15125 14.808 4.83646C14.8261 4.75922 14.8398 4.66727 14.8398 4.57567C14.8398 4.45536 14.8158 4.33608 14.7482 4.24277C14.5759 3.99497 14.2331 3.99019 13.8376 3.98848L13.6425 3.99019C13.1359 3.99702 12.9329 3.99497 12.8495 3.98438L12.829 4.08999L12.6475 4.95711L12.1929 6.88448C12.6352 6.87867 12.8164 6.87867 12.8929 6.88755ZM13.2289 5.34949L13.421 4.48886L13.4271 4.44443L13.4299 4.41093L13.5071 4.41913L13.9142 4.45536C14.0714 4.51757 14.1364 4.6789 14.0909 4.88944C14.0499 5.08153 13.9285 5.24319 13.773 5.32146C13.6445 5.38743 13.4876 5.39324 13.3256 5.39324H13.221L13.2289 5.34949ZM14.4303 6.0946C14.379 6.31813 14.3209 6.72691 14.6839 6.87251C14.7998 6.9231 14.9033 6.93814 15.0089 6.93267C15.1204 6.92652 15.2236 6.8691 15.3193 6.78638L15.2933 6.88858L15.3097 6.91045C15.5181 6.90045 15.7267 6.89737 15.9352 6.90122L15.9608 6.88106C16.0022 6.63087 16.0412 6.3882 16.1488 5.90935C16.2008 5.68034 16.2531 5.45305 16.3067 5.22508L16.2985 5.19979C16.0063 5.2555 15.928 5.26746 15.6467 5.30848L15.6255 5.32659L15.617 5.39427C15.5703 5.31485 15.498 5.25372 15.4119 5.22098C15.2872 5.17039 14.9936 5.23533 14.741 5.47219C14.5636 5.64104 14.4785 5.87209 14.43 6.09425L14.4303 6.0946ZM15.0442 6.10827C15.1067 5.83244 15.1785 5.599 15.3648 5.599C15.4823 5.599 15.5445 5.71076 15.5319 5.90148C15.5216 5.94933 15.5114 5.99924 15.4984 6.05597C15.4796 6.138 15.4594 6.21935 15.4399 6.3007C15.4234 6.35117 15.4001 6.39921 15.3709 6.44357C15.3231 6.51363 15.2092 6.55704 15.1436 6.55704C15.1248 6.55704 15.01 6.55704 15.0059 6.38273C15.0052 6.29557 15.0223 6.2067 15.0442 6.10827ZM18.2498 5.19774L18.2273 5.17108C17.9378 5.23123 17.8855 5.2408 17.6199 5.27806L17.6004 5.29788C17.5994 5.3013 17.5987 5.30643 17.597 5.31087L17.5963 5.30642C17.3984 5.77605 17.4042 5.67488 17.2432 6.04469C17.2426 6.02761 17.2426 6.01735 17.2415 5.99924L17.2012 5.19774L17.1759 5.17108C16.8727 5.23123 16.8656 5.2408 16.586 5.27806L16.5641 5.29788C16.561 5.30745 16.561 5.31839 16.5593 5.32967L16.561 5.33377C16.5959 5.51765 16.5877 5.47664 16.6225 5.76682C16.639 5.90935 16.6608 6.0529 16.6772 6.19337C16.7046 6.42921 16.7203 6.54508 16.7541 6.9043C16.5651 7.22558 16.5203 7.34692 16.3385 7.6289L16.3395 7.63129L16.2117 7.83978C16.197 7.862 16.1837 7.87704 16.1649 7.88353C16.1382 7.89383 16.1096 7.89792 16.0811 7.8955H16.0101L15.9044 8.25677L16.2667 8.26361C16.4787 8.26224 16.6126 8.16004 16.6844 8.02264L16.912 7.62104H16.9086L16.9325 7.59301C17.0853 7.25361 18.2498 5.19774 18.2498 5.19774ZM14.4303 9.94146H14.2765L14.8449 8.00692H15.0332L15.0934 7.80731L15.0992 8.02914C15.092 8.16585 15.1966 8.28753 15.4717 8.26737H15.7896L15.899 7.89481H15.7793C15.711 7.89481 15.6789 7.87704 15.683 7.83876L15.6771 7.61318H15.0879V7.6142C14.8975 7.6183 14.3291 7.633 14.2136 7.66479C14.0745 7.7017 13.9275 7.81039 13.9275 7.81039L13.9856 7.61078H13.4343L13.3195 8.00658L12.7439 9.97085H12.6321L12.5224 10.3407H13.6196L13.583 10.4641H14.1237L14.1596 10.341H14.3114L14.4303 9.94112V9.94146ZM13.9798 8.39998C13.8916 8.42493 13.7276 8.50115 13.7276 8.50115L13.8735 8.00658H14.311L14.2057 8.36683C14.2057 8.36683 14.0704 8.37503 13.9802 8.39964L13.9798 8.39998ZM13.9884 9.10612C13.9884 9.10612 13.851 9.1239 13.7604 9.14509C13.6715 9.17277 13.504 9.26061 13.504 9.26061L13.6548 8.74587H14.095L13.9884 9.10612ZM13.743 9.9459H13.3041L13.4312 9.51183H13.8687L13.743 9.9459ZM14.8005 8.74587H15.4335L15.3425 9.04904H14.7013L14.6049 9.38058H15.1662L14.7413 9.99649C14.7215 10.0299 14.6913 10.0559 14.6552 10.0703C14.6205 10.0909 14.5813 10.1026 14.541 10.1045H14.3855L14.2785 10.4675H14.6856C14.8975 10.4675 15.0223 10.3684 15.1146 10.2381L15.4061 9.82764L15.4687 10.2446C15.4738 10.2748 15.4859 10.3033 15.5041 10.3279C15.5222 10.3524 15.5459 10.3724 15.5732 10.3861C15.6143 10.407 15.6563 10.4432 15.7158 10.4487C15.7793 10.4514 15.8255 10.4535 15.8562 10.4535H16.0562L16.1765 10.0474H16.0976C16.0521 10.0474 15.9745 10.0396 15.9608 10.0249C15.9475 10.0071 15.9475 9.97974 15.9403 9.93804L15.8771 9.52037H15.6173L15.7312 9.38058H16.3713L16.4698 9.04904H15.8771L15.9694 8.74587H16.56L16.6697 8.37195H14.9085L14.8005 8.74587ZM9.45483 10.0303L9.60249 9.52447H10.2095L10.3206 9.14816H9.71289L9.80551 8.83679H10.3999L10.5099 8.47244H9.02383L8.91617 8.83679H9.25386L9.16363 9.14782H8.82525L8.71315 9.53063H9.05049L8.85362 10.2002C8.82696 10.2891 8.86627 10.3226 8.89088 10.3636C8.91617 10.4039 8.94215 10.4302 8.99957 10.4456C9.05904 10.4593 9.09971 10.4671 9.15508 10.4671H9.83969L9.96171 10.0502L9.6582 10.0932C9.59975 10.0932 9.43706 10.0864 9.45483 10.0303ZM9.52456 7.60839L9.37075 7.89481C9.3376 7.95736 9.30786 7.99598 9.2812 8.0141C9.25762 8.02914 9.21114 8.03529 9.1438 8.03529H9.06348L8.95616 8.40169H9.22276C9.35093 8.40169 9.44937 8.35316 9.49619 8.32889C9.54712 8.3012 9.56045 8.31693 9.59941 8.2783L9.6893 8.19798H10.5219L10.6323 7.81654H10.0229L10.1295 7.60839H9.52456ZM10.7536 10.0375C10.7393 10.0167 10.7495 9.9794 10.7714 9.9025L10.9987 9.12697H11.8084C11.9263 9.12526 12.0114 9.1239 12.0668 9.12014C12.1263 9.1133 12.1912 9.09142 12.2616 9.05246C12.32 9.02119 12.3689 8.97479 12.4031 8.91814C12.4383 8.86823 12.4944 8.75955 12.5429 8.59207L12.829 7.61078L11.9889 7.61591C11.9889 7.61591 11.7301 7.65522 11.6163 7.69862C11.5015 7.74682 11.3371 7.88182 11.3371 7.88182L11.413 7.61283H10.8941L10.1675 10.0932C10.1471 10.1616 10.1315 10.2312 10.1206 10.3017C10.1193 10.3468 10.176 10.3916 10.2129 10.4254C10.2563 10.4589 10.3206 10.4535 10.3821 10.4589C10.4471 10.4641 10.5393 10.4671 10.6665 10.4671H11.0654L11.1877 10.0416L10.8309 10.0765C10.8158 10.0767 10.8009 10.0733 10.7875 10.0665C10.774 10.0597 10.7624 10.0498 10.7536 10.0375ZM11.1457 8.60335H11.9961L11.9417 8.77766C11.9342 8.78176 11.9161 8.76912 11.8296 8.77971H11.0934L11.1457 8.60335ZM11.3159 8.01854H12.1734L12.1119 8.2284C12.1119 8.2284 11.7076 8.2243 11.643 8.2366C11.3579 8.28753 11.1918 8.44407 11.1918 8.44407L11.3159 8.01854ZM11.9609 9.36178C11.9562 9.38319 11.9443 9.40229 11.927 9.41579C11.9099 9.42706 11.8819 9.43117 11.8402 9.43117H11.7192L11.726 9.21891H11.2222L11.2017 10.2573C11.201 10.3325 11.2082 10.3755 11.2612 10.4101C11.3145 10.4535 11.4786 10.4589 11.6997 10.4589H12.0155L12.1294 10.0703L11.8546 10.086L11.763 10.0915C11.7506 10.086 11.7387 10.0813 11.7254 10.0676C11.7137 10.0556 11.6943 10.0628 11.6973 9.98794L11.6997 9.72135L11.9879 9.70938C12.1437 9.70938 12.21 9.65709 12.2668 9.60753C12.3211 9.55968 12.3385 9.50499 12.359 9.43117L12.4076 9.19533H12.0111L11.9609 9.36178Z" fill="#FEFEFE"/>
</g>
<defs>
<clipPath id="clip0_3217_13784">
<rect width="19.1403" height="12.3045" fill="white" transform="translate(0.830078 0.820312)"/>
</clipPath>
</defs>
</svg>
