<svg width="23" height="14" viewBox="0 0 23 14" fill="none" xmlns="http://www.w3.org/2000/svg">
<g clip-path="url(#clip0_3217_13789)">
<path d="M20.7727 3.979H19.455C19.0569 3.979 18.7503 4.10136 18.5664 4.49989L16.0539 10.23H17.8312C17.8312 10.23 18.1374 9.46407 18.199 9.27985H20.3745C20.436 9.49449 20.5891 10.1993 20.5891 10.1993H22.1825L20.7727 3.97866V3.979ZM18.6891 7.993C18.8422 7.62524 19.3634 6.24645 19.3634 6.24645C19.3634 6.27721 19.5166 5.87868 19.5778 5.66438L19.7005 6.21569C19.7005 6.21569 20.0375 7.71718 20.0986 8.02376H18.6891V7.993ZM16.1769 8.17689C16.1769 9.46373 15.0124 10.3216 13.2047 10.3216C12.4388 10.3216 11.7032 10.1685 11.3047 9.98462L11.5501 8.57507L11.7644 8.66702C12.316 8.91208 12.6838 9.00402 13.3578 9.00402C13.8483 9.00402 14.3692 8.82014 14.3692 8.39119C14.3692 8.11536 14.1545 7.93148 13.4805 7.62524C12.8369 7.31865 11.979 6.82852 11.979 5.93986C11.979 4.7142 13.1739 3.88672 14.8593 3.88672C15.5029 3.88672 16.0546 4.00942 16.3916 4.16254L16.1465 5.51091L16.0238 5.38821C15.7176 5.26585 15.319 5.14314 14.737 5.14314C14.0934 5.17391 13.7868 5.44973 13.7868 5.6948C13.7868 5.97062 14.1545 6.18493 14.737 6.46075C15.7176 6.92046 16.1769 7.44169 16.1769 8.17689Z" fill="white"/>
<path d="M1.22461 4.03642L1.25537 3.91406H3.89058C4.25835 3.91406 4.53418 4.03642 4.62612 4.43495L5.20819 7.19287C4.62612 5.7218 3.27775 4.52689 1.22461 4.03642Z" fill="#F9B50B"/>
<path d="M8.91578 3.97573L6.2498 10.1963H4.44172L2.91016 4.98709C4.01346 5.69187 4.93254 6.79517 5.26954 7.56078L5.45343 8.20472L7.10804 3.94531H8.91612V3.97607L8.91578 3.97573ZM9.62055 3.94531H11.3056L10.2334 10.1967H8.54835L9.62055 3.94531Z" fill="white"/>
</g>
<defs>
<clipPath id="clip0_3217_13789">
<rect width="21.5329" height="12.3045" fill="white" transform="translate(0.988281 0.820312)"/>
</clipPath>
</defs>
</svg>
