<svg width="63" height="36" viewBox="0 0 63 36" fill="none" xmlns="http://www.w3.org/2000/svg">
<path d="M57.8924 9.24266H54.0374C52.8724 9.24266 51.9754 9.60066 51.4374 10.7667L44.0864 27.5317H49.2864C49.2864 27.5317 50.1824 25.2907 50.3624 24.7517H56.7274C56.9074 25.3797 57.3554 27.4417 57.3554 27.4417H62.0174L57.8924 9.24166V9.24266ZM51.7964 20.9867C52.2444 19.9107 53.7694 15.8767 53.7694 15.8767C53.7694 15.9667 54.2174 14.8007 54.3964 14.1737L54.7554 15.7867C54.7554 15.7867 55.7414 20.1797 55.9204 21.0767H51.7964V20.9867ZM44.4464 21.5247C44.4464 25.2897 41.0394 27.7997 35.7504 27.7997C33.5094 27.7997 31.3574 27.3517 30.1914 26.8137L30.9094 22.6897L31.5364 22.9587C33.1504 23.6757 34.2264 23.9447 36.1984 23.9447C37.6334 23.9447 39.1574 23.4067 39.1574 22.1517C39.1574 21.3447 38.5294 20.8067 36.5574 19.9107C34.6744 19.0137 32.1644 17.5797 32.1644 14.9797C32.1644 11.3937 35.6604 8.97266 40.5914 8.97266C42.4744 8.97266 44.0884 9.33166 45.0744 9.77966L44.3574 13.7247L43.9984 13.3657C43.1024 13.0077 41.9364 12.6487 40.2334 12.6487C38.3504 12.7387 37.4534 13.5457 37.4534 14.2627C37.4534 15.0697 38.5294 15.6967 40.2334 16.5037C43.1024 17.8487 44.4464 19.3737 44.4464 21.5247Z" fill="white"/>
<path d="M0.695312 9.4205L0.785313 9.0625H8.49531C9.57131 9.0625 10.3783 9.4205 10.6473 10.5865L12.3503 18.6555C10.6473 14.3515 6.70231 10.8555 0.695312 9.4205Z" fill="#F9B50B"/>
<path d="M23.198 9.24134L15.398 27.4413H10.108L5.62695 12.2003C8.85495 14.2623 11.544 17.4903 12.53 19.7303L13.068 21.6143L17.909 9.15234H23.199V9.24234L23.198 9.24134ZM25.26 9.15234H30.19L27.053 27.4423H22.123L25.26 9.15234Z" fill="white"/>
</svg>
