<svg width="24" height="24" viewBox="0 0 24 24" fill="none" xmlns="http://www.w3.org/2000/svg">
<path fill-rule="evenodd" clip-rule="evenodd" d="M7.72412 19.433L10.344 20.1287V19.2189L10.5579 19.0049H12.055V20.0752V20.8245H10.451L8.47267 19.9682L7.72412 19.433Z" fill="#CDBDB2"/>
<path fill-rule="evenodd" clip-rule="evenodd" d="M16.2789 19.433L13.7124 20.1287V19.2189L13.4986 19.0049H12.0015V20.0752V20.8245H13.6055L15.5838 19.9682L16.2789 19.433Z" fill="#CDBDB2"/>
<path fill-rule="evenodd" clip-rule="evenodd" d="M10.5576 17.4527L10.3438 19.2187L10.611 19.0047H13.3914L13.7122 19.2187L13.4983 17.4527L13.0706 17.1851L10.9318 17.2386L10.5576 17.4527Z" fill="#393939"/>
<path fill-rule="evenodd" clip-rule="evenodd" d="M9.11426 5.51807L10.3975 8.51505L10.9856 17.2384H13.0708L13.7124 8.51505L14.8887 5.51807H9.11426Z" fill="#F89C35"/>
<path fill-rule="evenodd" clip-rule="evenodd" d="M3.50001 12.1006L2.00293 16.4356L5.74562 16.2215H8.15165V14.3484L8.0447 10.4951L7.51005 10.9233L3.50001 12.1006Z" fill="#F89D35"/>
<path fill-rule="evenodd" clip-rule="evenodd" d="M6.33398 12.5825L10.7183 12.6895L10.2371 14.9373L8.15186 14.4021L6.33398 12.5825Z" fill="#D87C30"/>
<path fill-rule="evenodd" clip-rule="evenodd" d="M6.33398 12.6362L8.15186 14.3488V16.0613L6.33398 12.6362Z" fill="#EA8D3A"/>
<path fill-rule="evenodd" clip-rule="evenodd" d="M8.15186 14.4023L10.2906 14.9375L10.9856 17.2388L10.5044 17.5064L8.15186 16.1149V14.4023Z" fill="#F89D35"/>
<path fill-rule="evenodd" clip-rule="evenodd" d="M8.15187 16.1147L7.72412 19.4328L10.5579 17.4527L8.15187 16.1147Z" fill="#EB8F35"/>
<path fill-rule="evenodd" clip-rule="evenodd" d="M10.7182 12.6895L10.9856 17.2385L10.1836 14.9105L10.7182 12.6895Z" fill="#EA8E3A"/>
<path fill-rule="evenodd" clip-rule="evenodd" d="M5.69238 16.1682L8.15186 16.1147L7.72411 19.4328L5.69238 16.1682Z" fill="#D87C30"/>
<path fill-rule="evenodd" clip-rule="evenodd" d="M3.1792 20.8775L7.7239 19.4326L5.69215 16.168L2.00293 16.4356L3.1792 20.8775Z" fill="#EB8F35"/>
<path fill-rule="evenodd" clip-rule="evenodd" d="M10.3975 8.51514L8.09841 10.4418L6.33398 12.5825L10.7183 12.743L10.3975 8.51514Z" fill="#E8821E"/>
<path fill-rule="evenodd" clip-rule="evenodd" d="M7.72412 19.4328L10.5579 17.4526L10.344 19.1652V20.1285L8.41922 19.7539L7.72412 19.4328Z" fill="#DFCEC3"/>
<path fill-rule="evenodd" clip-rule="evenodd" d="M16.2788 19.4328L13.4985 17.4526L13.7124 19.1652V20.1285L15.6372 19.7539L16.2788 19.4328Z" fill="#DFCEC3"/>
<path fill-rule="evenodd" clip-rule="evenodd" d="M9.54202 13.6528L10.1301 14.8837L8.04492 14.3485L9.54202 13.6528Z" fill="#393939"/>
<path fill-rule="evenodd" clip-rule="evenodd" d="M3.12598 3.00293L10.3975 8.51524L9.16774 5.51825L3.12598 3.00293Z" fill="#E88F35"/>
<path fill-rule="evenodd" clip-rule="evenodd" d="M3.12549 3.00293L2.16309 5.94639L2.69776 9.15744L2.32349 9.37154L2.85816 9.85319L2.43042 10.2278L3.01856 10.763L2.64429 11.0841L3.49976 12.1544L7.5098 10.9235C9.47025 9.35369 10.4327 8.55089 10.397 8.51524C10.3614 8.47954 7.9375 6.64212 3.12549 3.00293Z" fill="#8E5A30"/>
<path fill-rule="evenodd" clip-rule="evenodd" d="M20.5027 12.1006L21.9998 16.4356L18.2571 16.2215H15.8511V14.3484L15.958 10.4951L16.4927 10.9233L20.5027 12.1006Z" fill="#F89D35"/>
<path fill-rule="evenodd" clip-rule="evenodd" d="M17.669 12.5825L13.2847 12.6895L13.7659 14.9373L15.8511 14.4021L17.669 12.5825Z" fill="#D87C30"/>
<path fill-rule="evenodd" clip-rule="evenodd" d="M17.6689 12.6362L15.8511 14.3488V16.0613L17.6689 12.6362Z" fill="#EA8D3A"/>
<path fill-rule="evenodd" clip-rule="evenodd" d="M15.8508 14.4023L13.7121 14.9375L13.0171 17.2388L13.4983 17.5064L15.8508 16.1149V14.4023Z" fill="#F89D35"/>
<path fill-rule="evenodd" clip-rule="evenodd" d="M15.8511 16.1147L16.2788 19.4328L13.4985 17.5062L15.8511 16.1147Z" fill="#EB8F35"/>
<path fill-rule="evenodd" clip-rule="evenodd" d="M13.2844 12.6895L13.0171 17.2385L13.8191 14.9105L13.2844 12.6895Z" fill="#EA8E3A"/>
<path fill-rule="evenodd" clip-rule="evenodd" d="M18.3105 16.1682L15.8511 16.1147L16.2788 19.4328L18.3105 16.1682Z" fill="#D87C30"/>
<path fill-rule="evenodd" clip-rule="evenodd" d="M20.8236 20.8775L16.2788 19.4326L18.3106 16.168L21.9998 16.4356L20.8236 20.8775Z" fill="#EB8F35"/>
<path fill-rule="evenodd" clip-rule="evenodd" d="M13.6055 8.51514L15.9046 10.4418L17.669 12.5825L13.2847 12.743L13.6055 8.51514Z" fill="#E8821E"/>
<path fill-rule="evenodd" clip-rule="evenodd" d="M14.4607 13.6528L13.8726 14.8837L15.9578 14.3485L14.4607 13.6528Z" fill="#393939"/>
<path fill-rule="evenodd" clip-rule="evenodd" d="M20.877 3.00293L13.6055 8.51524L14.8352 5.51825L20.877 3.00293Z" fill="#E88F35"/>
<path fill-rule="evenodd" clip-rule="evenodd" d="M20.8769 3.00293L21.8393 5.94639L21.3047 9.15744L21.6789 9.37154L21.1443 9.85319L21.572 10.2278L20.9839 10.763L21.3581 11.0841L20.5027 12.1544L16.4927 10.9235C14.5322 9.35369 13.5698 8.55089 13.6054 8.51524C13.6411 8.47954 16.0649 6.64212 20.8769 3.00293Z" fill="#8E5A30"/>
</svg>
