<svg width="24" height="24" viewBox="0 0 24 24" fill="none" xmlns="http://www.w3.org/2000/svg">
<path fill-rule="evenodd" clip-rule="evenodd" d="M7.72412 19.433L10.344 20.1287V19.2189L10.5579 19.0049H12.055V20.0752V20.8245H10.451L8.47267 19.9682L7.72412 19.433Z" fill="#CDBDB2"/>
<path fill-rule="evenodd" clip-rule="evenodd" d="M16.2789 19.433L13.7124 20.1287V19.2189L13.4986 19.0049H12.0015V20.0752V20.8245H13.6055L15.5838 19.9682L16.2789 19.433Z" fill="#CDBDB2"/>
<path fill-rule="evenodd" clip-rule="evenodd" d="M10.5576 17.4529L10.3438 19.219L10.611 19.0049H13.3914L13.7122 19.219L13.4983 17.4529L13.0706 17.1853L10.9318 17.2388L10.5576 17.4529Z" fill="#393939"/>
<path fill-rule="evenodd" clip-rule="evenodd" d="M9.11426 5.51855L10.3975 8.51554L10.9856 17.2389H13.0708L13.7124 8.51554L14.8887 5.51855H9.11426Z" fill="#F89C35"/>
<path fill-rule="evenodd" clip-rule="evenodd" d="M3.50001 12.1011L2.00293 16.4361L5.74562 16.222H8.15165V14.3489L8.0447 10.4956L7.51005 10.9238L3.50001 12.1011Z" fill="#F89D35"/>
<path fill-rule="evenodd" clip-rule="evenodd" d="M6.33398 12.5828L10.7183 12.6898L10.2371 14.9375L8.15186 14.4024L6.33398 12.5828Z" fill="#D87C30"/>
<path fill-rule="evenodd" clip-rule="evenodd" d="M6.33398 12.6362L8.15186 14.3488V16.0613L6.33398 12.6362Z" fill="#EA8D3A"/>
<path fill-rule="evenodd" clip-rule="evenodd" d="M8.15186 14.4023L10.2906 14.9375L10.9856 17.2388L10.5044 17.5064L8.15186 16.1149V14.4023Z" fill="#F89D35"/>
<path fill-rule="evenodd" clip-rule="evenodd" d="M8.15187 16.115L7.72412 19.4331L10.5579 17.4529L8.15187 16.115Z" fill="#EB8F35"/>
<path fill-rule="evenodd" clip-rule="evenodd" d="M10.7182 12.6899L10.9856 17.2389L10.1836 14.9109L10.7182 12.6899Z" fill="#EA8E3A"/>
<path fill-rule="evenodd" clip-rule="evenodd" d="M5.69238 16.1685L8.15186 16.115L7.72411 19.4331L5.69238 16.1685Z" fill="#D87C30"/>
<path fill-rule="evenodd" clip-rule="evenodd" d="M3.1792 20.878L7.7239 19.4331L5.69215 16.1685L2.00293 16.4361L3.1792 20.878Z" fill="#EB8F35"/>
<path fill-rule="evenodd" clip-rule="evenodd" d="M10.3975 8.51538L8.09841 10.442L6.33398 12.5827L10.7183 12.7433L10.3975 8.51538Z" fill="#E8821E"/>
<path fill-rule="evenodd" clip-rule="evenodd" d="M7.72412 19.433L10.5579 17.4529L10.344 19.1654V20.1287L8.41922 19.7541L7.72412 19.433Z" fill="#DFCEC3"/>
<path fill-rule="evenodd" clip-rule="evenodd" d="M16.2788 19.433L13.4985 17.4529L13.7124 19.1654V20.1287L15.6372 19.7541L16.2788 19.433Z" fill="#DFCEC3"/>
<path fill-rule="evenodd" clip-rule="evenodd" d="M9.54202 13.6531L10.1301 14.884L8.04492 14.3488L9.54202 13.6531Z" fill="#393939"/>
<path fill-rule="evenodd" clip-rule="evenodd" d="M3.12598 3.00317L10.3975 8.51548L9.16774 5.5185L3.12598 3.00317Z" fill="#E88F35"/>
<path fill-rule="evenodd" clip-rule="evenodd" d="M3.12549 3.00317L2.16309 5.94664L2.69776 9.15768L2.32349 9.37178L2.85816 9.85343L2.43042 10.228L3.01856 10.7632L2.64429 11.0843L3.49976 12.1547L7.5098 10.9238C9.47025 9.35393 10.4327 8.55113 10.397 8.51548C10.3614 8.47978 7.9375 6.64237 3.12549 3.00317Z" fill="#8E5A30"/>
<path fill-rule="evenodd" clip-rule="evenodd" d="M20.5027 12.1011L21.9998 16.4361L18.2571 16.222H15.8511V14.3489L15.958 10.4956L16.4927 10.9238L20.5027 12.1011Z" fill="#F89D35"/>
<path fill-rule="evenodd" clip-rule="evenodd" d="M17.669 12.5828L13.2847 12.6898L13.7659 14.9375L15.8511 14.4024L17.669 12.5828Z" fill="#D87C30"/>
<path fill-rule="evenodd" clip-rule="evenodd" d="M17.6689 12.6362L15.8511 14.3488V16.0613L17.6689 12.6362Z" fill="#EA8D3A"/>
<path fill-rule="evenodd" clip-rule="evenodd" d="M15.8508 14.4023L13.7121 14.9375L13.0171 17.2388L13.4983 17.5064L15.8508 16.1149V14.4023Z" fill="#F89D35"/>
<path fill-rule="evenodd" clip-rule="evenodd" d="M15.8511 16.115L16.2788 19.4331L13.4985 17.5064L15.8511 16.115Z" fill="#EB8F35"/>
<path fill-rule="evenodd" clip-rule="evenodd" d="M13.2844 12.6899L13.0171 17.2389L13.8191 14.9109L13.2844 12.6899Z" fill="#EA8E3A"/>
<path fill-rule="evenodd" clip-rule="evenodd" d="M18.3105 16.1685L15.8511 16.115L16.2788 19.4331L18.3105 16.1685Z" fill="#D87C30"/>
<path fill-rule="evenodd" clip-rule="evenodd" d="M20.8236 20.878L16.2788 19.4331L18.3106 16.1685L21.9998 16.4361L20.8236 20.878Z" fill="#EB8F35"/>
<path fill-rule="evenodd" clip-rule="evenodd" d="M13.6055 8.51538L15.9046 10.442L17.669 12.5827L13.2847 12.7433L13.6055 8.51538Z" fill="#E8821E"/>
<path fill-rule="evenodd" clip-rule="evenodd" d="M14.4607 13.6531L13.8726 14.884L15.9578 14.3488L14.4607 13.6531Z" fill="#393939"/>
<path fill-rule="evenodd" clip-rule="evenodd" d="M20.877 3.00317L13.6055 8.51548L14.8352 5.5185L20.877 3.00317Z" fill="#E88F35"/>
<path fill-rule="evenodd" clip-rule="evenodd" d="M20.8769 3.00317L21.8393 5.94664L21.3047 9.15768L21.6789 9.37178L21.1443 9.85343L21.572 10.228L20.9839 10.7632L21.3581 11.0843L20.5027 12.1547L16.4927 10.9238C14.5322 9.35393 13.5698 8.55113 13.6054 8.51548C13.6411 8.47978 16.0649 6.64237 20.8769 3.00317Z" fill="#8E5A30"/>
</svg>
