<svg width="24" height="24" viewBox="0 0 24 24" fill="none" xmlns="http://www.w3.org/2000/svg">
<path fill-rule="evenodd" clip-rule="evenodd" d="M7.72388 19.433L10.3438 20.1287V19.2189L10.5576 19.0049H12.0547V20.0752V20.8245H10.4507L8.47243 19.9682L7.72388 19.433Z" fill="#CDBDB2"/>
<path fill-rule="evenodd" clip-rule="evenodd" d="M16.2786 19.433L13.7122 20.1287V19.2189L13.4983 19.0049H12.0012V20.0752V20.8245H13.6053L15.5835 19.9682L16.2786 19.433Z" fill="#CDBDB2"/>
<path fill-rule="evenodd" clip-rule="evenodd" d="M10.5576 17.4529L10.3438 19.219L10.611 19.0049H13.3914L13.7122 19.219L13.4983 17.4529L13.0706 17.1853L10.9318 17.2388L10.5576 17.4529Z" fill="#393939"/>
<path fill-rule="evenodd" clip-rule="evenodd" d="M9.11401 5.51855L10.3972 8.51554L10.9854 17.2389H13.0706L13.7122 8.51554L14.8885 5.51855H9.11401Z" fill="#F89C35"/>
<path fill-rule="evenodd" clip-rule="evenodd" d="M3.50001 12.1011L2.00293 16.4361L5.74562 16.222H8.15165V14.3489L8.0447 10.4956L7.51005 10.9238L3.50001 12.1011Z" fill="#F89D35"/>
<path fill-rule="evenodd" clip-rule="evenodd" d="M6.33374 12.5828L10.718 12.6898L10.2368 14.9375L8.15162 14.4024L6.33374 12.5828Z" fill="#D87C30"/>
<path fill-rule="evenodd" clip-rule="evenodd" d="M6.33374 12.6362L8.15162 14.3488V16.0613L6.33374 12.6362Z" fill="#EA8D3A"/>
<path fill-rule="evenodd" clip-rule="evenodd" d="M8.15161 14.4023L10.2903 14.9375L10.9854 17.2388L10.5042 17.5064L8.15161 16.1149V14.4023Z" fill="#F89D35"/>
<path fill-rule="evenodd" clip-rule="evenodd" d="M8.15163 16.115L7.72388 19.4331L10.5576 17.4529L8.15163 16.115Z" fill="#EB8F35"/>
<path fill-rule="evenodd" clip-rule="evenodd" d="M10.718 12.6898L10.9853 17.2388L10.1833 14.9108L10.718 12.6898Z" fill="#EA8E3A"/>
<path fill-rule="evenodd" clip-rule="evenodd" d="M5.69214 16.1685L8.15162 16.115L7.72387 19.4331L5.69214 16.1685Z" fill="#D87C30"/>
<path fill-rule="evenodd" clip-rule="evenodd" d="M3.1792 20.878L7.7239 19.4331L5.69215 16.1685L2.00293 16.4361L3.1792 20.878Z" fill="#EB8F35"/>
<path fill-rule="evenodd" clip-rule="evenodd" d="M10.3972 8.51538L8.09817 10.442L6.33374 12.5827L10.718 12.7433L10.3972 8.51538Z" fill="#E8821E"/>
<path fill-rule="evenodd" clip-rule="evenodd" d="M7.72388 19.433L10.5576 17.4529L10.3438 19.1654V20.1287L8.41898 19.7541L7.72388 19.433Z" fill="#DFCEC3"/>
<path fill-rule="evenodd" clip-rule="evenodd" d="M16.2786 19.433L13.4983 17.4529L13.7121 19.1654V20.1287L15.637 19.7541L16.2786 19.433Z" fill="#DFCEC3"/>
<path fill-rule="evenodd" clip-rule="evenodd" d="M9.54178 13.6531L10.1299 14.884L8.04468 14.3488L9.54178 13.6531Z" fill="#393939"/>
<path fill-rule="evenodd" clip-rule="evenodd" d="M3.12573 3.00317L10.3972 8.51548L9.1675 5.5185L3.12573 3.00317Z" fill="#E88F35"/>
<path fill-rule="evenodd" clip-rule="evenodd" d="M3.12574 3.00317L2.16333 5.94664L2.698 9.15768L2.32373 9.37178L2.8584 9.85343L2.43067 10.228L3.0188 10.7632L2.64453 11.0843L3.50001 12.1547L7.51005 10.9238C9.4705 9.35393 10.4329 8.55113 10.3972 8.51548C10.3616 8.47978 7.93775 6.64237 3.12574 3.00317Z" fill="#8E5A30"/>
<path fill-rule="evenodd" clip-rule="evenodd" d="M20.5027 12.1011L21.9998 16.4361L18.2571 16.222H15.8511V14.3489L15.958 10.4956L16.4927 10.9238L20.5027 12.1011Z" fill="#F89D35"/>
<path fill-rule="evenodd" clip-rule="evenodd" d="M17.6687 12.5828L13.2844 12.6898L13.7656 14.9375L15.8509 14.4024L17.6687 12.5828Z" fill="#D87C30"/>
<path fill-rule="evenodd" clip-rule="evenodd" d="M17.6689 12.6362L15.8511 14.3488V16.0613L17.6689 12.6362Z" fill="#EA8D3A"/>
<path fill-rule="evenodd" clip-rule="evenodd" d="M15.8508 14.4023L13.7121 14.9375L13.0171 17.2388L13.4983 17.5064L15.8508 16.1149V14.4023Z" fill="#F89D35"/>
<path fill-rule="evenodd" clip-rule="evenodd" d="M15.8508 16.115L16.2786 19.4331L13.4983 17.5064L15.8508 16.115Z" fill="#EB8F35"/>
<path fill-rule="evenodd" clip-rule="evenodd" d="M13.2844 12.6898L13.0171 17.2388L13.8191 14.9108L13.2844 12.6898Z" fill="#EA8E3A"/>
<path fill-rule="evenodd" clip-rule="evenodd" d="M18.3105 16.1685L15.8511 16.115L16.2788 19.4331L18.3105 16.1685Z" fill="#D87C30"/>
<path fill-rule="evenodd" clip-rule="evenodd" d="M20.8233 20.878L16.2786 19.4331L18.3103 16.1685L21.9996 16.4361L20.8233 20.878Z" fill="#EB8F35"/>
<path fill-rule="evenodd" clip-rule="evenodd" d="M13.6052 8.51538L15.9043 10.442L17.6687 12.5827L13.2844 12.7433L13.6052 8.51538Z" fill="#E8821E"/>
<path fill-rule="evenodd" clip-rule="evenodd" d="M14.4607 13.6531L13.8726 14.884L15.9578 14.3488L14.4607 13.6531Z" fill="#393939"/>
<path fill-rule="evenodd" clip-rule="evenodd" d="M20.877 3.00317L13.6055 8.51548L14.8352 5.5185L20.877 3.00317Z" fill="#E88F35"/>
<path fill-rule="evenodd" clip-rule="evenodd" d="M20.8767 3.00317L21.8391 5.94664L21.3045 9.15768L21.6787 9.37178L21.1441 9.85343L21.5718 10.228L20.9837 10.7632L21.3579 11.0843L20.5025 12.1547L16.4925 10.9238C14.532 9.35393 13.5696 8.55113 13.6052 8.51548C13.6409 8.47978 16.0647 6.64237 20.8767 3.00317Z" fill="#8E5A30"/>
</svg>
