<svg width="40" height="40" viewBox="0 0 40 40" fill="none" xmlns="http://www.w3.org/2000/svg">
<g clip-path="url(#clip0_165_13560)">
<path d="M20 40C31.0457 40 40 31.0457 40 20C40 8.95431 31.0457 0 20 0C8.95431 0 0 8.95431 0 20C0 31.0457 8.95431 40 20 40Z" fill="#006BFF"/>
<path fill-rule="evenodd" clip-rule="evenodd" d="M20 15.6258C17.5212 15.6258 15.6105 17.0365 14.5453 18.0245C14.3866 18.1717 14.1407 18.1719 13.9867 18.0197L12.3148 16.3677C12.1567 16.2116 12.1553 15.956 12.3172 15.804C13.5913 14.6077 16.2777 12.5 20 12.5C23.7223 12.5 26.4087 14.6077 27.6828 15.804C27.8447 15.956 27.8433 16.2116 27.6852 16.3677L26.0133 18.0197C25.8593 18.1719 25.6134 18.1717 25.4547 18.0245C24.3895 17.0365 22.4788 15.6258 20 15.6258ZM7.63106 21.2169C7.46645 21.0679 7.45536 20.812 7.60652 20.6492L9.20386 18.9274C9.35113 18.7686 9.5977 18.7579 9.75811 18.9032L14.4747 23.175C14.6243 23.3105 14.851 23.3116 15.0018 23.1775L19.7378 18.9659C19.8876 18.8328 20.1124 18.8328 20.2622 18.9659L24.9982 23.1775C25.149 23.3116 25.3757 23.3105 25.5253 23.175L30.2419 18.9032C30.4023 18.7579 30.6489 18.7686 30.7961 18.9274L32.3935 20.6492C32.5446 20.812 32.5336 21.0679 32.3689 21.2169L25.5448 27.3977C25.3953 27.5332 25.1685 27.5342 25.0178 27.4001L20.2622 23.1712C20.1124 23.0381 19.8876 23.0381 19.7378 23.1712L14.9822 27.4001C14.8315 27.5342 14.6047 27.5332 14.4552 27.3977L7.63106 21.2169Z" fill="white"/>
</g>
<defs>
<clipPath id="clip0_165_13560">
<rect width="40" height="40" fill="white"/>
</clipPath>
</defs>
</svg>
