<svg width="86" height="36" viewBox="0 0 86 36" fill="none" xmlns="http://www.w3.org/2000/svg">
<g clip-path="url(#clip0_3207_16899)">
<path d="M71.023 35.233C74.951 35.233 76.8 33.727 78.416 29.16L85.49 9.21403H81.394L76.65 24.645H76.566L71.821 9.23503H67.61L74.436 28.219L74.07 29.374C73.9475 30.1698 73.5301 30.8903 72.9007 31.3924C72.2713 31.8945 71.4761 32.1414 70.673 32.084C70.356 32.084 69.741 32.051 69.492 32.018V35.153C69.999 35.223 70.512 35.256 71.024 35.254V35.234L71.023 35.233ZM57.37 25.244C55.221 25.244 53.857 24.199 53.857 22.618C53.857 20.979 55.173 20.025 57.687 19.873L62.165 19.589V21.063C62.066 23.49 60.027 25.38 57.611 25.281C57.5305 25.2772 57.4502 25.2715 57.37 25.264V25.244ZM56.289 28.339C57.4878 28.3706 58.6729 28.0779 59.7191 27.4918C60.7654 26.9057 61.6339 26.0479 62.233 25.009H62.316V28.144H66.046V15.16C66.046 11.394 63.049 8.96803 58.436 8.96803C54.157 8.96803 50.992 11.428 50.876 14.808H54.507C54.7139 13.9787 55.2141 13.2524 55.915 12.7632C56.6159 12.274 57.4702 12.0552 58.32 12.147C60.784 12.147 62.165 13.301 62.165 15.427V16.865L57.139 17.166C52.46 17.45 49.93 19.375 49.93 22.722C49.927 26.117 52.54 28.359 56.287 28.359L56.289 28.339ZM34.676 5.46503H39.321C42.818 5.46503 44.816 7.34003 44.816 10.637C44.816 13.934 42.818 15.824 39.306 15.824H34.676V5.46503ZM30.647 2.05203V28.139H34.677V19.246H40.255C44.799 19.491 48.679 15.989 48.923 11.422C48.937 11.162 48.939 10.905 48.928 10.645C49.143 6.12903 45.676 2.29403 41.182 2.07603C40.9174 2.06449 40.6525 2.06516 40.388 2.07803L30.648 2.05203H30.647ZM17.274 6.91903C14.958 6.78503 12.977 8.24103 11.879 8.24103C10.78 8.24103 9.08199 6.98703 7.24899 7.02103C6.05496 7.0531 4.89018 7.39757 3.87076 8.0201C2.85135 8.64263 2.0129 9.52147 1.43899 10.569C-1.05801 14.887 0.788993 21.279 3.20299 24.792C4.38499 26.534 5.80299 28.442 7.66599 28.373C9.42999 28.307 10.13 27.219 12.262 27.219C14.393 27.219 15.026 28.373 16.89 28.339C18.821 28.305 20.038 26.597 21.223 24.855C22.0582 23.621 22.7084 22.2713 23.153 20.849C22.0374 20.3571 21.0884 19.5523 20.4207 18.5322C19.7531 17.512 19.3954 16.3202 19.391 15.101C19.4066 14.0197 19.6939 12.9596 20.2263 12.0183C20.7587 11.0769 21.5193 10.2846 22.438 9.71403C21.8538 8.87824 21.0837 8.18943 20.1881 7.70182C19.2925 7.21421 18.296 6.94112 17.277 6.90403L17.274 6.91903ZM15.828 4.61403C15.3294 5.24669 14.6914 5.75557 13.9637 6.10094C13.236 6.44631 12.4384 6.61883 11.633 6.60503C11.5815 5.8143 11.6875 5.02121 11.9448 4.27175C12.2021 3.52229 12.6056 2.83136 13.132 2.23903C14.186 1.0082 15.6768 0.234823 17.29 0.0820312C17.4051 1.72414 16.8797 3.34701 15.824 4.61003" fill="white"/>
</g>
<defs>
<clipPath id="clip0_3207_16899">
<rect width="86" height="36" fill="white"/>
</clipPath>
</defs>
</svg>
