<svg width="35" height="40" viewBox="0 0 35 40" fill="none" xmlns="http://www.w3.org/2000/svg">
<path fill-rule="evenodd" clip-rule="evenodd" d="M32.6277 9.57563L33.5461 7.27813C33.5461 7.27813 32.3773 6.00125 30.9581 4.55438C29.5395 3.1075 26.5346 3.95875 26.5346 3.95875L23.1128 0H11.0938L7.67199 3.95875C7.67199 3.95875 4.6671 3.1075 3.24852 4.55438C1.82934 6.00125 0.661177 7.27813 0.661177 7.27813L1.57954 9.57563L0.410156 12.98C0.410156 12.98 3.8473 26.2525 4.25016 27.8737C5.04301 31.065 5.58546 32.2987 7.83914 33.9162C10.0922 35.5331 14.182 38.3413 14.8493 38.7675C15.5173 39.1925 16.3524 39.9175 17.1036 39.9175C17.8549 39.9175 18.6893 39.1925 19.3567 38.7675C20.0246 38.3419 24.1138 35.5331 26.3681 33.9162C28.6212 32.2994 29.1642 31.065 29.9571 27.8737C30.3593 26.2525 33.7959 12.98 33.7959 12.98L32.6277 9.57563Z" fill="url(#paint0_linear_165_13577)"/>
<path fill-rule="evenodd" clip-rule="evenodd" d="M21.3599 7.1925C21.8607 7.1925 25.5752 6.46937 25.5752 6.46937C25.5752 6.46937 29.9766 11.8944 29.9766 13.0544C29.9766 14.0131 29.5976 14.3881 29.1519 14.8306C29.0588 14.9231 28.9621 15.0181 28.866 15.1231L25.566 18.6962C25.5306 18.7342 25.4946 18.7717 25.4582 18.8087C25.1288 19.1462 24.6439 19.6437 24.9856 20.47L25.056 20.6381C25.4313 21.5331 25.8948 22.6381 25.3052 23.7569C24.6776 24.9481 23.6031 25.7431 22.9143 25.6112C22.2262 25.48 20.6086 24.6181 20.0141 24.225C19.4197 23.8312 17.5345 22.2462 17.5345 21.6394C17.5345 21.1337 18.8901 20.2925 19.5488 19.8831C19.6799 19.8019 19.7833 19.7381 19.8427 19.6969C19.9107 19.65 20.0245 19.5781 20.1648 19.4894C20.7654 19.1081 21.8509 18.4206 21.8784 18.1162C21.9121 17.74 21.8992 17.63 21.4143 16.7012C21.3115 16.5037 21.1909 16.2925 21.0666 16.0737C20.605 15.2644 20.0882 14.3581 20.2033 13.7087C20.3319 12.9756 21.4584 12.5556 22.4123 12.1994C22.5311 12.1556 22.648 12.1119 22.7594 12.0687L23.7531 11.6881C24.7058 11.3244 25.7637 10.92 25.9388 10.8381C26.1801 10.725 26.1176 10.6162 25.386 10.5456C25.2675 10.5338 25.1492 10.5213 25.0309 10.5081C24.1248 10.41 22.4539 10.2294 21.6421 10.46C21.4823 10.5056 21.3035 10.555 21.1156 10.6069C20.2033 10.8587 19.0848 11.1675 18.977 11.3456C18.9586 11.3769 18.9403 11.4037 18.9225 11.4287C18.8197 11.5775 18.7529 11.675 18.8668 12.3075C18.9005 12.4962 18.9703 12.8669 19.0566 13.3256C19.3076 14.6681 19.7013 16.7619 19.7509 17.2319C19.7576 17.2981 19.7656 17.3612 19.7729 17.4225C19.836 17.9475 19.8776 18.2969 19.2801 18.4362L19.1239 18.4725C18.4492 18.63 17.4605 18.8619 17.1035 18.8619C16.746 18.8619 15.7566 18.6306 15.0819 18.4725L14.9264 18.4362C14.3288 18.2969 14.3711 17.9475 14.4341 17.4225C14.4415 17.3612 14.4488 17.2975 14.4556 17.2319C14.5052 16.7612 14.8994 14.6619 15.1517 13.32C15.2374 12.8637 15.3066 12.495 15.3403 12.3075C15.4535 11.675 15.3868 11.5775 15.2839 11.4287C15.265 11.4014 15.2466 11.3737 15.2288 11.3456C15.1223 11.1675 14.0043 10.8587 13.0915 10.6069C12.9035 10.555 12.7241 10.5056 12.565 10.46C11.7525 10.2287 10.0823 10.41 9.17618 10.5081C9.03782 10.5231 8.91782 10.5362 8.82108 10.5456C8.08884 10.6162 8.027 10.725 8.26822 10.8381C8.44271 10.92 9.50067 11.3244 10.4527 11.6881C10.8182 11.8275 11.169 11.9612 11.447 12.0687C11.559 12.1119 11.6754 12.155 11.7948 12.2C12.7486 12.5562 13.8752 12.9756 14.0037 13.7087C14.1182 14.3581 13.6015 15.2644 13.1405 16.0737C13.0156 16.2925 12.8956 16.5037 12.7921 16.7012C12.3078 17.63 12.295 17.74 12.3286 18.1162C12.3556 18.4212 13.4405 19.1081 14.0417 19.4894C14.1819 19.5781 14.2958 19.65 14.3637 19.6969C14.4237 19.7381 14.5266 19.8019 14.6576 19.8831C15.3164 20.2919 16.6719 21.1331 16.6719 21.6394C16.6719 22.2456 14.7874 23.8312 14.1923 24.225C13.5984 24.6187 11.9809 25.48 11.2921 25.6112C10.6039 25.7425 9.52884 24.9481 8.9019 23.7575C8.3123 22.6381 8.77516 21.5331 9.15047 20.6387L9.22088 20.47C9.56312 19.6437 9.07822 19.1462 8.74822 18.8087C8.71202 18.7717 8.6763 18.7342 8.64108 18.6962L5.34108 15.1231C5.24435 15.0187 5.14761 14.9231 5.05455 14.8306C4.60884 14.3887 4.23047 14.0131 4.23047 13.0544C4.23047 11.895 8.6319 6.46937 8.6319 6.46937C8.6319 6.46937 12.3458 7.1925 12.8466 7.1925C13.2464 7.1925 14.0178 6.92187 14.8223 6.63937C15.0262 6.56812 15.2319 6.49562 15.4345 6.42687C16.4356 6.08625 17.1035 6.08375 17.1035 6.08375C17.1035 6.08375 17.7709 6.08625 18.7725 6.42687C18.9745 6.49562 19.1809 6.56812 19.3848 6.63937C20.1886 6.92187 20.9607 7.1925 21.3599 7.1925ZM20.7225 26.3837C21.5074 26.7962 22.0645 27.0887 22.2752 27.2231C22.5476 27.3969 22.3817 27.725 22.1331 27.9044C21.8852 28.0825 18.5497 30.7162 18.2264 31.0075L18.0948 31.1269C17.7831 31.4137 17.3852 31.7794 17.1029 31.7794C16.8213 31.7794 16.4233 31.4131 16.1111 31.1269L15.9807 31.0075C15.6562 30.7162 12.3213 28.0825 12.0733 27.9037C11.8254 27.725 11.6588 27.3975 11.9313 27.2225C12.1419 27.0887 12.6997 26.7956 13.4858 26.3825L14.2327 25.9894C15.4082 25.3694 16.8745 24.8412 17.1035 24.8412C17.3319 24.8412 18.7976 25.3687 19.9743 25.9894C20.2413 26.1306 20.4917 26.2631 20.7225 26.3837Z" fill="white"/>
<path fill-rule="evenodd" clip-rule="evenodd" d="M26.5347 3.95875L23.1128 0H11.0938L7.672 3.95875C7.672 3.95875 4.66711 3.1075 3.24854 4.55438C3.24854 4.55438 7.25506 4.18563 8.632 6.46937C8.632 6.46937 12.3459 7.1925 12.8467 7.1925C13.3475 7.1925 14.4324 6.7675 15.434 6.42688C16.4357 6.08625 17.1036 6.08375 17.1036 6.08375C17.1036 6.08375 17.771 6.08625 18.7726 6.42688C19.7742 6.7675 20.8591 7.1925 21.36 7.1925C21.8608 7.1925 25.5753 6.46937 25.5753 6.46937C26.9522 4.18563 30.9581 4.55438 30.9581 4.55438C29.5396 3.1075 26.5347 3.95875 26.5347 3.95875Z" fill="url(#paint1_linear_165_13577)"/>
<defs>
<linearGradient id="paint0_linear_165_13577" x1="0.410768" y1="40.1994" x2="33.7959" y2="40.1994" gradientUnits="userSpaceOnUse">
<stop stop-color="#FF5500"/>
<stop offset="0.41" stop-color="#FF5500"/>
<stop offset="0.582" stop-color="#FF2000"/>
<stop offset="1" stop-color="#FF2000"/>
</linearGradient>
<linearGradient id="paint1_linear_165_13577" x1="3.84364" y1="7.16625" x2="30.9581" y2="7.16625" gradientUnits="userSpaceOnUse">
<stop stop-color="#FF452A"/>
<stop offset="1" stop-color="#FF2000"/>
</linearGradient>
</defs>
</svg>
