<svg width="35" height="40" viewBox="0 0 35 40" fill="none" xmlns="http://www.w3.org/2000/svg">
<path fill-rule="evenodd" clip-rule="evenodd" d="M32.6277 9.57563L33.5461 7.27813C33.5461 7.27813 32.3773 6.00125 30.9581 4.55438C29.5395 3.1075 26.5346 3.95875 26.5346 3.95875L23.1128 0H11.0938L7.67199 3.95875C7.67199 3.95875 4.6671 3.1075 3.24852 4.55438C1.82934 6.00125 0.661177 7.27813 0.661177 7.27813L1.57954 9.57563L0.410156 12.98C0.410156 12.98 3.8473 26.2525 4.25016 27.8737C5.04301 31.065 5.58546 32.2987 7.83914 33.9162C10.0922 35.5331 14.182 38.3413 14.8493 38.7675C15.5173 39.1925 16.3524 39.9175 17.1036 39.9175C17.8549 39.9175 18.6893 39.1925 19.3567 38.7675C20.0246 38.3419 24.1138 35.5331 26.3681 33.9162C28.6212 32.2994 29.1642 31.065 29.9571 27.8737C30.3593 26.2525 33.7959 12.98 33.7959 12.98L32.6277 9.57563Z" fill="url(#paint0_linear_587_8143)"/>
<path fill-rule="evenodd" clip-rule="evenodd" d="M21.3599 7.19273C21.8607 7.19273 25.5752 6.46961 25.5752 6.46961C25.5752 6.46961 29.9766 11.8946 29.9766 13.0546C29.9766 14.0134 29.5976 14.3884 29.1519 14.8309C29.0588 14.9234 28.9621 15.0184 28.866 15.1234L25.566 18.6965C25.5306 18.7345 25.4946 18.772 25.4582 18.809C25.1288 19.1465 24.6439 19.644 24.9856 20.4702L25.056 20.6384C25.4313 21.5334 25.8948 22.6384 25.3052 23.7571C24.6776 24.9484 23.6031 25.7434 22.9143 25.6115C22.2262 25.4802 20.6086 24.6184 20.0141 24.2252C19.4197 23.8315 17.5345 22.2465 17.5345 21.6396C17.5345 21.134 18.8901 20.2927 19.5488 19.8834C19.6799 19.8021 19.7833 19.7384 19.8427 19.6971C19.9107 19.6502 20.0245 19.5784 20.1648 19.4896C20.7654 19.1084 21.8509 18.4209 21.8784 18.1165C21.9121 17.7402 21.8992 17.6302 21.4143 16.7015C21.3115 16.504 21.1909 16.2927 21.0666 16.074C20.605 15.2646 20.0882 14.3584 20.2033 13.709C20.3319 12.9759 21.4584 12.5559 22.4123 12.1996C22.5311 12.1559 22.648 12.1121 22.7594 12.069L23.7531 11.6884C24.7058 11.3246 25.7637 10.9202 25.9388 10.8384C26.1801 10.7252 26.1176 10.6165 25.386 10.5459C25.2675 10.534 25.1492 10.5215 25.0309 10.5084C24.1248 10.4102 22.4539 10.2296 21.6421 10.4602C21.4823 10.5059 21.3035 10.5552 21.1156 10.6071C20.2033 10.859 19.0848 11.1677 18.977 11.3459C18.9586 11.3771 18.9403 11.404 18.9225 11.429C18.8197 11.5777 18.7529 11.6752 18.8668 12.3077C18.9005 12.4965 18.9703 12.8671 19.0566 13.3259C19.3076 14.6684 19.7013 16.7621 19.7509 17.2321C19.7576 17.2984 19.7656 17.3615 19.7729 17.4227C19.836 17.9477 19.8776 18.2971 19.2801 18.4365L19.1239 18.4727C18.4492 18.6302 17.4605 18.8621 17.1035 18.8621C16.746 18.8621 15.7566 18.6309 15.0819 18.4727L14.9264 18.4365C14.3288 18.2971 14.3711 17.9477 14.4341 17.4227C14.4415 17.3615 14.4488 17.2977 14.4556 17.2321C14.5052 16.7615 14.8994 14.6621 15.1517 13.3202C15.2374 12.864 15.3066 12.4952 15.3403 12.3077C15.4535 11.6752 15.3868 11.5777 15.2839 11.429C15.265 11.4017 15.2466 11.374 15.2288 11.3459C15.1223 11.1677 14.0043 10.859 13.0915 10.6071C12.9035 10.5552 12.7241 10.5059 12.565 10.4602C11.7525 10.229 10.0823 10.4102 9.17618 10.5084C9.03782 10.5234 8.91782 10.5365 8.82108 10.5459C8.08884 10.6165 8.027 10.7252 8.26822 10.8384C8.44271 10.9202 9.50067 11.3246 10.4527 11.6884C10.8182 11.8277 11.169 11.9615 11.447 12.069C11.559 12.1121 11.6754 12.1552 11.7948 12.2002C12.7486 12.5565 13.8752 12.9759 14.0037 13.709C14.1182 14.3584 13.6015 15.2646 13.1405 16.074C13.0156 16.2927 12.8956 16.504 12.7921 16.7015C12.3078 17.6302 12.295 17.7402 12.3286 18.1165C12.3556 18.4215 13.4405 19.1084 14.0417 19.4896C14.1819 19.5784 14.2958 19.6502 14.3637 19.6971C14.4237 19.7384 14.5266 19.8021 14.6576 19.8834C15.3164 20.2921 16.6719 21.1334 16.6719 21.6396C16.6719 22.2459 14.7874 23.8315 14.1923 24.2252C13.5984 24.619 11.9809 25.4802 11.2921 25.6115C10.6039 25.7427 9.52884 24.9484 8.9019 23.7577C8.3123 22.6384 8.77516 21.5334 9.15047 20.639L9.22088 20.4702C9.56312 19.644 9.07822 19.1465 8.74822 18.809C8.71202 18.772 8.6763 18.7345 8.64108 18.6965L5.34108 15.1234C5.24435 15.019 5.14761 14.9234 5.05455 14.8309C4.60884 14.389 4.23047 14.0134 4.23047 13.0546C4.23047 11.8952 8.6319 6.46961 8.6319 6.46961C8.6319 6.46961 12.3458 7.19273 12.8466 7.19273C13.2464 7.19273 14.0178 6.92211 14.8223 6.63961C15.0262 6.56836 15.2319 6.49586 15.4345 6.42711C16.4356 6.08648 17.1035 6.08398 17.1035 6.08398C17.1035 6.08398 17.7709 6.08648 18.7725 6.42711C18.9745 6.49586 19.1809 6.56836 19.3848 6.63961C20.1886 6.92211 20.9607 7.19273 21.3599 7.19273ZM20.7225 26.384C21.5074 26.7965 22.0645 27.089 22.2752 27.2234C22.5476 27.3971 22.3817 27.7252 22.1331 27.9046C21.8852 28.0827 18.5497 30.7165 18.2264 31.0077L18.0948 31.1271C17.7831 31.414 17.3852 31.7796 17.1029 31.7796C16.8213 31.7796 16.4233 31.4134 16.1111 31.1271L15.9807 31.0077C15.6562 30.7165 12.3213 28.0827 12.0733 27.904C11.8254 27.7252 11.6588 27.3977 11.9313 27.2227C12.1419 27.089 12.6997 26.7959 13.4858 26.3827L14.2327 25.9896C15.4082 25.3696 16.8745 24.8415 17.1035 24.8415C17.3319 24.8415 18.7976 25.369 19.9743 25.9896C20.2413 26.1309 20.4917 26.2634 20.7225 26.384Z" fill="white"/>
<path fill-rule="evenodd" clip-rule="evenodd" d="M26.5347 3.95875L23.1128 0H11.0938L7.672 3.95875C7.672 3.95875 4.66711 3.1075 3.24854 4.55438C3.24854 4.55438 7.25506 4.18563 8.632 6.46937C8.632 6.46937 12.3459 7.1925 12.8467 7.1925C13.3475 7.1925 14.4324 6.7675 15.434 6.42688C16.4357 6.08625 17.1036 6.08375 17.1036 6.08375C17.1036 6.08375 17.771 6.08625 18.7726 6.42688C19.7742 6.7675 20.8591 7.1925 21.36 7.1925C21.8608 7.1925 25.5753 6.46937 25.5753 6.46937C26.9522 4.18563 30.9581 4.55438 30.9581 4.55438C29.5396 3.1075 26.5347 3.95875 26.5347 3.95875Z" fill="url(#paint1_linear_587_8143)"/>
<defs>
<linearGradient id="paint0_linear_587_8143" x1="0.410768" y1="40.1994" x2="33.7959" y2="40.1994" gradientUnits="userSpaceOnUse">
<stop stop-color="#FF5500"/>
<stop offset="0.41" stop-color="#FF5500"/>
<stop offset="0.582" stop-color="#FF2000"/>
<stop offset="1" stop-color="#FF2000"/>
</linearGradient>
<linearGradient id="paint1_linear_587_8143" x1="3.84364" y1="7.16625" x2="30.9581" y2="7.16625" gradientUnits="userSpaceOnUse">
<stop stop-color="#FF452A"/>
<stop offset="1" stop-color="#FF2000"/>
</linearGradient>
</defs>
</svg>
