<svg width="9" height="10" viewBox="0 0 9 10" fill="none" xmlns="http://www.w3.org/2000/svg">
<g clip-path="url(#clip0_3217_13888)">
<mask id="mask0_3217_13888" style="mask-type:luminance" maskUnits="userSpaceOnUse" x="0" y="0" width="9" height="10">
<path d="M8.34948 0.890625H0.146484V9.09362H8.34948V0.890625Z" fill="white"/>
</mask>
<g mask="url(#mask0_3217_13888)">
<path d="M4.24798 9.09362C6.51318 9.09362 8.34948 7.25732 8.34948 4.99212C8.34948 2.72693 6.51318 0.890625 4.24798 0.890625C1.98279 0.890625 0.146484 2.72693 0.146484 4.99212C0.146484 7.25732 1.98279 9.09362 4.24798 9.09362Z" fill="#5865F2"/>
<path d="M6.20694 3.04921C5.84187 2.87841 5.45155 2.75428 5.04345 2.68359C4.99334 2.77421 4.93476 2.89608 4.89439 2.99303C4.46059 2.92779 4.03079 2.92779 3.60495 2.99303C3.56459 2.89608 3.50471 2.77421 3.45414 2.68359C3.04561 2.75428 2.65482 2.87886 2.28976 3.05011C1.55344 4.1628 1.35383 5.24785 1.45364 6.31749C1.942 6.68218 2.4153 6.90373 2.8806 7.04872C2.99549 6.8906 3.09795 6.72251 3.18622 6.54536C3.0181 6.48151 2.85709 6.40266 2.70495 6.31117C2.74531 6.28126 2.78479 6.24998 2.82294 6.21782C3.7509 6.65183 4.75911 6.65183 5.67597 6.21782C5.71456 6.24998 5.75403 6.28126 5.79395 6.31117C5.64138 6.40311 5.47992 6.48196 5.31182 6.54584C5.40007 6.72251 5.5021 6.89105 5.61742 7.04916C6.08318 6.90417 6.5569 6.68266 7.04529 6.31749C7.16239 5.0775 6.84524 4.00242 6.20694 3.04921ZM3.31264 5.65968C3.03408 5.65968 2.80563 5.39961 2.80563 5.08294C2.80563 4.76627 3.0292 4.50575 3.31264 4.50575C3.5961 4.50575 3.82452 4.76579 3.81963 5.08294C3.82007 5.39961 3.5961 5.65968 3.31264 5.65968ZM5.18628 5.65968C4.90772 5.65968 4.67927 5.39961 4.67927 5.08294C4.67927 4.76627 4.90284 4.50575 5.18628 4.50575C5.46973 4.50575 5.69815 4.76579 5.6933 5.08294C5.6933 5.39961 5.46973 5.65968 5.18628 5.65968Z" fill="white"/>
</g>
</g>
<defs>
<clipPath id="clip0_3217_13888">
<rect width="8.203" height="8.203" fill="white" transform="translate(0.144531 0.882812)"/>
</clipPath>
</defs>
</svg>
