<svg width="32" height="32" viewBox="0 0 32 32" fill="none" xmlns="http://www.w3.org/2000/svg">
<path d="M10.6667 24H5.33333C4.97971 24 4.64057 23.8595 4.39052 23.6095C4.14048 23.3595 4 23.0203 4 22.6667V5.33336C4 4.97973 4.14048 4.6406 4.39052 4.39055C4.64057 4.1405 4.97971 4.00002 5.33333 4.00002H12C12.1755 3.99901 12.3494 4.03264 12.5119 4.09899C12.6743 4.16535 12.8221 4.26311 12.9467 4.38669L16.16 7.61336C16.2846 7.73693 16.4323 7.8347 16.5948 7.90105C16.7572 7.9674 16.9312 8.00104 17.1067 8.00002H26.6667C27.0203 8.00002 27.3594 8.1405 27.6095 8.39055C27.8595 8.6406 28 8.97973 28 9.33336V12" stroke="#E11D48" stroke-width="2" stroke-linecap="round" stroke-linejoin="round"/>
<path d="M22.4521 18.2939L21.9987 18.7473L21.5454 18.2939C21.2442 17.9904 20.8859 17.7494 20.4912 17.585C20.0964 17.4206 19.673 17.3359 19.2454 17.3359C18.8178 17.3359 18.3944 17.4206 17.9996 17.585C17.6049 17.7494 17.2466 17.9904 16.9454 18.2939C16.3371 18.9102 15.9961 19.7413 15.9961 20.6073C15.9961 21.4732 16.3371 22.3043 16.9454 22.9206L18.2787 24.2539L21.9987 28.0006L25.6654 24.3073L26.9987 22.9739C27.607 22.3576 27.948 21.5265 27.948 20.6606C27.948 19.7947 27.607 18.9636 26.9987 18.3473C26.3996 17.7432 25.587 17.3991 24.7363 17.3891C23.8856 17.3791 23.0651 17.7041 22.4521 18.2939Z" stroke="#E11D48" stroke-width="2" stroke-linecap="round" stroke-linejoin="round"/>
</svg>
