<svg width="40" height="40" viewBox="0 0 40 40" fill="none" xmlns="http://www.w3.org/2000/svg">
<rect width="40" height="40" rx="20" fill="black"/>
<path d="M22.3278 28.2406H21.8278V28.7406V29.9997V30.4997H22.3278H31H31.5V29.9997V24.3211V23.8211H31H29.7364H29.2364V24.3211V28.2406H22.3278ZM22.3278 9.5H21.8278V10V11.2591V11.7591H22.3278H29.2364V15.6789V16.1789H29.7364H31H31.5V15.6789V10V9.5H31H22.3278ZM19.4483 15.6789V15.1789H18.9483H17.6847H17.1847V15.6789V24.3208V24.8208H17.6847H23.3836H23.8836V24.3208V23.185V22.685H23.3836H19.4483V15.6789ZM9 23.8211H8.5V24.3211V30V30.5H9H17.6721H18.1721V30V28.7406V28.2406H17.6721H10.7635V24.3211V23.8211H10.2635H9ZM9 9.5H8.5V10V15.6789V16.1789H9H10.2635H10.7635V15.6789V11.7591H17.6721H18.1721V11.2591V10V9.5H17.6721H9Z" fill="white" stroke="black"/>
</svg>
