<svg width="40" height="40" viewBox="0 0 40 40" fill="none" xmlns="http://www.w3.org/2000/svg">
<path d="M20 40C31.0457 40 40 31.0457 40 20C40 8.95431 31.0457 0 20 0C8.95431 0 0 8.95431 0 20C0 31.0457 8.95431 40 20 40Z" fill="url(#paint0_linear_165_13566)"/>
<path d="M32.2058 19.8449H29.2667C29.2667 13.7172 24.3942 8.75 18.3831 8.75C12.4466 8.75 7.62005 13.5956 7.50192 19.6183C7.37971 25.8439 13.1092 31.25 19.217 31.25H19.9853C25.3701 31.25 32.5873 26.9529 33.715 21.7172C33.9232 20.7521 33.1754 19.8449 32.2058 19.8449ZM14.0155 20.1179C14.0155 20.9373 13.358 21.6075 12.5542 21.6075C11.7503 21.6075 11.0929 20.937 11.0929 20.1179V17.708C11.0929 16.8886 11.7503 16.2184 12.5542 16.2184C13.358 16.2184 14.0155 16.8886 14.0155 17.708V20.1179ZM19.0895 20.1179C19.0895 20.9373 18.4322 21.6075 17.6284 21.6075C16.8245 21.6075 16.1671 20.937 16.1671 20.1179V17.708C16.1671 16.8886 16.8248 16.2184 17.6284 16.2184C18.4322 16.2184 19.0895 16.8886 19.0895 17.708V20.1179Z" fill="url(#paint1_linear_165_13566)"/>
<defs>
<linearGradient id="paint0_linear_165_13566" x1="20" y1="0" x2="20" y2="40" gradientUnits="userSpaceOnUse">
<stop stop-color="#534BB1"/>
<stop offset="1" stop-color="#551BF9"/>
</linearGradient>
<linearGradient id="paint1_linear_165_13566" x1="20.625" y1="8.75" x2="20.625" y2="31.25" gradientUnits="userSpaceOnUse">
<stop stop-color="white"/>
<stop offset="1" stop-color="white" stop-opacity="0.82"/>
</linearGradient>
</defs>
</svg>
