<svg width="22" height="22" viewBox="0 0 22 22" fill="none" xmlns="http://www.w3.org/2000/svg">
<path d="M12 7V3C12 2.73478 11.8946 2.48043 11.7071 2.29289C11.5196 2.10536 11.2652 2 11 2H3C2.73478 2 2.48043 2.10536 2.29289 2.29289C2.10536 2.48043 2 2.73478 2 3V19C2 19.2652 2.10536 19.5196 2.29289 19.7071C2.48043 19.8946 2.73478 20 3 20H11C11.2652 20 11.5196 19.8946 11.7071 19.7071C11.8946 19.5196 12 19.2652 12 19V15" stroke="#EB003C" stroke-width="2.25" stroke-linecap="round" stroke-linejoin="round"/>
<path d="M7 11H20M20 11L16 15M20 11L16 7" stroke="#EB003C" stroke-width="2.25" stroke-linecap="round" stroke-linejoin="round"/>
</svg>
