<svg width="64" height="64" viewBox="0 0 64 64" fill="none" xmlns="http://www.w3.org/2000/svg">
<path d="M56.9851 32.0005C56.9851 34.6671 54.6917 36.7738 53.945 39.1205C53.1984 41.4671 53.6784 44.6671 52.2117 46.6671C50.7451 48.6671 47.5984 49.1738 45.5451 50.6405C43.4917 52.1071 42.1317 54.9605 39.7317 55.7605C37.3317 56.5605 34.6651 55.0671 31.9984 55.0671C29.3317 55.0671 26.6651 56.5338 24.2651 55.7871C21.8651 55.0405 20.4517 52.1338 18.4517 50.6671C16.4517 49.2005 13.3317 48.7471 11.7851 46.6938C10.2384 44.6405 10.8517 41.5738 10.0517 39.1471C9.25172 36.7205 7.01172 34.6671 7.01172 32.0005C7.01172 29.3338 9.30505 27.2005 10.0517 24.8538C10.7984 22.5071 10.3184 19.3071 11.7851 17.3071C13.2517 15.3071 16.3984 14.8271 18.4517 13.3338C20.5051 11.8405 21.8651 9.04045 24.2651 8.24045C26.6651 7.44045 29.4117 8.96045 31.9984 8.96045C34.5851 8.96045 37.3317 7.49378 39.7317 8.24045C42.1317 8.98712 43.5451 11.8938 45.5451 13.3338C47.5451 14.7738 50.7184 15.2538 52.2117 17.3071C53.7051 19.3605 53.145 22.4271 53.945 24.8538C54.745 27.2805 56.9851 29.3338 56.9851 32.0005Z" stroke="black" stroke-width="3" stroke-linecap="round" stroke-linejoin="round"/>
<path d="M21.332 31.9974L29.332 39.9974L42.6654 26.6641" stroke="black" stroke-width="3" stroke-linecap="round" stroke-linejoin="round"/>
</svg>
