<svg width="24" height="24" viewBox="0 0 24 24" fill="none" xmlns="http://www.w3.org/2000/svg">
<path d="M12 9H20C20.2652 9 20.5196 9.10536 20.7071 9.29289C20.8946 9.48043 21 9.73478 21 10V20C21 20.2652 20.8946 20.5196 20.7071 20.7071C20.5196 20.8946 20.2652 21 20 21H4C3.73478 21 3.48043 20.8946 3.29289 20.7071C3.10536 20.5196 3 20.2652 3 20V10C3 9.73478 3.10536 9.48043 3.29289 9.29289C3.48043 9.10536 3.73478 9 4 9H5" stroke="#130D1A" stroke-width="2" stroke-linecap="round" stroke-linejoin="round"/>
<path d="M13 9L16 17M21 17H3M9 17V21M8.5 13C8.5 13 12 10 12 6.5C12 5.57174 11.6313 4.6815 10.9749 4.02513C10.3185 3.36875 9.42826 3 8.5 3C7.57174 3 6.6815 3.36875 6.02513 4.02513C5.36875 4.6815 5 5.57174 5 6.5C5 10 8.5 13 8.5 13Z" stroke="#130D1A" stroke-width="2" stroke-linecap="round" stroke-linejoin="round"/>
</svg>
