<svg width="20" height="14" viewBox="0 0 20 14" fill="none" xmlns="http://www.w3.org/2000/svg">
<g clip-path="url(#clip0_3217_13793)">
<path fill-rule="evenodd" clip-rule="evenodd" d="M10.1417 11.1607C9.0943 12.0434 7.76785 12.5261 6.3981 12.5231C3.2109 12.5231 0.626953 9.96995 0.626953 6.81999C0.626611 3.67073 3.21056 1.11754 6.3981 1.11754C7.82679 1.11754 9.13415 1.63023 10.1417 2.47992C11.1892 1.59707 12.5158 1.11422 13.8857 1.1172C17.0733 1.1172 19.6572 3.67038 19.6572 6.81999C19.6572 9.9696 17.0733 12.5231 13.8857 12.5231C12.457 12.5231 11.1497 12.0104 10.1417 11.1607Z" fill="#ED0006"/>
<path fill-rule="evenodd" clip-rule="evenodd" d="M10.1426 11.1604C11.3833 10.1145 12.1704 8.55801 12.1704 6.81965C12.1704 5.08164 11.3836 3.52478 10.1426 2.4789C11.1901 1.59649 12.5166 1.11402 13.8862 1.1172C17.0738 1.1172 19.6577 3.67039 19.6577 6.82C19.6577 9.96961 17.0738 12.5228 13.8862 12.5228C12.4575 12.5228 11.1502 12.0101 10.1426 11.1604Z" fill="#F9A000"/>
<path fill-rule="evenodd" clip-rule="evenodd" d="M10.1431 11.162C11.3841 10.1161 12.1713 8.55957 12.1713 6.82122C12.1713 5.08321 11.3841 3.52635 10.1431 2.48047C8.90238 3.52635 8.11523 5.08321 8.11523 6.82122C8.11523 8.55923 8.90204 10.1161 10.1431 11.162Z" fill="#FF5E00"/>
</g>
<defs>
<clipPath id="clip0_3217_13793">
<rect width="19.4821" height="12.3045" fill="white" transform="translate(0.328125 0.820312)"/>
</clipPath>
</defs>
</svg>
