<svg width="57" height="36" viewBox="0 0 57 36" fill="none" xmlns="http://www.w3.org/2000/svg">
<path fill-rule="evenodd" clip-rule="evenodd" d="M28.7189 30.2639C25.6543 32.8464 21.7734 34.2587 17.7659 34.2499C8.44086 34.2499 0.880859 26.7799 0.880859 17.5639C0.879859 8.34995 8.43986 0.879946 17.7659 0.879946C21.9459 0.879946 25.7709 2.37995 28.7189 4.86595C31.7836 2.28293 35.6648 0.87023 39.6729 0.878946C48.9989 0.878946 56.5589 8.34895 56.5589 17.5639C56.5589 26.7789 48.9989 34.2499 39.6729 34.2499C35.4929 34.2499 31.6679 32.7499 28.7189 30.2639Z" fill="#ED0006"/>
<path fill-rule="evenodd" clip-rule="evenodd" d="M28.7188 30.263C32.3488 27.203 34.6518 22.649 34.6518 17.563C34.6518 12.478 32.3498 7.92295 28.7188 4.86295C31.7836 2.28124 35.6645 0.869634 39.6718 0.878952C48.9978 0.878952 56.5577 8.34895 56.5577 17.564C56.5577 26.779 48.9978 34.249 39.6718 34.249C35.4918 34.249 31.6667 32.749 28.7188 30.263Z" fill="#F9A000"/>
<path fill-rule="evenodd" clip-rule="evenodd" d="M28.7182 30.2633C32.3492 27.2033 34.6522 22.6493 34.6522 17.5633C34.6522 12.4783 32.3492 7.92328 28.7182 4.86328C25.0882 7.92328 22.7852 12.4783 22.7852 17.5633C22.7852 22.6483 25.0872 27.2033 28.7182 30.2633Z" fill="#FF5E00"/>
</svg>
