<svg width="24" height="24" viewBox="0 0 24 24" fill="none" xmlns="http://www.w3.org/2000/svg">
<path d="M20.9983 15V18.93C21.0014 19.219 20.9418 19.5051 20.8237 19.7688C20.7055 20.0325 20.5317 20.2675 20.3141 20.4576C20.0964 20.6476 19.8402 20.7883 19.563 20.8699C19.2858 20.9514 18.9942 20.9719 18.7083 20.93C14.7453 20.4209 11.0643 18.6077 8.2453 15.7761C5.42632 12.9444 3.62963 9.25532 3.13833 5.29003C3.09655 5.00498 3.11685 4.71427 3.19783 4.43779C3.27882 4.16131 3.41858 3.90559 3.60755 3.68813C3.79652 3.47067 4.03024 3.29661 4.29272 3.17784C4.5552 3.05908 4.84024 2.99843 5.12833 3.00003H8.99833C9.24554 2.99853 9.48455 3.08866 9.66922 3.25302C9.85389 3.41737 9.97114 3.64431 9.99833 3.89003C10.0976 5.20061 10.4365 6.48183 10.9983 7.67003C11.0947 7.89506 11.1051 8.14761 11.0277 8.37983C10.9503 8.61205 10.7904 8.80781 10.5783 8.93003L9.71833 9.42003C9.59437 9.48821 9.48628 9.58191 9.40122 9.69495C9.31615 9.80799 9.25604 9.93779 9.22485 10.0758C9.19366 10.2138 9.1921 10.3568 9.22028 10.4955C9.24846 10.6341 9.30574 10.7652 9.38833 10.88C10.3777 12.3292 11.6291 13.5807 13.0783 14.57C13.1932 14.6526 13.3243 14.7099 13.4629 14.7381C13.6015 14.7663 13.7446 14.7647 13.8826 14.7335C14.0206 14.7023 14.1504 14.6422 14.2634 14.5571C14.3764 14.4721 14.4702 14.364 14.5383 14.24L15.0283 13.38C15.1578 13.1652 15.3634 13.0068 15.6042 12.9364C15.845 12.8661 16.1035 12.8888 16.3283 13C17.5165 13.5618 18.7978 13.9008 20.1083 14C20.354 14.0272 20.581 14.1445 20.7453 14.3291C20.9097 14.5138 20.9998 14.7528 20.9983 15Z" stroke="#130D1A" stroke-width="2" stroke-linecap="round" stroke-linejoin="round"/>
<path d="M21 9C21 7.4087 20.3679 5.88258 19.2426 4.75736C18.1174 3.63214 16.5913 3 15 3" stroke="#130D1A" stroke-width="2" stroke-linecap="round" stroke-linejoin="round"/>
<path d="M15 7C15.5304 7 16.0391 7.21071 16.4142 7.58579C16.7893 7.96086 17 8.46957 17 9" stroke="#130D1A" stroke-width="2" stroke-linecap="round" stroke-linejoin="round"/>
</svg>
