<svg width="23" height="26" viewBox="0 0 23 26" fill="none" xmlns="http://www.w3.org/2000/svg">
<path d="M16.6667 9.408V6.93867C16.6667 5.62885 16.1048 4.37268 15.1046 3.4465C14.1044 2.52032 12.7478 2 11.3333 2C9.91884 2 8.56229 2.52032 7.5621 3.4465C6.5619 4.37268 6 5.62885 6 6.93867V9.408M19.3333 24.224H3.33333C2.97971 24.224 2.64057 24.0939 2.39052 23.8624C2.14048 23.6308 2 23.3168 2 22.9893V10.6427C2 10.3152 2.14048 10.0012 2.39052 9.76963C2.64057 9.53808 2.97971 9.408 3.33333 9.408H19.3333C19.687 9.408 20.0261 9.53808 20.2761 9.76963C20.5262 10.0012 20.6667 10.3152 20.6667 10.6427V22.9893C20.6667 23.3168 20.5262 23.6308 20.2761 23.8624C20.0261 24.0939 19.687 24.224 19.3333 24.224Z" stroke="#EB003C" stroke-width="3" stroke-linecap="round" stroke-linejoin="round"/>
</svg>
