<svg width="17" height="21" viewBox="0 0 17 21" fill="none" xmlns="http://www.w3.org/2000/svg">
<path d="M0.573242 12.2607C0.573242 16.6904 4.15039 20.2676 8.57129 20.2676C13.001 20.2676 16.5693 16.6904 16.5693 12.2607C16.5693 11.5752 16.0947 11.1006 15.4268 11.1006C14.7676 11.1006 14.3193 11.5752 14.3193 12.2607C14.3193 15.4336 11.7529 18 8.57129 18C5.38965 18 2.84082 15.4336 2.84082 12.2607C2.84082 9.01758 5.32812 6.47754 8.50098 6.47754C8.91406 6.47754 9.29199 6.50391 9.62598 6.56543L7.64844 8.52539C7.45508 8.71875 7.33203 8.94727 7.33203 9.25488C7.33203 9.87012 7.81543 10.3535 8.43066 10.3535C8.73828 10.3535 8.99316 10.248 9.19531 10.0547L12.7812 6.41602C13.0186 6.17871 13.1328 5.91504 13.1328 5.59863C13.1328 5.29102 13.0098 5.00098 12.7812 4.78125L9.19531 1.125C8.99316 0.914062 8.73828 0.799805 8.43066 0.799805C7.81543 0.799805 7.33203 1.30078 7.33203 1.9248C7.33203 2.23242 7.45508 2.46094 7.63965 2.66309L9.38867 4.37695C9.125 4.33301 8.80859 4.29785 8.50098 4.29785C4.08887 4.29785 0.573242 7.82227 0.573242 12.2607Z" fill="url(#paint0_angular_579_8051)"/>
<defs>
<radialGradient id="paint0_angular_579_8051" cx="0" cy="0" r="1" gradientUnits="userSpaceOnUse" gradientTransform="translate(9 11.5) rotate(158.629) scale(12.3491 12.3379)">
<stop offset="2.70141e-06" stop-color="white"/>
<stop offset="1" stop-color="white" stop-opacity="0"/>
</radialGradient>
</defs>
</svg>
