<svg width="16" height="16" viewBox="0 0 16 16" fill="none" xmlns="http://www.w3.org/2000/svg">
<path d="M2.66406 4.67448H13.3307M10.6641 4.67448V2.67448C10.6641 2.49767 10.5938 2.3281 10.4688 2.20307C10.3438 2.07805 10.1742 2.00781 9.9974 2.00781H5.9974C5.82058 2.00781 5.65102 2.07805 5.52599 2.20307C5.40097 2.3281 5.33073 2.49767 5.33073 2.67448V4.67448M6.66406 7.34115V11.3411M9.33073 7.34115V11.3411M11.9974 13.3411V4.67448H3.9974V13.3411C3.9974 13.518 4.06763 13.6875 4.19266 13.8126C4.31768 13.9376 4.48725 14.0078 4.66406 14.0078H11.3307C11.5075 14.0078 11.6771 13.9376 11.8021 13.8126C11.9272 13.6875 11.9974 13.518 11.9974 13.3411Z" stroke="#EB003C" stroke-width="1.33333" stroke-linecap="round" stroke-linejoin="round"/>
</svg>
