<svg width="22" height="14" viewBox="0 0 22 14" fill="none" xmlns="http://www.w3.org/2000/svg">
<g clip-path="url(#clip0_3217_13797)">
<path fill-rule="evenodd" clip-rule="evenodd" d="M12.5205 6.61724H13.468C13.7684 6.6063 13.9509 6.58238 14.0169 6.54512C14.1068 6.49385 14.1669 6.392 14.197 6.23922C14.2161 6.13736 14.2257 5.98629 14.2257 5.78498C14.2257 5.53889 14.2066 5.35603 14.1683 5.23708C14.1136 5.06961 13.9827 4.96809 13.7752 4.93118C13.6772 4.92346 13.5789 4.92061 13.4806 4.92264H12.5202L12.5205 6.61724ZM11.0009 9.47188V3.64844H13.8326C14.2209 3.64844 14.5176 3.68125 14.7213 3.74653C15.1868 3.89692 15.4992 4.20487 15.6595 4.67074C15.7419 4.91512 15.7833 5.28288 15.7833 5.77438C15.7833 6.365 15.7375 6.7895 15.6465 7.0479C15.4654 7.55887 15.0915 7.85316 14.5268 7.92972C14.4605 7.941 14.1782 7.95125 13.6792 7.95945L13.4269 7.96834H12.5209V9.47188H11.0009ZM3.36904 5.50573H4.78303C4.79226 5.37722 4.79671 5.28118 4.79671 5.21658C4.79671 4.43182 4.48909 3.95434 3.87387 3.78413C3.62163 3.7144 3.19883 3.6792 2.60548 3.6792C2.22848 3.6792 1.88567 3.69321 1.57669 3.72124C1.2055 3.752 0.900624 3.85488 0.662053 4.03056C0.49936 4.14472 0.381784 4.3122 0.308299 4.53231C0.235156 4.75277 0.198926 5.04534 0.198926 5.41071C0.198926 5.88991 0.266259 6.2481 0.401608 6.48531C0.555414 6.76387 0.864052 6.94741 1.32718 7.03696C1.50286 7.06772 1.81697 7.09985 2.26882 7.133C2.8314 7.17231 3.14688 7.20307 3.21455 7.22529C3.3957 7.281 3.48662 7.4372 3.48662 7.69354C3.48662 7.8077 3.47568 7.90135 3.45415 7.97381C3.41313 8.09104 3.32803 8.17581 3.1978 8.22879C3.125 8.25681 2.95582 8.27083 2.69059 8.27083H2.17072C2.0323 8.26741 1.91438 8.24143 1.81697 8.19153C1.67649 8.11907 1.60608 7.95638 1.60608 7.70345V7.58246H0.191406C0.191406 8.05618 0.225244 8.3949 0.29326 8.59792C0.41528 8.9633 0.66718 9.20563 1.04964 9.32525C1.36136 9.42301 1.91301 9.47154 2.70494 9.47154C3.17935 9.47154 3.53208 9.44932 3.76279 9.40455C4.31307 9.29859 4.66648 9.04635 4.82405 8.64714C4.91086 8.42942 4.95393 8.08626 4.95393 7.61732C4.95393 7.41396 4.9447 7.2311 4.9259 7.06909C4.89309 6.79873 4.79124 6.57964 4.62 6.41216C4.40262 6.19752 4.05263 6.0649 3.56899 6.01466C3.41689 5.99757 3.03511 5.96852 2.42399 5.92648L2.13893 5.90597C2.01384 5.89743 1.91335 5.86974 1.83747 5.82223C1.73152 5.75524 1.67854 5.61579 1.67854 5.40354C1.67854 5.16941 1.73801 5.01731 1.85764 4.94725C1.97693 4.87752 2.22165 4.84266 2.59078 4.84266C2.97086 4.84266 3.20327 4.9035 3.28735 5.02415C3.3417 5.10618 3.3687 5.26682 3.3687 5.50607L3.36904 5.50573ZM0.197217 10.6265L0.409127 10.6046C0.422116 10.6781 0.44775 10.7321 0.486714 10.7666C0.52602 10.8015 0.578656 10.8185 0.644964 10.8185C0.715031 10.8185 0.768009 10.8032 0.803555 10.7724C0.819942 10.7596 0.833241 10.7433 0.84247 10.7246C0.8517 10.706 0.856622 10.6855 0.856874 10.6647C0.857467 10.6403 0.849484 10.6165 0.834316 10.5974C0.812873 10.5748 0.785891 10.5582 0.756046 10.5492C0.698608 10.5312 0.640585 10.5151 0.582074 10.501C0.465865 10.4713 0.383835 10.4347 0.337009 10.3913C0.305342 10.3634 0.280087 10.329 0.262978 10.2904C0.245868 10.2518 0.23731 10.21 0.23789 10.1678C0.237969 10.1098 0.255211 10.0531 0.287447 10.0048C0.319682 9.9566 0.365468 9.91899 0.419039 9.89673C0.477828 9.87109 0.54892 9.85811 0.631634 9.85811C0.766983 9.85811 0.868837 9.88887 0.937195 9.95039C1.00555 10.0119 1.04178 10.0936 1.0452 10.1958L0.826455 10.2047C0.817568 10.1476 0.797403 10.1066 0.766641 10.0813C0.73588 10.056 0.69008 10.0437 0.628899 10.0437C0.565668 10.0437 0.516108 10.057 0.48022 10.084C0.469291 10.0918 0.46043 10.1021 0.454412 10.1141C0.448394 10.1261 0.445403 10.1393 0.445699 10.1527C0.445699 10.1794 0.456295 10.2016 0.478169 10.2204C0.505513 10.2443 0.572162 10.2689 0.678117 10.2946C0.784073 10.3206 0.862343 10.3472 0.912928 10.3749C0.962217 10.4011 1.00345 10.4402 1.03221 10.488C1.06058 10.5359 1.07528 10.5954 1.07528 10.6658C1.07528 10.7297 1.05819 10.7895 1.02367 10.8455C0.989321 10.9013 0.93825 10.9449 0.877724 10.97C0.814834 10.9973 0.736564 11.0106 0.642913 11.0106C0.506196 11.0106 0.401608 10.9778 0.328465 10.9125C0.255321 10.8469 0.211572 10.7519 0.197217 10.6265ZM1.3012 10.1849H1.50901V10.9908H1.3012V10.1849ZM1.3012 9.87793H1.50901V10.0748H1.3012V9.87793ZM2.26984 10.9908H2.47765V10.4891C2.47765 10.4268 2.47355 10.379 2.46603 10.3455C2.45946 10.3112 2.44446 10.2791 2.42238 10.2521C2.4003 10.2251 2.37184 10.2039 2.33957 10.1907C2.30025 10.1735 2.25772 10.1649 2.21481 10.1654C2.11125 10.1654 2.02546 10.2112 1.9571 10.3035V10.1852H1.76467V10.9908H1.97214V10.6251C1.97214 10.5349 1.97761 10.473 1.98786 10.4398C1.9985 10.4074 2.01915 10.3792 2.04685 10.3592C2.07455 10.3392 2.10787 10.3286 2.14201 10.3288C2.16759 10.328 2.19274 10.3354 2.21379 10.3499C2.23361 10.364 2.24797 10.3841 2.25651 10.4098C2.2654 10.4354 2.27018 10.4918 2.27018 10.5789L2.26984 10.9908ZM2.89805 10.5704C2.89805 10.6565 2.91412 10.7191 2.9459 10.7591C2.95944 10.7776 2.97719 10.7927 2.99768 10.8031C3.01818 10.8135 3.04084 10.8189 3.06382 10.8189C3.0883 10.819 3.11248 10.8135 3.13452 10.8028C3.15656 10.7922 3.17586 10.7766 3.19097 10.7574C3.22549 10.7163 3.24292 10.6562 3.24292 10.5762C3.24292 10.4921 3.22617 10.4303 3.19302 10.3896C3.17829 10.3704 3.15928 10.3549 3.1375 10.3443C3.11572 10.3338 3.09178 10.3284 3.06758 10.3288C3.04405 10.3284 3.02076 10.3336 2.99962 10.3439C2.97847 10.3542 2.96007 10.3694 2.9459 10.3882C2.91412 10.4282 2.89805 10.4887 2.89805 10.5704ZM2.71144 11.0441L2.94727 11.0704C2.95069 11.1005 2.96026 11.121 2.97461 11.1323C2.9941 11.1484 3.0252 11.1562 3.06758 11.1562C3.12159 11.1562 3.16226 11.148 3.18926 11.1316C3.20873 11.1188 3.2233 11.0998 3.23062 11.0776C3.23875 11.0456 3.24209 11.0125 3.24053 10.9795L3.24087 10.8619C3.17969 10.9481 3.1021 10.9908 3.00777 10.9908C2.9025 10.9908 2.81944 10.9453 2.75826 10.8534C2.70973 10.7809 2.6858 10.6907 2.6858 10.5827C2.6858 10.4474 2.71725 10.3441 2.78048 10.2724C2.80933 10.2382 2.84544 10.2108 2.88617 10.1923C2.9269 10.1738 2.97124 10.1646 3.01597 10.1654C3.1127 10.1654 3.19234 10.2091 3.25523 10.2966V10.1852H3.448V10.9098C3.448 11.0048 3.44048 11.0759 3.4251 11.1231C3.41318 11.1648 3.39123 11.2029 3.36118 11.2342C3.32965 11.2632 3.29189 11.2848 3.25078 11.297C3.19423 11.3137 3.13541 11.3215 3.07647 11.3199C2.94385 11.3199 2.84952 11.2964 2.79415 11.2492C2.76753 11.2277 2.74618 11.2003 2.73173 11.1693C2.71728 11.1383 2.7101 11.1043 2.71075 11.0701C2.71075 11.0629 2.71075 11.054 2.71144 11.0441ZM3.90531 9.87793H3.6975V10.9908H3.90531V9.87793ZM4.62752 10.5205C4.62581 10.458 4.61043 10.4104 4.58069 10.3776C4.56734 10.3621 4.55076 10.3497 4.5321 10.3412C4.51344 10.3328 4.49316 10.3285 4.47269 10.3288C4.45124 10.3282 4.42995 10.3326 4.41041 10.3415C4.39088 10.3503 4.37361 10.3635 4.3599 10.38C4.32848 10.42 4.31301 10.4701 4.31649 10.5208L4.62752 10.5205ZM4.61727 10.7372L4.82302 10.7724C4.79636 10.85 4.75432 10.9091 4.6969 10.9501C4.63332 10.9926 4.55797 11.0139 4.48157 11.011C4.3452 11.011 4.24437 10.9648 4.17909 10.8729C4.12714 10.7994 4.1015 10.7064 4.1015 10.594C4.1015 10.46 4.13534 10.3551 4.20336 10.2792C4.23524 10.2425 4.27483 10.2132 4.31932 10.1935C4.36381 10.1739 4.41209 10.1642 4.46072 10.1654C4.57762 10.1654 4.66922 10.205 4.73689 10.285C4.80423 10.3646 4.83635 10.4867 4.83362 10.6507H4.31341C4.31478 10.7143 4.33153 10.7635 4.364 10.7991C4.37901 10.8161 4.39755 10.8296 4.41832 10.8388C4.4391 10.8479 4.46161 10.8525 4.48431 10.852C4.51413 10.8529 4.54331 10.8432 4.56668 10.8247C4.59211 10.8014 4.60977 10.7709 4.61727 10.7372ZM5.51242 9.87793V10.9908H6.33237V10.8028H5.73082V10.5007H6.27017V10.313H5.73082V10.0659H6.31084V9.87793H5.51242ZM7.07509 10.9908V10.8698C7.04664 10.9127 7.00801 10.948 6.96264 10.9723C6.91848 10.9967 6.86895 11.0096 6.81853 11.0101C6.76811 11.0105 6.71838 10.9983 6.67382 10.9747C6.63326 10.9523 6.60129 10.9171 6.58291 10.8746C6.56411 10.8315 6.55488 10.7721 6.55488 10.6958V10.1849H6.76269V10.5554C6.76269 10.6688 6.76611 10.7386 6.77397 10.7639C6.78068 10.7882 6.79536 10.8096 6.81567 10.8247C6.83804 10.8404 6.86493 10.8483 6.89223 10.8473C6.92631 10.8477 6.95962 10.8371 6.98725 10.8172C7.0138 10.799 7.0339 10.773 7.04467 10.7427C7.05492 10.7133 7.06039 10.6405 7.06039 10.5253V10.1849H7.26786V10.9908H7.07509ZM7.516 10.9908H7.72381V10.7416C7.72381 10.6046 7.72962 10.5143 7.74124 10.4716C7.75286 10.4282 7.76858 10.3985 7.78909 10.3821C7.81004 10.3655 7.83618 10.3567 7.86292 10.3575C7.89299 10.3575 7.92546 10.3691 7.96067 10.3923L8.02356 10.2057C7.9829 10.1798 7.93576 10.1658 7.88753 10.1654C7.85566 10.1649 7.82442 10.1742 7.79798 10.192C7.77166 10.2098 7.74192 10.2457 7.70911 10.2997V10.1852H7.51634V10.9908H7.516ZM8.31989 10.5882C8.31989 10.6685 8.33835 10.73 8.37526 10.7727C8.39177 10.793 8.41264 10.8093 8.43631 10.8203C8.45999 10.8314 8.48585 10.837 8.51198 10.8367C8.53803 10.8369 8.56381 10.8313 8.58737 10.8201C8.61092 10.809 8.63166 10.7927 8.64801 10.7724C8.68458 10.73 8.70304 10.6678 8.70304 10.5868C8.70304 10.5075 8.68458 10.4467 8.64801 10.4039C8.63166 10.3837 8.61092 10.3673 8.58737 10.3562C8.56381 10.3451 8.53803 10.3394 8.51198 10.3397C8.48582 10.3394 8.45994 10.345 8.43627 10.3562C8.41259 10.3673 8.39174 10.3836 8.37526 10.4039C8.33835 10.4463 8.31989 10.5079 8.31989 10.5882ZM8.10764 10.5766C8.10764 10.5055 8.12473 10.4364 8.15857 10.3701C8.1924 10.3038 8.24026 10.2529 8.30212 10.218C8.36433 10.1828 8.43371 10.1654 8.51061 10.1654C8.62887 10.1654 8.72594 10.205 8.80113 10.2843C8.87701 10.364 8.91461 10.4644 8.91461 10.5858C8.91461 10.7081 8.87633 10.8097 8.80011 10.89C8.76337 10.9294 8.7187 10.9605 8.66903 10.9814C8.61936 11.0023 8.56583 11.0123 8.51198 11.011C8.4402 11.011 8.37184 10.9939 8.3069 10.9607C8.2431 10.9284 8.19117 10.8767 8.15857 10.8131C8.12439 10.7481 8.10764 10.6695 8.10764 10.5766ZM9.80874 10.3838V10.0659H9.91367C9.99228 10.0659 10.0439 10.0683 10.0699 10.0734C10.1051 10.0803 10.1345 10.0967 10.1574 10.1233C10.181 10.1515 10.1933 10.1874 10.1919 10.2242C10.1925 10.255 10.184 10.2854 10.1673 10.3113C10.1508 10.3362 10.1271 10.3553 10.0993 10.366C10.0705 10.378 10.0131 10.3838 9.92768 10.3838H9.80874ZM9.59102 9.87793V10.9908H9.80942V10.5711H9.95126C10.0497 10.5711 10.1249 10.5656 10.1768 10.555C10.2207 10.5445 10.2617 10.5245 10.297 10.4965C10.3323 10.4684 10.3611 10.433 10.3812 10.3927C10.4052 10.3458 10.4175 10.2884 10.4175 10.2201C10.4175 10.1315 10.3966 10.0594 10.3549 10.0034C10.3173 9.95024 10.2625 9.91173 10.1997 9.89434C10.1594 9.8834 10.0733 9.87759 9.94067 9.87759H9.59102V9.87793ZM11.071 10.6046C11.0443 10.6138 11.0026 10.6247 10.9455 10.6374C10.8881 10.65 10.8505 10.6627 10.8327 10.675C10.8204 10.6833 10.8103 10.6945 10.8033 10.7076C10.7963 10.7207 10.7927 10.7353 10.7928 10.7502C10.7927 10.765 10.7957 10.7798 10.8015 10.7934C10.8073 10.8071 10.8158 10.8195 10.8265 10.8298C10.8372 10.8402 10.8498 10.8483 10.8637 10.8536C10.8776 10.8589 10.8924 10.8614 10.9073 10.8609C10.9461 10.8603 10.9836 10.8469 11.0139 10.8226C11.0375 10.8051 11.0547 10.7802 11.0628 10.7519C11.0682 10.7334 11.071 10.6986 11.071 10.6473V10.6046ZM10.7921 10.4303L10.6058 10.3951C10.627 10.3168 10.6632 10.259 10.7148 10.2214C10.7661 10.1838 10.843 10.1654 10.9445 10.1654C11.0368 10.1654 11.1055 10.1767 11.151 10.1992C11.191 10.2171 11.2243 10.2471 11.2463 10.285C11.2648 10.3199 11.2737 10.3834 11.2737 10.4764L11.2716 10.7259C11.2716 10.7967 11.275 10.849 11.2819 10.8828C11.2884 10.9163 11.3007 10.9525 11.3188 10.9908H11.1134C11.1057 10.9705 11.099 10.9498 11.0932 10.9289C11.0911 10.9207 11.0888 10.9125 11.0864 10.9043C11.0539 10.9378 11.0154 10.965 10.9729 10.9843C10.9323 11.0022 10.8884 11.0112 10.844 11.011C10.7637 11.011 10.7005 10.9884 10.654 10.9433C10.6312 10.9211 10.6132 10.8945 10.6013 10.865C10.5893 10.8355 10.5836 10.8039 10.5846 10.7721C10.5846 10.7266 10.5949 10.6859 10.616 10.65C10.637 10.6146 10.6679 10.586 10.7049 10.568C10.7429 10.5489 10.7979 10.5321 10.8693 10.5181C10.966 10.4993 11.0334 10.4819 11.0703 10.4655V10.4439C11.0703 10.4026 11.0607 10.3728 11.0409 10.3551C11.0211 10.3373 10.9838 10.3288 10.9291 10.3288C10.8985 10.3269 10.8682 10.3348 10.8423 10.3513C10.8179 10.3718 10.8004 10.3996 10.7921 10.4303ZM11.6431 10.1849H11.423L11.7207 10.9929C11.7107 11.0337 11.6926 11.072 11.6674 11.1056C11.6442 11.1347 11.6086 11.1494 11.5601 11.1494C11.5341 11.1494 11.5047 11.1463 11.4719 11.1395L11.4914 11.307C11.5297 11.3152 11.569 11.3196 11.6086 11.3196C11.6479 11.3196 11.6835 11.3155 11.7146 11.3066C11.7427 11.2993 11.7694 11.2871 11.7932 11.2704C11.8157 11.2538 11.8351 11.2333 11.8503 11.2099C11.8712 11.1758 11.8886 11.1396 11.9022 11.1019L12.2279 10.1849H12.0136L11.8308 10.757L11.6431 10.1849ZM12.3893 10.1849H12.5796V10.2953C12.648 10.2084 12.7297 10.1654 12.8244 10.1654C12.8743 10.1654 12.918 10.1756 12.9549 10.1972C12.9935 10.2203 13.0248 10.2536 13.0455 10.2935C13.08 10.2508 13.1173 10.2184 13.1569 10.1972C13.1961 10.1761 13.2399 10.1652 13.2844 10.1654C13.3422 10.1654 13.3904 10.1773 13.4304 10.2013C13.4708 10.226 13.5021 10.2632 13.5196 10.3072C13.5339 10.3417 13.5411 10.3978 13.5411 10.4747V10.9908H13.3333V10.5294C13.3333 10.4494 13.3265 10.3975 13.3121 10.3742C13.293 10.3438 13.2636 10.3288 13.2239 10.3288C13.1943 10.3288 13.1656 10.3384 13.1419 10.3561C13.1153 10.3761 13.0961 10.4044 13.0872 10.4364C13.0756 10.4713 13.0701 10.527 13.0701 10.6032V10.9908H12.8623V10.5485C12.8623 10.4699 12.8589 10.4193 12.8514 10.3964C12.8459 10.3761 12.8339 10.358 12.8172 10.3452C12.7985 10.3332 12.7765 10.3275 12.7543 10.3288C12.7235 10.3283 12.6934 10.3375 12.6682 10.3551C12.6419 10.374 12.6227 10.401 12.6135 10.432C12.6025 10.4655 12.5967 10.5208 12.5967 10.5984V10.9908H12.3893V10.1849ZM14.21 10.3776C14.2397 10.4104 14.2551 10.458 14.2568 10.5208H13.9458C13.9425 10.4702 13.9581 10.4202 13.9895 10.3804C14.0032 10.3638 14.0204 10.3506 14.0398 10.3417C14.0593 10.3327 14.0806 10.3283 14.102 10.3288C14.1225 10.3285 14.1427 10.3328 14.1614 10.3412C14.1801 10.3497 14.1966 10.3621 14.21 10.3776ZM14.4513 10.7724L14.2459 10.7372C14.2383 10.7709 14.2205 10.8015 14.1949 10.8247C14.1717 10.8432 14.1426 10.8529 14.1129 10.852C14.0902 10.8525 14.0676 10.848 14.0467 10.8389C14.0259 10.8297 14.0073 10.8161 13.9923 10.7991C13.9601 10.7639 13.943 10.7143 13.9417 10.6511H14.4619C14.465 10.4863 14.4325 10.3646 14.3652 10.2847C14.2978 10.205 14.2059 10.165 14.089 10.165C14.0403 10.1639 13.992 10.1736 13.9475 10.1933C13.9031 10.2131 13.8635 10.2424 13.8316 10.2792C13.7636 10.3551 13.7298 10.4603 13.7298 10.594C13.7298 10.7064 13.7554 10.7991 13.8074 10.8729C13.8726 10.9652 13.9735 11.011 14.1098 11.011C14.1963 11.011 14.2677 10.9905 14.3252 10.9498C14.3826 10.9091 14.4243 10.85 14.4513 10.7724ZM15.3868 10.9911H15.1793V10.5789C15.1793 10.4914 15.1749 10.4354 15.166 10.4098C15.1584 10.3858 15.1435 10.3649 15.1233 10.3499C15.1022 10.3354 15.0771 10.328 15.0515 10.3288C15.0173 10.3285 14.9839 10.3391 14.9562 10.3591C14.9285 10.379 14.9079 10.4073 14.8973 10.4398C14.8871 10.473 14.8816 10.5349 14.8816 10.6251V10.9908H14.6738V10.1852H14.8666V10.3035C14.9349 10.2112 15.0204 10.1654 15.1239 10.1654C15.1697 10.1654 15.2114 10.1739 15.2494 10.1907C15.287 10.2078 15.3157 10.2293 15.3348 10.2556C15.3545 10.2824 15.3684 10.313 15.3755 10.3455C15.383 10.379 15.3868 10.4268 15.3868 10.4891V10.9908V10.9911ZM15.9986 10.3551V10.1849H15.8571V9.89775L15.6493 10.0239V10.1849H15.5549V10.3551H15.6493V10.7071C15.6493 10.7827 15.6513 10.8329 15.6561 10.8578C15.6594 10.8874 15.6692 10.9159 15.6848 10.9412C15.6985 10.9618 15.7207 10.9785 15.7501 10.9911C15.7819 11.0045 15.8161 11.0112 15.8506 11.0106C15.9111 11.0106 15.9654 11.0004 16.0133 10.9788L15.9952 10.8138C15.9692 10.8251 15.9414 10.8321 15.9131 10.8343C15.9008 10.8345 15.8888 10.8306 15.879 10.8233C15.8699 10.8168 15.8635 10.8072 15.8608 10.7963C15.857 10.7581 15.8557 10.7196 15.8571 10.6811V10.3551H15.9986ZM16.1158 10.7635L16.3236 10.7304C16.3298 10.7671 16.3488 10.8004 16.3773 10.8244C16.4102 10.8474 16.45 10.8586 16.4901 10.8561C16.5437 10.8561 16.5841 10.8459 16.6111 10.8257C16.6199 10.819 16.627 10.8103 16.6317 10.8003C16.6365 10.7903 16.6388 10.7794 16.6384 10.7683C16.6388 10.7534 16.6334 10.739 16.6234 10.728C16.6027 10.7132 16.5788 10.7035 16.5537 10.6996C16.3862 10.6613 16.2795 10.6265 16.2348 10.595C16.205 10.5752 16.1808 10.5482 16.1645 10.5164C16.1482 10.4846 16.1402 10.4492 16.1415 10.4135C16.1415 10.3435 16.1685 10.2843 16.2221 10.2368C16.2758 10.189 16.3592 10.165 16.4723 10.165C16.58 10.165 16.6596 10.1832 16.7122 10.2187C16.7662 10.2568 16.8045 10.3132 16.8202 10.3773L16.6254 10.4149C16.6186 10.3859 16.6016 10.3603 16.5776 10.3428C16.5473 10.3241 16.5119 10.3153 16.4764 10.3175C16.4214 10.3175 16.3817 10.3253 16.3581 10.3414C16.3508 10.346 16.3447 10.3524 16.3405 10.36C16.3364 10.3676 16.3342 10.3761 16.3342 10.3848C16.3342 10.4002 16.3411 10.4132 16.3547 10.4238C16.3735 10.4381 16.4385 10.458 16.5489 10.4843C16.6596 10.5102 16.7369 10.542 16.7809 10.5796C16.824 10.6179 16.8459 10.6709 16.8459 10.7392C16.8459 10.7758 16.8379 10.8119 16.8223 10.845C16.8068 10.8781 16.7841 10.9073 16.756 10.9306C16.6962 10.984 16.6077 11.011 16.4904 11.011C16.3838 11.011 16.2997 10.9884 16.2375 10.9443C16.1762 10.901 16.1329 10.8367 16.1158 10.7635ZM17.9581 10.1387L18.1091 10.5516H17.8125L17.9581 10.1387ZM18.2749 10.9908H18.5101L18.0743 9.87793H17.8446L17.4266 10.9908H17.6576L17.7465 10.7392H18.1816L18.2749 10.9908ZM18.8669 10.9908H18.6591V10.1852H18.8519V10.2997C18.885 10.2457 18.9144 10.2098 18.9407 10.192C18.9671 10.1742 18.9984 10.1649 19.0303 10.1654C19.0774 10.1654 19.1226 10.179 19.1666 10.2057L19.1034 10.3923C19.0751 10.3714 19.0412 10.3593 19.006 10.3575C18.9792 10.3567 18.9529 10.3654 18.9318 10.3821C18.9117 10.3985 18.8959 10.4282 18.8843 10.4713C18.8727 10.5143 18.8672 10.6046 18.8672 10.7416V10.9911L18.8669 10.9908ZM19.719 10.3776C19.7487 10.4104 19.7641 10.458 19.7658 10.5208H19.4548C19.4515 10.4702 19.4671 10.4202 19.4985 10.3804C19.5122 10.3638 19.5294 10.3506 19.5488 10.3417C19.5683 10.3327 19.5896 10.3283 19.611 10.3288C19.6534 10.3288 19.6896 10.3452 19.719 10.3776ZM19.9603 10.7724L19.7549 10.7372C19.7473 10.7708 19.7297 10.8014 19.7043 10.8247C19.6808 10.8433 19.6515 10.853 19.6216 10.852C19.5989 10.8524 19.5764 10.8479 19.5556 10.8388C19.5348 10.8296 19.5163 10.8161 19.5013 10.7991C19.4691 10.7639 19.452 10.7143 19.4507 10.6511H19.9709C19.974 10.4867 19.9415 10.3646 19.8742 10.2847C19.8068 10.205 19.7149 10.165 19.5983 10.165C19.5496 10.1639 19.5012 10.1735 19.4567 10.1933C19.4121 10.213 19.3725 10.2423 19.3406 10.2792C19.2726 10.3551 19.2388 10.4603 19.2388 10.594C19.2388 10.7068 19.2644 10.7991 19.3164 10.8729C19.3816 10.9652 19.4828 11.011 19.6192 11.011C19.7053 11.011 19.7771 10.9905 19.8345 10.9498C19.8916 10.9091 19.9336 10.85 19.9603 10.7724ZM20.6158 10.6049C20.5746 10.6179 20.5328 10.6287 20.4904 10.6374C20.433 10.65 20.3957 10.6627 20.378 10.675C20.3656 10.6832 20.3554 10.6944 20.3483 10.7075C20.3413 10.7206 20.3376 10.7353 20.3376 10.7502C20.3376 10.7803 20.3482 10.8059 20.3701 10.8281C20.3808 10.8389 20.3936 10.8473 20.4077 10.8529C20.4218 10.8585 20.437 10.8611 20.4521 10.8606C20.4909 10.8601 20.5284 10.8468 20.5588 10.8226C20.5826 10.805 20.5999 10.78 20.608 10.7516C20.6131 10.7334 20.6158 10.6986 20.6158 10.6473V10.6049ZM20.3369 10.4303L20.1507 10.3951C20.1719 10.3168 20.2081 10.259 20.2597 10.2214C20.311 10.1838 20.3879 10.1654 20.4894 10.1654C20.5817 10.1654 20.6504 10.1767 20.6958 10.1992C20.7409 10.2218 20.7727 10.2505 20.7912 10.285C20.8096 10.3195 20.8185 10.3834 20.8185 10.4764L20.8165 10.7259C20.8165 10.7967 20.8199 10.849 20.8267 10.8828C20.8332 10.9163 20.8455 10.9525 20.8636 10.9908H20.6582C20.6474 10.9625 20.6383 10.9337 20.6309 10.9043C20.5985 10.9378 20.5601 10.9649 20.5177 10.9843C20.4771 11.0022 20.4332 11.0112 20.3889 11.011C20.3086 11.011 20.2453 10.9881 20.1989 10.9433C20.176 10.9211 20.1581 10.8945 20.1461 10.865C20.1342 10.8355 20.1285 10.8039 20.1295 10.7721C20.1287 10.7293 20.1396 10.6871 20.1609 10.65C20.1818 10.6145 20.2127 10.586 20.2498 10.568C20.2877 10.5489 20.3428 10.5321 20.4142 10.5181C20.5109 10.4993 20.5782 10.4819 20.6152 10.4655V10.4439C20.6152 10.4026 20.6056 10.3728 20.5858 10.3551C20.5659 10.3373 20.5287 10.3288 20.474 10.3288C20.4434 10.3269 20.413 10.3348 20.3872 10.3513C20.3628 10.3718 20.3453 10.3996 20.3369 10.4303ZM18.0141 4.80643L18.7261 7.33056H17.323L18.0141 4.80643ZM16.9956 8.46531H19.0279L19.3177 9.47188H20.8571L19.14 3.64844H16.8473L15.1506 9.47188H16.7228L16.9963 8.46531H16.9956Z" fill="white"/>
<path fill-rule="evenodd" clip-rule="evenodd" d="M8.90634 4.46654C9.53318 4.46654 10.0924 4.76424 10.4605 5.23079L10.7882 4.50619C10.2596 3.98854 9.54912 3.69882 8.80927 3.69922C7.61163 3.69922 6.58694 4.44501 6.16654 5.50046H5.52739L5.15039 6.33443H5.9724C5.95819 6.50657 5.95945 6.67964 5.97616 6.85156H5.56327L5.18594 7.68588H6.18602C6.61873 8.71501 7.63043 9.43756 8.80893 9.43756C9.4033 9.43756 9.95427 9.25401 10.4109 8.94025V7.91829C10.0431 8.34963 9.5055 8.62238 8.90634 8.62238C8.20567 8.62238 7.58942 8.24983 7.23053 7.68588H9.32503L9.70237 6.8519H6.92224C6.89781 6.6806 6.89391 6.507 6.91062 6.33477H9.93581L10.3132 5.5008H7.17209C7.51969 4.8825 8.16602 4.46654 8.90634 4.46654Z" fill="#FFBE00"/>
</g>
<defs>
<clipPath id="clip0_3217_13797">
<rect width="21.1911" height="12.3045" fill="white" transform="translate(0.142578 0.820312)"/>
</clipPath>
</defs>
</svg>
