<svg width="26" height="24" viewBox="0 0 26 24" fill="none" xmlns="http://www.w3.org/2000/svg">
<path d="M2 6.99976L14 6.99976M14 6.99976C14 8.65662 15.3431 9.99976 17 9.99976C18.6569 9.99976 20 8.65662 20 6.99976M14 6.99976C14 5.34291 15.3431 3.99976 17 3.99976C18.6569 3.99976 20 5.34291 20 6.99976M11.5 17.1567L23.5 17.1567M11.5 17.1567C11.5 18.8136 10.1569 20.1567 8.5 20.1567C6.84315 20.1567 5.5 18.8136 5.5 17.1567M11.5 17.1567C11.5 15.4999 10.1569 14.1567 8.5 14.1567C6.84315 14.1567 5.5 15.4999 5.5 17.1567M20 6.99976H24M5.5 17.1567H2" stroke="white" stroke-width="2.4" stroke-linecap="round" stroke-linejoin="round"/>
</svg>
