<svg width="24" height="24" viewBox="0 0 24 24" fill="none" xmlns="http://www.w3.org/2000/svg">
<path d="M10.6204 13.3834L13.6204 10.3834M3.69038 8.75339L19.6104 3.06339C19.7965 2.97608 20.005 2.94827 20.2076 2.98375C20.4101 3.01923 20.5967 3.11626 20.7421 3.26164C20.8875 3.40702 20.9845 3.59368 21.02 3.7962C21.0555 3.99871 21.0277 4.20724 20.9404 4.39339L15.2504 20.3134C15.2 20.5343 15.0761 20.7316 14.899 20.8729C14.7219 21.0142 14.502 21.0912 14.2754 21.0912C14.0488 21.0912 13.8289 21.0142 13.6518 20.8729C13.4746 20.7316 13.3507 20.5343 13.3004 20.3134L10.7904 13.7934C10.7405 13.6555 10.6609 13.5303 10.5572 13.4266C10.4535 13.3229 10.3283 13.2433 10.1904 13.1934L3.67038 10.7034C3.44992 10.6508 3.25386 10.5249 3.11433 10.3463C2.9748 10.1677 2.90007 9.94703 2.9024 9.72041C2.90472 9.49378 2.98396 9.27467 3.12712 9.09897C3.27029 8.92328 3.46889 8.80143 3.69038 8.75339Z" stroke="#130D1A" stroke-width="2" stroke-linecap="round" stroke-linejoin="round"/>
</svg>
