<svg width="56" height="36" viewBox="0 0 56 36" fill="none" xmlns="http://www.w3.org/2000/svg">
<g clip-path="url(#clip0_3204_14213)">
<path d="M11.2212 0.328125H24.8512C26.7542 0.328125 27.9372 1.92513 27.4932 3.89013L21.1472 31.9361C20.7002 33.8941 18.7952 35.4921 16.8912 35.4921H3.26024C1.36024 35.4921 0.175242 33.8941 0.618242 31.9361L6.96924 3.89113C7.41224 1.92513 9.31624 0.328125 11.2212 0.328125Z" fill="#E21836"/>
<path d="M23.7171 0.324219H39.3911C41.2941 0.324219 40.4361 1.92022 39.9881 3.88522L33.6441 31.9322C33.1981 33.8902 33.3371 35.4882 31.4311 35.4882H15.7561C13.8501 35.4882 12.6711 33.8902 13.1181 31.9322L19.4631 3.88522C19.9131 1.92022 21.8131 0.324219 23.7171 0.324219Z" fill="#00447C"/>
<path d="M38.7705 0.324219H52.4005C54.3065 0.324219 55.4895 1.92022 55.0415 3.88522L48.6975 31.9322C48.2495 33.8902 46.3425 35.4882 44.4375 35.4882H30.8155C28.9085 35.4882 27.7255 33.8902 28.1725 31.9322L34.5185 3.88522C34.9625 1.92022 36.8645 0.324219 38.7705 0.324219Z" fill="#007B84"/>
<path d="M14.7831 9.31462C13.3811 9.32962 12.9671 9.31463 12.8351 9.28263C12.7841 9.53163 11.8381 14.0226 11.8351 14.0266C11.6321 14.9356 11.4841 15.5826 10.9801 16.0016C10.6951 16.2446 10.3611 16.3616 9.97406 16.3616C9.35306 16.3616 8.99106 16.0446 8.93006 15.4416L8.91806 15.2346C8.91806 15.2346 9.10806 14.0176 9.10806 14.0106C9.10806 14.0106 10.1001 9.91763 10.2781 9.37663C10.2844 9.35636 10.289 9.33563 10.2921 9.31462C8.36006 9.33262 8.01806 9.31463 7.99406 9.28263C7.97214 9.38156 7.95214 9.48091 7.93406 9.58063L6.92006 14.1936L6.83206 14.5856L6.66406 15.8656C6.66406 16.2446 6.73606 16.5546 6.88106 16.8156C7.34206 17.6466 8.66006 17.7716 9.40506 17.7716C10.3651 17.7716 11.2651 17.5616 11.8751 17.1786C12.9311 16.5356 13.2071 15.5316 13.4541 14.6386L13.5681 14.1806C13.5681 14.1806 14.5911 9.92963 14.7641 9.37663C14.7711 9.34663 14.7741 9.32962 14.7831 9.31462ZM18.2621 12.7446C18.0151 12.7446 17.5651 12.8056 17.1601 13.0096C17.0131 13.0876 16.8751 13.1776 16.7281 13.2666L16.8601 12.7746L16.7881 12.6926C15.9301 12.8716 15.7381 12.8956 14.9451 13.0096L14.8791 13.0556C14.7871 13.8416 14.7051 14.4316 14.3641 15.9756C14.2341 16.5456 14.0991 17.1196 13.9641 17.6876L14.0001 17.7596C14.5876 17.7218 15.1765 17.7111 15.7651 17.7276L15.8221 17.6636C15.9121 17.1906 15.9231 17.0796 16.1221 16.1216C16.2151 15.6676 16.4101 14.6696 16.5061 14.3136C16.6831 14.2296 16.8561 14.1476 17.0231 14.1476C17.4181 14.1476 17.3701 14.5026 17.3551 14.6446C17.3381 14.8816 17.1941 15.6586 17.0461 16.3246L16.9471 16.7546C16.8791 17.0726 16.8031 17.3816 16.7341 17.6966L16.7641 17.7596C17.5641 17.7156 17.8091 17.7156 18.4931 17.7276L18.5731 17.6636C18.6971 16.9246 18.7331 16.7266 18.9531 15.6516L19.0631 15.1576C19.2771 14.1896 19.3851 13.6996 19.2231 13.3006C19.0511 12.8526 18.6401 12.7446 18.2621 12.7446ZM22.1491 13.7566C21.7231 13.8406 21.4521 13.8966 21.1821 13.9336C20.9151 13.9776 20.6541 14.0176 20.2421 14.0766L20.2101 14.1066L20.1801 14.1306C20.1371 14.4466 20.1071 14.7186 20.0501 15.0396C20.0021 15.3706 19.9281 15.7476 19.8081 16.2886C19.7603 16.5277 19.6951 16.763 19.6131 16.9926C19.5611 17.1386 19.5031 17.2796 19.3991 17.6876L19.4231 17.7246L19.4441 17.7596C19.8281 17.7406 20.0801 17.7276 20.3381 17.7246C20.5971 17.7146 20.8641 17.7246 21.2781 17.7276L21.3141 17.6976L21.3531 17.6636C21.4131 17.2956 21.4221 17.1976 21.4581 17.0176C21.4951 16.8256 21.5571 16.5596 21.7101 15.8486C21.7831 15.5156 21.8631 15.1826 21.9381 14.8416C22.0171 14.5016 22.0981 14.1686 22.1761 13.8346L22.1641 13.7946L22.1491 13.7566ZM22.1581 12.3916C21.7711 12.1566 21.0921 12.2316 20.6351 12.5556C20.1801 12.8736 20.1281 13.3256 20.5141 13.5636C20.8941 13.7916 21.5751 13.7236 22.0281 13.3966C22.4821 13.0716 22.5391 12.6246 22.1581 12.3916ZM24.4961 17.8326C25.2791 17.8326 26.0811 17.6106 26.6851 16.9526C27.1491 16.4186 27.3621 15.6226 27.4351 15.2956C27.6751 14.2116 27.4891 13.7056 27.2541 13.3956C26.8971 12.9256 26.2671 12.7756 25.6121 12.7756C25.2191 12.7756 24.2821 12.8156 23.5501 13.5096C23.0251 14.0106 22.7821 14.6906 22.6351 15.3426C22.4871 16.0066 22.3171 17.2026 23.3851 17.6476C23.7151 17.7926 24.1901 17.8326 24.4961 17.8326ZM24.4361 15.3926C24.6161 14.5706 24.8291 13.8816 25.3721 13.8816C25.7981 13.8816 25.8291 14.3946 25.6401 15.2186C25.6061 15.4016 25.4501 16.0816 25.2401 16.3716C25.0931 16.5846 24.9201 16.7146 24.7271 16.7146C24.6701 16.7146 24.3301 16.7146 24.3251 16.1946C24.3221 15.9386 24.3731 15.6766 24.4351 15.3926H24.4361ZM29.3921 17.7276L29.4521 17.6636C29.5391 17.1906 29.5541 17.0796 29.7461 16.1216C29.8421 15.6676 30.0401 14.6696 30.1341 14.3146C30.3101 14.2296 30.4821 14.1466 30.6531 14.1466C31.0461 14.1466 30.9981 14.5026 30.9831 14.6436C30.9681 14.8816 30.8241 15.6576 30.6731 16.3236L30.5801 16.7546C30.5091 17.0726 30.4311 17.3816 30.3621 17.6966L30.3921 17.7596C30.9666 17.7219 31.5425 17.7112 32.1181 17.7276L32.2011 17.6636C32.3211 16.9236 32.3541 16.7266 32.5811 15.6516L32.6881 15.1566C32.9031 14.1896 33.0121 13.6996 32.8531 13.3006C32.6761 12.8526 32.2631 12.7446 31.8901 12.7446C31.6431 12.7446 31.1901 12.8056 30.7881 13.0106C30.6418 13.091 30.4984 13.1764 30.3581 13.2666L30.4811 12.7756L30.4151 12.6926C29.5581 12.8716 29.3621 12.8956 28.5701 13.0106L28.5101 13.0556C28.4131 13.8416 28.3351 14.4316 27.9941 15.9756C27.8641 16.5456 27.7291 17.1196 27.5941 17.6876L27.6301 17.7596C28.2166 17.7218 28.8046 17.7112 29.3921 17.7276ZM35.2941 17.7596C35.3441 17.5056 35.6441 16.0016 35.6471 16.0016C35.6471 16.0016 35.9021 14.8976 35.9171 14.8576C35.9171 14.8576 35.9981 14.7426 36.0791 14.6976H36.1971C37.3131 14.6976 38.5731 14.6976 39.5611 13.9496C40.2331 13.4366 40.6921 12.6796 40.8971 11.7586C40.9501 11.5326 40.9901 11.2636 40.9901 10.9956C40.9901 10.6436 40.9201 10.2946 40.7221 10.0216C40.2181 9.29663 39.2151 9.28263 38.0581 9.27763L37.4871 9.28263C36.0051 9.30263 35.4111 9.29662 35.1671 9.26562L35.1071 9.57463L34.5761 12.1116L33.2461 17.7506C34.5401 17.7336 35.0701 17.7336 35.2941 17.7596ZM36.2771 13.2596L36.8391 10.7416L36.8571 10.6116L36.8651 10.5136L37.0911 10.5376L38.2821 10.6436C38.7421 10.8256 38.9321 11.2976 38.7991 11.9136C38.6791 12.4756 38.3241 12.9486 37.8691 13.1776C37.4931 13.3706 37.0341 13.3876 36.5601 13.3876H36.2541L36.2771 13.2596ZM39.7921 15.4396C39.6421 16.0936 39.4721 17.2896 40.5341 17.7156C40.8731 17.8636 41.1761 17.9076 41.4851 17.8916C41.8111 17.8736 42.1131 17.7056 42.3931 17.4636L42.3171 17.7626L42.3651 17.8266C42.9746 17.7974 43.5849 17.7883 44.1951 17.7996L44.2701 17.7406C44.3911 17.0086 44.5051 16.2986 44.8201 14.8976C44.9721 14.2276 45.1251 13.5626 45.2821 12.8956L45.2581 12.8216C44.4031 12.9846 44.1741 13.0196 43.3511 13.1396L43.2891 13.1926L43.2641 13.3906C43.1276 13.1583 42.9159 12.9794 42.6641 12.8836C42.2991 12.7356 41.4401 12.9256 40.7011 13.6186C40.1821 14.1126 39.9331 14.7886 39.7911 15.4386L39.7921 15.4396ZM41.5881 15.4796C41.7711 14.6726 41.9811 13.9896 42.5261 13.9896C42.8701 13.9896 43.0521 14.3166 43.0151 14.8746C42.9851 15.0146 42.9551 15.1606 42.9171 15.3266C42.8621 15.5666 42.8031 15.8046 42.7461 16.0426C42.6975 16.1903 42.6296 16.3309 42.5441 16.4606C42.4041 16.6656 42.0711 16.7926 41.8791 16.7926C41.8241 16.7926 41.4881 16.7926 41.4761 16.2826C41.4741 16.0276 41.5241 15.7676 41.5881 15.4796ZM50.9671 12.8156L50.9011 12.7376C50.0541 12.9136 49.9011 12.9416 49.1241 13.0506L49.0671 13.1086C49.0641 13.1186 49.0621 13.1336 49.0571 13.1466L49.0551 13.1336C48.4761 14.5076 48.4931 14.2116 48.0221 15.2936C48.0201 15.2436 48.0201 15.2136 48.0171 15.1606L47.8991 12.8156L47.8251 12.7376C46.9381 12.9136 46.9171 12.9416 46.0991 13.0506L46.0351 13.1086C46.0261 13.1366 46.0261 13.1686 46.0211 13.2016L46.0261 13.2136C46.1281 13.7516 46.1041 13.6316 46.2061 14.4806C46.2541 14.8976 46.3181 15.3176 46.3661 15.7286C46.4461 16.4186 46.4921 16.7576 46.5911 17.8086C46.0381 18.7486 45.9071 19.1036 45.3751 19.9286L45.3781 19.9356L45.0041 20.5456C44.9611 20.6106 44.9221 20.6546 44.8671 20.6736C44.7891 20.7038 44.7053 20.7157 44.6221 20.7086H44.4141L44.1051 21.7656L45.1651 21.7856C45.7851 21.7816 46.1771 21.4826 46.3871 21.0806L47.0531 19.9056H47.0431L47.1131 19.8236C47.5601 18.8306 50.9671 12.8156 50.9671 12.8156ZM39.7921 26.6946H39.3421L41.0051 21.0346H41.5561L41.7321 20.4506L41.7491 21.0996C41.7281 21.4996 42.0341 21.8556 42.8391 21.7966H43.7691L44.0891 20.7066H43.7391C43.5391 20.7066 43.4451 20.6546 43.4571 20.5426L43.4401 19.8826H41.7161V19.8856C41.1591 19.8976 39.4961 19.9406 39.1581 20.0336C38.7511 20.1416 38.3211 20.4596 38.3211 20.4596L38.4911 19.8756H36.8781L36.5421 21.0336L34.8581 26.7806H34.5311L34.2101 27.8626H37.4201L37.3131 28.2236H38.8951L39.0001 27.8636H39.4441L39.7921 26.6936V26.6946ZM38.4741 22.1846C38.2161 22.2576 37.7361 22.4806 37.7361 22.4806L38.1631 21.0336H39.4431L39.1351 22.0876C39.1351 22.0876 38.7391 22.1116 38.4751 22.1836L38.4741 22.1846ZM38.4991 24.2506C38.4991 24.2506 38.0971 24.3026 37.8321 24.3646C37.5721 24.4456 37.0821 24.7026 37.0821 24.7026L37.5231 23.1966H38.8111L38.4991 24.2506ZM37.7811 26.7076H36.4971L36.8691 25.4376H38.1491L37.7811 26.7076ZM40.8751 23.1966H42.7271L42.4611 24.0836H40.5851L40.3031 25.0536H41.9451L40.7021 26.8556C40.6442 26.9535 40.5556 27.0294 40.4501 27.0716C40.3486 27.1317 40.2339 27.1661 40.1161 27.1716H39.6611L39.3481 28.2336H40.5391C41.1591 28.2336 41.5241 27.9436 41.7941 27.5626L42.6471 26.3616L42.8301 27.5816C42.845 27.6698 42.8805 27.7532 42.9337 27.8251C42.9868 27.8971 43.0562 27.9555 43.1361 27.9956C43.2561 28.0566 43.3791 28.1626 43.5531 28.1786C43.7391 28.1866 43.8741 28.1926 43.9641 28.1926H44.5491L44.9011 27.0046H44.6701C44.5371 27.0046 44.3101 26.9816 44.2701 26.9386C44.2311 26.8866 44.2311 26.8066 44.2101 26.6846L44.0251 25.4626H43.2651L43.5981 25.0536H45.4711L45.7591 24.0836H44.0251L44.2951 23.1966H46.0231L46.3441 22.1026H41.1911L40.8751 23.1966ZM25.2351 26.9546L25.6671 25.4746H27.4431L27.7681 24.3736H25.9901L26.2611 23.4626H28.0001L28.3221 22.3966H23.9741L23.6591 23.4626H24.6471L24.3831 24.3726H23.3931L23.0651 25.4926H24.0521L23.4761 27.4516C23.3981 27.7116 23.5131 27.8096 23.5851 27.9296C23.6591 28.0476 23.7351 28.1246 23.9031 28.1696C24.0771 28.2096 24.1961 28.2326 24.3581 28.2326H26.3611L26.7181 27.0126L25.8301 27.1386C25.6591 27.1386 25.1831 27.1186 25.2351 26.9546ZM25.4391 19.8686L24.9891 20.7066C24.8921 20.8896 24.8051 21.0026 24.7271 21.0556C24.6581 21.0996 24.5221 21.1176 24.3251 21.1176H24.0901L23.7761 22.1896H24.5561C24.9311 22.1896 25.2191 22.0476 25.3561 21.9766C25.5051 21.8956 25.5441 21.9416 25.6581 21.8286L25.9211 21.5936H28.3571L28.6801 20.4776H26.8971L27.2091 19.8686H25.4391ZM29.0351 26.9756C28.9931 26.9146 29.0231 26.8056 29.0871 26.5806L29.7521 24.3116H32.1211C32.4661 24.3066 32.7151 24.3026 32.8771 24.2916C33.0511 24.2716 33.2411 24.2076 33.4471 24.0936C33.6178 24.0021 33.7608 23.8664 33.8611 23.7006C33.9641 23.5546 34.1281 23.2366 34.2701 22.7466L35.1071 19.8756L32.6491 19.8906C32.6491 19.8906 31.8921 20.0056 31.5591 20.1326C31.2231 20.2736 30.7421 20.6686 30.7421 20.6686L30.9641 19.8816H29.4461L27.3201 27.1386C27.2605 27.3386 27.2148 27.5424 27.1831 27.7486C27.1791 27.8806 27.3451 28.0116 27.4531 28.1106C27.5801 28.2086 27.7681 28.1926 27.9481 28.2086C28.1381 28.2236 28.4081 28.2326 28.7801 28.2326H29.9471L30.3051 26.9876L29.2611 27.0896C29.217 27.0904 29.1734 27.0804 29.134 27.0605C29.0946 27.0407 29.0607 27.0115 29.0351 26.9756ZM30.1821 22.7796H32.6701L32.5111 23.2896C32.4891 23.3016 32.4361 23.2646 32.1831 23.2956H30.0291L30.1821 22.7796ZM30.6801 21.0686H33.1891L33.0091 21.6826C33.0091 21.6826 31.8261 21.6706 31.6371 21.7066C30.8031 21.8556 30.3171 22.3136 30.3171 22.3136L30.6801 21.0686ZM32.5671 24.9986C32.5535 25.0612 32.5185 25.1172 32.4681 25.1566C32.4181 25.1896 32.3361 25.2016 32.2141 25.2016H31.8601L31.8801 24.5806H30.4061L30.3461 27.6186C30.3441 27.8386 30.3651 27.9646 30.5201 28.0656C30.6761 28.1926 31.1561 28.2086 31.8031 28.2086H32.7271L33.0601 27.0716L32.2561 27.1176L31.9881 27.1336C31.9521 27.1176 31.9171 27.1036 31.8781 27.0636C31.8441 27.0286 31.7871 27.0496 31.7961 26.8306L31.8031 26.0506L32.6461 26.0156C33.1021 26.0156 33.2961 25.8626 33.4621 25.7176C33.6211 25.5776 33.6721 25.4176 33.7321 25.2016L33.8741 24.5116H32.7141L32.5671 24.9986Z" fill="#FEFEFE"/>
</g>
<defs>
<clipPath id="clip0_3204_14213">
<rect width="56" height="36" fill="white"/>
</clipPath>
</defs>
</svg>
