<svg width="25" height="24" viewBox="0 0 25 24" fill="none" xmlns="http://www.w3.org/2000/svg">
<path fill-rule="evenodd" clip-rule="evenodd" d="M8.22388 19.433L10.8438 20.1287V19.2189L11.0576 19.0049H12.5547V20.0752V20.8245H10.9507L8.97243 19.9682L8.22388 19.433Z" fill="#CDBDB2"/>
<path fill-rule="evenodd" clip-rule="evenodd" d="M16.7786 19.433L14.2122 20.1287V19.2189L13.9983 19.0049H12.5012V20.0752V20.8245H14.1053L16.0835 19.9682L16.7786 19.433Z" fill="#CDBDB2"/>
<path fill-rule="evenodd" clip-rule="evenodd" d="M11.0576 17.4529L10.8438 19.219L11.111 19.0049H13.8914L14.2122 19.219L13.9983 17.4529L13.5706 17.1853L11.4318 17.2388L11.0576 17.4529Z" fill="#393939"/>
<path fill-rule="evenodd" clip-rule="evenodd" d="M9.61401 5.51849L10.8972 8.51548L11.4854 17.2388H13.5706L14.2122 8.51548L15.3885 5.51849H9.61401Z" fill="#F89C35"/>
<path fill-rule="evenodd" clip-rule="evenodd" d="M4.00001 12.1011L2.50293 16.4361L6.24562 16.222H8.65165V14.3489L8.5447 10.4956L8.01005 10.9238L4.00001 12.1011Z" fill="#F89D35"/>
<path fill-rule="evenodd" clip-rule="evenodd" d="M6.83374 12.5828L11.218 12.6898L10.7368 14.9376L8.65162 14.4024L6.83374 12.5828Z" fill="#D87C30"/>
<path fill-rule="evenodd" clip-rule="evenodd" d="M6.83374 12.6363L8.65162 14.3488V16.0614L6.83374 12.6363Z" fill="#EA8D3A"/>
<path fill-rule="evenodd" clip-rule="evenodd" d="M8.65161 14.4023L10.7903 14.9375L11.4854 17.2388L11.0042 17.5064L8.65161 16.1149V14.4023Z" fill="#F89D35"/>
<path fill-rule="evenodd" clip-rule="evenodd" d="M8.65163 16.1149L8.22388 19.433L11.0576 17.4529L8.65163 16.1149Z" fill="#EB8F35"/>
<path fill-rule="evenodd" clip-rule="evenodd" d="M11.218 12.6898L11.4853 17.2388L10.6833 14.9108L11.218 12.6898Z" fill="#EA8E3A"/>
<path fill-rule="evenodd" clip-rule="evenodd" d="M6.19214 16.1684L8.65162 16.1149L8.22387 19.433L6.19214 16.1684Z" fill="#D87C30"/>
<path fill-rule="evenodd" clip-rule="evenodd" d="M3.6792 20.878L8.2239 19.4331L6.19215 16.1685L2.50293 16.4361L3.6792 20.878Z" fill="#EB8F35"/>
<path fill-rule="evenodd" clip-rule="evenodd" d="M10.8972 8.51544L8.59817 10.4421L6.83374 12.5828L11.218 12.7433L10.8972 8.51544Z" fill="#E8821E"/>
<path fill-rule="evenodd" clip-rule="evenodd" d="M8.22388 19.433L11.0576 17.4529L10.8438 19.1654V20.1287L8.91898 19.7541L8.22388 19.433Z" fill="#DFCEC3"/>
<path fill-rule="evenodd" clip-rule="evenodd" d="M16.7786 19.433L13.9983 17.4529L14.2121 19.1654V20.1287L16.137 19.7541L16.7786 19.433Z" fill="#DFCEC3"/>
<path fill-rule="evenodd" clip-rule="evenodd" d="M10.0418 13.6531L10.6299 14.884L8.54468 14.3488L10.0418 13.6531Z" fill="#393939"/>
<path fill-rule="evenodd" clip-rule="evenodd" d="M3.62573 3.00317L10.8972 8.51548L9.6675 5.5185L3.62573 3.00317Z" fill="#E88F35"/>
<path fill-rule="evenodd" clip-rule="evenodd" d="M3.62574 3.00317L2.66333 5.94664L3.198 9.15768L2.82373 9.37178L3.3584 9.85343L2.93067 10.228L3.5188 10.7632L3.14453 11.0843L4.00001 12.1547L8.01005 10.9238C9.9705 9.35393 10.9329 8.55113 10.8972 8.51548C10.8616 8.47978 8.43775 6.64237 3.62574 3.00317Z" fill="#8E5A30"/>
<path fill-rule="evenodd" clip-rule="evenodd" d="M21.0027 12.1011L22.4998 16.4361L18.7571 16.222H16.3511V14.3489L16.458 10.4956L16.9927 10.9238L21.0027 12.1011Z" fill="#F89D35"/>
<path fill-rule="evenodd" clip-rule="evenodd" d="M18.1687 12.5828L13.7844 12.6898L14.2656 14.9376L16.3509 14.4024L18.1687 12.5828Z" fill="#D87C30"/>
<path fill-rule="evenodd" clip-rule="evenodd" d="M18.1689 12.6363L16.3511 14.3488V16.0614L18.1689 12.6363Z" fill="#EA8D3A"/>
<path fill-rule="evenodd" clip-rule="evenodd" d="M16.3508 14.4023L14.2121 14.9375L13.5171 17.2388L13.9983 17.5064L16.3508 16.1149V14.4023Z" fill="#F89D35"/>
<path fill-rule="evenodd" clip-rule="evenodd" d="M16.3508 16.1149L16.7786 19.433L13.9983 17.5064L16.3508 16.1149Z" fill="#EB8F35"/>
<path fill-rule="evenodd" clip-rule="evenodd" d="M13.7844 12.6898L13.5171 17.2388L14.3191 14.9108L13.7844 12.6898Z" fill="#EA8E3A"/>
<path fill-rule="evenodd" clip-rule="evenodd" d="M18.8105 16.1684L16.3511 16.1149L16.7788 19.433L18.8105 16.1684Z" fill="#D87C30"/>
<path fill-rule="evenodd" clip-rule="evenodd" d="M21.3233 20.878L16.7786 19.4331L18.8103 16.1685L22.4996 16.4361L21.3233 20.878Z" fill="#EB8F35"/>
<path fill-rule="evenodd" clip-rule="evenodd" d="M14.1052 8.51544L16.4043 10.4421L18.1687 12.5828L13.7844 12.7433L14.1052 8.51544Z" fill="#E8821E"/>
<path fill-rule="evenodd" clip-rule="evenodd" d="M14.9607 13.6531L14.3726 14.884L16.4578 14.3488L14.9607 13.6531Z" fill="#393939"/>
<path fill-rule="evenodd" clip-rule="evenodd" d="M21.377 3.00317L14.1055 8.51548L15.3352 5.5185L21.377 3.00317Z" fill="#E88F35"/>
<path fill-rule="evenodd" clip-rule="evenodd" d="M21.3767 3.00317L22.3391 5.94664L21.8045 9.15768L22.1787 9.37178L21.6441 9.85343L22.0718 10.228L21.4837 10.7632L21.8579 11.0843L21.0025 12.1547L16.9925 10.9238C15.032 9.35393 14.0696 8.55113 14.1052 8.51548C14.1409 8.47978 16.5647 6.64237 21.3767 3.00317Z" fill="#8E5A30"/>
</svg>
