<svg width="40" height="40" viewBox="0 0 40 40" fill="none" xmlns="http://www.w3.org/2000/svg">
<path fill-rule="evenodd" clip-rule="evenodd" d="M12.8735 32.3884L17.24 33.5479V32.0316L17.5965 31.6748H20.0916V33.4587V34.7075H17.4183L14.1211 33.2803L12.8735 32.3884Z" fill="#CDBDB2"/>
<path fill-rule="evenodd" clip-rule="evenodd" d="M27.1314 32.3884L22.854 33.5479V32.0316L22.4976 31.6748H20.0024V33.4587V34.7075H22.6759L25.9729 33.2803L27.1314 32.3884Z" fill="#CDBDB2"/>
<path fill-rule="evenodd" clip-rule="evenodd" d="M17.5962 29.0881L17.2397 32.0315L17.6852 31.6748H22.3191L22.8537 32.0315L22.4973 29.0881L21.7844 28.6421L18.2199 28.7313L17.5962 29.0881Z" fill="#393939"/>
<path fill-rule="evenodd" clip-rule="evenodd" d="M15.1904 9.19775L17.3291 14.1927L18.3093 28.7316H21.7847L22.854 14.1927L24.8145 9.19775H15.1904Z" fill="#F89C35"/>
<path fill-rule="evenodd" clip-rule="evenodd" d="M5.83351 20.1685L3.33838 27.3934L9.5762 27.0366H13.5862V23.9148L13.408 17.4927L12.5169 18.2063L5.83351 20.1685Z" fill="#F89D35"/>
<path fill-rule="evenodd" clip-rule="evenodd" d="M10.5566 20.9717L17.8638 21.15L17.0618 24.8963L13.5864 24.0043L10.5566 20.9717Z" fill="#D87C30"/>
<path fill-rule="evenodd" clip-rule="evenodd" d="M10.5566 21.0605L13.5864 23.9148V26.769L10.5566 21.0605Z" fill="#EA8D3A"/>
<path fill-rule="evenodd" clip-rule="evenodd" d="M13.5864 24.0039L17.1509 24.8959L18.3093 28.7313L17.5073 29.1773L13.5864 26.8582V24.0039Z" fill="#F89D35"/>
<path fill-rule="evenodd" clip-rule="evenodd" d="M13.5865 26.8584L12.8735 32.3886L17.5965 29.0883L13.5865 26.8584Z" fill="#EB8F35"/>
<path fill-rule="evenodd" clip-rule="evenodd" d="M17.8637 21.1499L18.3093 28.7316L16.9727 24.8516L17.8637 21.1499Z" fill="#EA8E3A"/>
<path fill-rule="evenodd" clip-rule="evenodd" d="M9.4873 26.9476L13.5864 26.8584L12.8735 32.3886L9.4873 26.9476Z" fill="#D87C30"/>
<path fill-rule="evenodd" clip-rule="evenodd" d="M5.29883 34.7965L12.8733 32.3883L9.48708 26.9473L3.33838 27.3933L5.29883 34.7965Z" fill="#EB8F35"/>
<path fill-rule="evenodd" clip-rule="evenodd" d="M17.3291 14.1924L13.4973 17.4035L10.5566 20.9713L17.8638 21.2389L17.3291 14.1924Z" fill="#E8821E"/>
<path fill-rule="evenodd" clip-rule="evenodd" d="M12.8735 32.3886L17.5965 29.0884L17.24 31.9426V33.5481L14.032 32.9238L12.8735 32.3886Z" fill="#DFCEC3"/>
<path fill-rule="evenodd" clip-rule="evenodd" d="M27.1314 32.3886L22.4976 29.0884L22.854 31.9426V33.5481L26.0621 32.9238L27.1314 32.3886Z" fill="#DFCEC3"/>
<path fill-rule="evenodd" clip-rule="evenodd" d="M15.9034 22.7554L16.8835 24.8069L13.4082 23.9149L15.9034 22.7554Z" fill="#393939"/>
<path fill-rule="evenodd" clip-rule="evenodd" d="M5.20947 5.00537L17.3287 14.1925L15.2791 9.19757L5.20947 5.00537Z" fill="#E88F35"/>
<path fill-rule="evenodd" clip-rule="evenodd" d="M5.20948 5.00537L3.60547 9.91114L4.49659 15.2629L3.8728 15.6197L4.76392 16.4225L4.05103 17.0468L5.03126 17.9388L4.40747 18.474L5.83326 20.2579L12.5167 18.2064C15.7841 15.59 17.3881 14.252 17.3287 14.1925C17.2692 14.133 13.2295 11.0707 5.20948 5.00537Z" fill="#8E5A30"/>
<path fill-rule="evenodd" clip-rule="evenodd" d="M34.1712 20.1685L36.6663 27.3934L30.4285 27.0366H26.4185V23.9148L26.5966 17.4927L27.4878 18.2063L34.1712 20.1685Z" fill="#F89D35"/>
<path fill-rule="evenodd" clip-rule="evenodd" d="M29.4483 20.9717L22.1411 21.15L22.9431 24.8963L26.4185 24.0043L29.4483 20.9717Z" fill="#D87C30"/>
<path fill-rule="evenodd" clip-rule="evenodd" d="M29.4482 21.0605L26.4185 23.9148V26.769L29.4482 21.0605Z" fill="#EA8D3A"/>
<path fill-rule="evenodd" clip-rule="evenodd" d="M26.4182 24.0039L22.8537 24.8959L21.6953 28.7313L22.4973 29.1773L26.4182 26.8582V24.0039Z" fill="#F89D35"/>
<path fill-rule="evenodd" clip-rule="evenodd" d="M26.4185 26.8584L27.1314 32.3886L22.4976 29.1775L26.4185 26.8584Z" fill="#EB8F35"/>
<path fill-rule="evenodd" clip-rule="evenodd" d="M22.1409 21.1499L21.6953 28.7316L23.032 24.8516L22.1409 21.1499Z" fill="#EA8E3A"/>
<path fill-rule="evenodd" clip-rule="evenodd" d="M30.5175 26.9476L26.4185 26.8584L27.1314 32.3886L30.5175 26.9476Z" fill="#D87C30"/>
<path fill-rule="evenodd" clip-rule="evenodd" d="M34.7059 34.7965L27.1313 32.3883L30.5176 26.9473L36.6663 27.3933L34.7059 34.7965Z" fill="#EB8F35"/>
<path fill-rule="evenodd" clip-rule="evenodd" d="M22.6758 14.1924L26.5076 17.4035L29.4483 20.9713L22.1411 21.2389L22.6758 14.1924Z" fill="#E8821E"/>
<path fill-rule="evenodd" clip-rule="evenodd" d="M24.1013 22.7554L23.1211 24.8069L26.5965 23.9149L24.1013 22.7554Z" fill="#393939"/>
<path fill-rule="evenodd" clip-rule="evenodd" d="M34.7949 5.00537L22.6758 14.1925L24.7254 9.19757L34.7949 5.00537Z" fill="#E88F35"/>
<path fill-rule="evenodd" clip-rule="evenodd" d="M34.7946 5.00537L36.3986 9.91114L35.5075 15.2629L36.1313 15.6197L35.2402 16.4225L35.9531 17.0468L34.9728 17.9388L35.5966 18.474L34.1708 20.2579L27.4875 18.2064C24.22 15.59 22.616 14.252 22.6754 14.1925C22.7348 14.133 26.7746 11.0707 34.7946 5.00537Z" fill="#8E5A30"/>
</svg>
