<svg width="20" height="20" viewBox="0 0 20 20" fill="none" xmlns="http://www.w3.org/2000/svg">
<path d="M13.3333 6.66668V3.75055C13.3333 3.05744 13.3333 2.71088 13.1873 2.4979C13.0598 2.31183 12.8622 2.18542 12.6398 2.14758C12.3852 2.10426 12.0706 2.24949 11.4413 2.53994L4.04918 5.95167C3.48792 6.21071 3.20729 6.34023 3.00175 6.54111C2.82005 6.71869 2.68135 6.93547 2.59625 7.17487C2.5 7.44567 2.5 7.75474 2.5 8.3729V12.5M13.75 12.0833H13.7583M2.5 9.33334L2.5 14.8333C2.5 15.7668 2.5 16.2335 2.68166 16.59C2.84144 16.9036 3.09641 17.1586 3.41002 17.3184C3.76654 17.5 4.23325 17.5 5.16667 17.5H14.8333C15.7668 17.5 16.2335 17.5 16.59 17.3184C16.9036 17.1586 17.1586 16.9036 17.3183 16.59C17.5 16.2335 17.5 15.7668 17.5 14.8333V9.33334C17.5 8.39992 17.5 7.93321 17.3183 7.57669C17.1586 7.26309 16.9036 7.00812 16.59 6.84833C16.2335 6.66668 15.7668 6.66668 14.8333 6.66668L5.16667 6.66668C4.23325 6.66668 3.76654 6.66668 3.41002 6.84833C3.09641 7.00812 2.84144 7.26309 2.68166 7.57669C2.5 7.93321 2.5 8.39992 2.5 9.33334ZM14.1667 12.0833C14.1667 12.3135 13.9801 12.5 13.75 12.5C13.5199 12.5 13.3333 12.3135 13.3333 12.0833C13.3333 11.8532 13.5199 11.6667 13.75 11.6667C13.9801 11.6667 14.1667 11.8532 14.1667 12.0833Z" stroke="white" stroke-width="2" stroke-linecap="round" stroke-linejoin="round"/>
</svg>
