<svg width="40" height="40" viewBox="0 0 40 40" fill="none" xmlns="http://www.w3.org/2000/svg">
<path fill-rule="evenodd" clip-rule="evenodd" d="M12.8735 32.3884L17.24 33.5479V32.0316L17.5965 31.6748H20.0916V33.4587V34.7075H17.4183L14.1211 33.2803L12.8735 32.3884Z" fill="#CDBDB2"/>
<path fill-rule="evenodd" clip-rule="evenodd" d="M27.1314 32.3884L22.854 33.5479V32.0316L22.4976 31.6748H20.0024V33.4587V34.7075H22.6759L25.9729 33.2803L27.1314 32.3884Z" fill="#CDBDB2"/>
<path fill-rule="evenodd" clip-rule="evenodd" d="M17.5962 29.0882L17.2397 32.0316L17.6852 31.6748H22.3191L22.8537 32.0316L22.4973 29.0882L21.7844 28.6422L18.2199 28.7313L17.5962 29.0882Z" fill="#393939"/>
<path fill-rule="evenodd" clip-rule="evenodd" d="M15.1904 9.19749L17.3291 14.1925L18.3093 28.7314H21.7847L22.854 14.1925L24.8145 9.19749H15.1904Z" fill="#F89C35"/>
<path fill-rule="evenodd" clip-rule="evenodd" d="M5.83351 20.1685L3.33838 27.3934L9.5762 27.0366H13.5862V23.9148L13.408 17.4927L12.5169 18.2063L5.83351 20.1685Z" fill="#F89D35"/>
<path fill-rule="evenodd" clip-rule="evenodd" d="M10.5566 20.9714L17.8638 21.1497L17.0618 24.896L13.5864 24.004L10.5566 20.9714Z" fill="#D87C30"/>
<path fill-rule="evenodd" clip-rule="evenodd" d="M10.5566 21.0605L13.5864 23.9147V26.769L10.5566 21.0605Z" fill="#EA8D3A"/>
<path fill-rule="evenodd" clip-rule="evenodd" d="M13.5864 24.0039L17.1509 24.8959L18.3093 28.7313L17.5073 29.1773L13.5864 26.8582V24.0039Z" fill="#F89D35"/>
<path fill-rule="evenodd" clip-rule="evenodd" d="M13.5865 26.8582L12.8735 32.3884L17.5965 29.0881L13.5865 26.8582Z" fill="#EB8F35"/>
<path fill-rule="evenodd" clip-rule="evenodd" d="M17.8637 21.1497L18.3093 28.7314L16.9727 24.8514L17.8637 21.1497Z" fill="#EA8E3A"/>
<path fill-rule="evenodd" clip-rule="evenodd" d="M9.4873 26.9474L13.5864 26.8582L12.8735 32.3884L9.4873 26.9474Z" fill="#D87C30"/>
<path fill-rule="evenodd" clip-rule="evenodd" d="M5.29883 34.7967L12.8733 32.3884L9.48708 26.9474L3.33838 27.3934L5.29883 34.7967Z" fill="#EB8F35"/>
<path fill-rule="evenodd" clip-rule="evenodd" d="M17.3291 14.1924L13.4973 17.4035L10.5566 20.9713L17.8638 21.2389L17.3291 14.1924Z" fill="#E8821E"/>
<path fill-rule="evenodd" clip-rule="evenodd" d="M12.8735 32.3884L17.5965 29.0881L17.24 31.9424V33.5479L14.032 32.9236L12.8735 32.3884Z" fill="#DFCEC3"/>
<path fill-rule="evenodd" clip-rule="evenodd" d="M27.1314 32.3884L22.4976 29.0881L22.854 31.9424V33.5479L26.0621 32.9236L27.1314 32.3884Z" fill="#DFCEC3"/>
<path fill-rule="evenodd" clip-rule="evenodd" d="M15.9034 22.7552L16.8835 24.8067L13.4082 23.9147L15.9034 22.7552Z" fill="#393939"/>
<path fill-rule="evenodd" clip-rule="evenodd" d="M5.20947 5.00529L17.3287 14.1925L15.2791 9.1975L5.20947 5.00529Z" fill="#E88F35"/>
<path fill-rule="evenodd" clip-rule="evenodd" d="M5.20948 5.00529L3.60547 9.91106L4.49659 15.2628L3.8728 15.6196L4.76392 16.4224L4.05103 17.0467L5.03126 17.9387L4.40747 18.4739L5.83326 20.2578L12.5167 18.2063C15.7841 15.5899 17.3881 14.2519 17.3287 14.1925C17.2692 14.133 13.2295 11.0706 5.20948 5.00529Z" fill="#8E5A30"/>
<path fill-rule="evenodd" clip-rule="evenodd" d="M34.1712 20.1685L36.6663 27.3934L30.4285 27.0366H26.4185V23.9148L26.5966 17.4927L27.4878 18.2063L34.1712 20.1685Z" fill="#F89D35"/>
<path fill-rule="evenodd" clip-rule="evenodd" d="M29.4483 20.9714L22.1411 21.1497L22.9431 24.896L26.4185 24.004L29.4483 20.9714Z" fill="#D87C30"/>
<path fill-rule="evenodd" clip-rule="evenodd" d="M29.4482 21.0605L26.4185 23.9147V26.769L29.4482 21.0605Z" fill="#EA8D3A"/>
<path fill-rule="evenodd" clip-rule="evenodd" d="M26.4182 24.0039L22.8537 24.8959L21.6953 28.7313L22.4973 29.1773L26.4182 26.8582V24.0039Z" fill="#F89D35"/>
<path fill-rule="evenodd" clip-rule="evenodd" d="M26.4185 26.8582L27.1314 32.3884L22.4976 29.1773L26.4185 26.8582Z" fill="#EB8F35"/>
<path fill-rule="evenodd" clip-rule="evenodd" d="M22.1409 21.1497L21.6953 28.7314L23.032 24.8514L22.1409 21.1497Z" fill="#EA8E3A"/>
<path fill-rule="evenodd" clip-rule="evenodd" d="M30.5175 26.9474L26.4185 26.8582L27.1314 32.3884L30.5175 26.9474Z" fill="#D87C30"/>
<path fill-rule="evenodd" clip-rule="evenodd" d="M34.7059 34.7967L27.1313 32.3884L30.5176 26.9474L36.6663 27.3934L34.7059 34.7967Z" fill="#EB8F35"/>
<path fill-rule="evenodd" clip-rule="evenodd" d="M22.6758 14.1924L26.5076 17.4035L29.4483 20.9713L22.1411 21.2389L22.6758 14.1924Z" fill="#E8821E"/>
<path fill-rule="evenodd" clip-rule="evenodd" d="M24.1013 22.7552L23.1211 24.8067L26.5965 23.9147L24.1013 22.7552Z" fill="#393939"/>
<path fill-rule="evenodd" clip-rule="evenodd" d="M34.7949 5.00529L22.6758 14.1925L24.7254 9.1975L34.7949 5.00529Z" fill="#E88F35"/>
<path fill-rule="evenodd" clip-rule="evenodd" d="M34.7946 5.00529L36.3986 9.91106L35.5075 15.2628L36.1313 15.6196L35.2402 16.4224L35.9531 17.0467L34.9728 17.9387L35.5966 18.4739L34.1708 20.2578L27.4875 18.2063C24.22 15.5899 22.616 14.2519 22.6754 14.1925C22.7348 14.133 26.7746 11.0706 34.7946 5.00529Z" fill="#8E5A30"/>
</svg>
