<svg width="9" height="10" viewBox="0 0 9 10" fill="none" xmlns="http://www.w3.org/2000/svg">
<g clip-path="url(#clip0_3217_13858)">
<mask id="mask0_3217_13858" style="mask-type:luminance" maskUnits="userSpaceOnUse" x="0" y="0" width="9" height="10">
<path d="M8.45886 0.890625H0.255859V9.09362H8.45886V0.890625Z" fill="white"/>
</mask>
<g mask="url(#mask0_3217_13858)">
<path d="M4.35736 9.09362C6.62255 9.09362 8.45886 7.25732 8.45886 4.99212C8.45886 2.72693 6.62255 0.890625 4.35736 0.890625C2.09216 0.890625 0.255859 2.72693 0.255859 4.99212C0.255859 7.25732 2.09216 9.09362 4.35736 9.09362Z" fill="#FF0000"/>
<path d="M7.06091 3.5821C7.02882 3.45804 6.96589 3.3449 6.87839 3.25401C6.79089 3.16311 6.68197 3.09766 6.56244 3.06419C6.12245 2.94141 4.35884 2.94141 4.35884 2.94141C4.35884 2.94141 2.59522 2.94141 2.15526 3.06354C2.03569 3.0969 1.92667 3.16232 1.83917 3.25323C1.75167 3.34413 1.68876 3.45733 1.65676 3.58145C1.53906 4.03862 1.53906 4.99216 1.53906 4.99216C1.53906 4.99216 1.53906 5.94569 1.65676 6.40222C1.72159 6.65432 1.91293 6.85284 2.15526 6.92013C2.59522 7.04291 4.35884 7.04291 4.35884 7.04291C4.35884 7.04291 6.12245 7.04291 6.56244 6.92013C6.80539 6.85284 6.99611 6.65432 7.06091 6.40222C7.17862 5.94569 7.17862 4.99216 7.17862 4.99216C7.17862 4.99216 7.17862 4.03862 7.06091 3.5821ZM3.79865 5.86731V4.117L5.25892 4.98563L3.79865 5.86731Z" fill="white"/>
</g>
</g>
<defs>
<clipPath id="clip0_3217_13858">
<rect width="8.203" height="8.203" fill="white" transform="translate(0.255859 0.882812)"/>
</clipPath>
</defs>
</svg>
